<?xml version="1.0" standalone="no"?><svg xmlns:xlink="http://www.w3.org/1999/xlink" xmlns="http://www.w3.org/2000/svg" viewBox="0 0 1500 937.5" preserveAspectRatio="xMaxYMax slice"><g transform="scale(1.25)"><rect x="0" y="0" width="1200" height="750" fill="none"/><path d="M 191.59 48.42 A 6.83 6.83 0 0 1  198.42000000000002 41.59 L 191.59 48.42 A 6.83 6.83 0 0 0 198.42000000000002 41.59" fill="#164b56"/><path d="M 191.17 78.83 A 7.66 7.66 0 0 1  198.82999999999998 71.17 L 191.17 78.83 A 7.66 7.66 0 0 0 198.82999999999998 71.17" fill="#658590"/><path d="M 459.93 69.93 A 10.15 10.15 0 0 1  470.08 80.08000000000001 L 459.93 69.93 A 10.15 10.15 0 0 0 470.08 80.08000000000001" fill="#194b57"/><rect x="820.20288" y="70.20288" width="9.59424" height="9.59424" fill="none"/><path d="M 825 70.2 A 4.8 4.8 0 0 1  829.8 75 L 825 70.2 A 4.8 4.8 0 0 0 829.8 75" fill="#16475a"/><path d="M 309.93 99.93 A 10.15 10.15 0 0 1  320.08 110.08000000000001 L 309.93 99.93 A 10.15 10.15 0 0 0 320.08 110.08000000000001" fill="#6980af"/><path d="M 369.51 110.49000000000001 A 10.98 10.98 0 0 1  380.49 99.51 L 369.51 110.49000000000001 A 10.98 10.98 0 0 0 380.49 99.51" fill="#4c7982"/><rect x="458.8896" y="98.8896" width="12.220799999999997" height="12.220799999999997" fill="none"/><path d="M 458.89 111.11 A 6.11 6.11 0 0 1  465 105 L 458.89 111.11 A 6.11 6.11 0 0 0 465 105" fill="#09404b"/><rect x="548.544" y="98.544" width="12.911999999999999" height="12.911999999999999" fill="none"/><path d="M 608.54 98.54 A 12.91 12.91 0 0 1  621.4499999999999 111.45 L 608.54 98.54 A 12.91 12.91 0 0 0 621.4499999999999 111.45" fill="#627ba8"/><path d="M 698.54 111.45 A 12.91 12.91 0 0 1  711.4499999999999 98.54 L 698.54 111.45 A 12.91 12.91 0 0 0 711.4499999999999 98.54" fill="#37626e"/><rect x="819.30432" y="99.30432" width="11.391359999999999" height="11.391359999999999" fill="none"/><path d="M 909.93 110.08000000000001 A 10.15 10.15 0 0 1  920.0799999999999 99.93 L 909.93 110.08000000000001 A 10.15 10.15 0 0 0 920.0799999999999 99.93" fill="#104551"/><path d="M 428.13 141.87 A 13.74 13.74 0 0 1  441.87 128.13 L 428.13 141.87 A 13.74 13.74 0 0 0 441.87 128.13" fill="#285762"/><path d="M 547.39 142.61 A 15.22 15.22 0 0 1  562.61 127.39 L 547.39 142.61 A 15.22 15.22 0 0 0 562.61 127.39" fill="#8f99d5"/><path d="M 577.39 142.61 A 15.22 15.22 0 0 1  592.61 127.39 L 577.39 142.61 A 15.22 15.22 0 0 0 592.61 127.39" fill="#395f7e"/><path d="M 637.39 127.39 A 15.22 15.22 0 0 1  652.61 142.61 L 637.39 127.39 A 15.22 15.22 0 0 0 652.61 142.61" fill="#1c4d59"/><path d="M 667.39 127.39 A 15.22 15.22 0 0 1  682.61 142.61 L 667.39 127.39 A 15.22 15.22 0 0 0 682.61 142.61" fill="#0a404c"/><path d="M 1000.06 130.06 A 9.87 9.87 0 0 1  1009.93 139.93 L 1000.06 130.06 A 9.87 9.87 0 0 0 1009.93 139.93" fill="#b1b0f8"/><path d="M 100.96 160.96 A 8.07 8.07 0 0 1  109.03 169.03 L 100.96 160.96 A 8.07 8.07 0 0 0 109.03 169.03" fill="#9bafb9"/><path d="M 249.24 159.24 A 11.53 11.53 0 0 1  260.77 170.77 L 249.24 159.24 A 11.53 11.53 0 0 0 260.77 170.77" fill="#446689"/><path d="M 397.51 172.5 A 14.99 14.99 0 0 1  412.5 157.51 L 397.51 172.5 A 14.99 14.99 0 0 0 412.5 157.51" fill="#90b3ba"/><path d="M 486.47 156.47 A 17.06 17.06 0 0 1  503.53000000000003 173.53 L 486.47 156.47 A 17.06 17.06 0 0 0 503.53000000000003 173.53" fill="#7a8bc0"/><path d="M 516.24 156.24 A 17.52 17.52 0 0 1  533.76 173.76000000000002 L 516.24 156.24 A 17.52 17.52 0 0 0 533.76 173.76000000000002" fill="#cad3dd"/><rect x="576.24" y="156.24" width="17.519999999999996" height="17.519999999999996" fill="none"/><path d="M 576.24 156.24 A 8.76 8.76 0 0 1  585 165 L 576.24 156.24 A 8.76 8.76 0 0 0 585 165" fill="#366670"/><path d="M 576.24 165 A 8.76 8.76 0 0 1  585 173.76 L 576.24 165 A 8.76 8.76 0 0 0 585 173.76" fill="#0c424d"/><path d="M 696.24 156.24 A 17.52 17.52 0 0 1  713.76 173.76000000000002 L 696.24 156.24 A 17.52 17.52 0 0 0 713.76 173.76000000000002" fill="#657caa"/><rect x="756.816" y="156.816" width="16.367999999999995" height="16.367999999999995" fill="none"/><path d="M 765 156.82 A 8.18 8.18 0 0 1  773.18 165 L 765 156.82 A 8.18 8.18 0 0 0 773.18 165" fill="#74919c"/><path d="M 817.51 172.5 A 14.99 14.99 0 0 1  832.5 157.51 L 817.51 172.5 A 14.99 14.99 0 0 0 832.5 157.51" fill="#b5b3fb"/><path d="M 878.2 158.2 A 13.6 13.6 0 0 1  891.8000000000001 171.79999999999998 L 878.2 158.2 A 13.6 13.6 0 0 0 891.8000000000001 171.79999999999998" fill="#4b6b90"/><rect x="938.8896" y="158.8896" width="12.220799999999997" height="12.220799999999997" fill="none"/><rect x="485.36448" y="185.36448000000001" width="19.271039999999996" height="19.271039999999996" fill="none"/><path d="M 485.36 195 A 9.64 9.64 0 0 1  495 185.36 L 485.36 195 A 9.64 9.64 0 0 0 495 185.36" fill="#043b48"/><path d="M 495 195 A 9.64 9.64 0 0 1  504.64 185.36 L 495 195 A 9.64 9.64 0 0 0 504.64 185.36" fill="#023a46"/><path d="M 495 204.64 A 9.64 9.64 0 0 1  504.64 195 L 495 204.64 A 9.64 9.64 0 0 0 504.64 195" fill="#c3ced7"/><path d="M 545.09 185.09 A 19.82 19.82 0 0 1  564.9100000000001 204.91 L 545.09 185.09 A 19.82 19.82 0 0 0 564.9100000000001 204.91" fill="#d0d8e1"/><path d="M 575.09 185.09 A 19.82 19.82 0 0 1  594.9100000000001 204.91 L 575.09 185.09 A 19.82 19.82 0 0 0 594.9100000000001 204.91" fill="#517e87"/><rect x="605.088" y="185.088" width="19.823999999999998" height="19.823999999999998" fill="none"/><path d="M 605.09 195 A 9.91 9.91 0 0 1  615 185.09 L 605.09 195 A 9.91 9.91 0 0 0 615 185.09" fill="#d1d8e2"/><path d="M 605.09 195 A 9.91 9.91 0 0 1  615 204.91 L 605.09 195 A 9.91 9.91 0 0 0 615 204.91" fill="#34606b"/><path d="M 615 204.91 A 9.91 9.91 0 0 1  624.91 195 L 615 204.91 A 9.91 9.91 0 0 0 624.91 195" fill="#dbf3f8"/><path d="M 635.09 185.09 A 19.82 19.82 0 0 1  654.9100000000001 204.91 L 635.09 185.09 A 19.82 19.82 0 0 0 654.9100000000001 204.91" fill="#cee8ed"/><path d="M 695.09 204.91 A 19.82 19.82 0 0 1  714.9100000000001 185.09 L 695.09 204.91 A 19.82 19.82 0 0 0 714.9100000000001 185.09" fill="#c2dee3"/><path d="M 786.19 203.8 A 17.61 17.61 0 0 1  803.8000000000001 186.19 L 786.19 203.8 A 17.61 17.61 0 0 0 803.8000000000001 186.19" fill="#62838e"/><path d="M 816.61 186.61 A 16.78 16.78 0 0 1  833.39 203.39000000000001 L 816.61 186.61 A 16.78 16.78 0 0 0 833.39 203.39000000000001" fill="#466e79"/><rect x="847.02336" y="187.02336" width="15.95328" height="15.95328" fill="none"/><path d="M 847.02 195 A 7.98 7.98 0 0 1  855 202.98 L 847.02 195 A 7.98 7.98 0 0 0 855 202.98" fill="#a1c2c8"/><path d="M 907.85 187.85 A 14.29 14.29 0 0 1  922.14 202.14 L 907.85 187.85 A 14.29 14.29 0 0 0 922.14 202.14" fill="#e7e9f2"/><rect x="189.09696" y="219.09696" width="11.806080000000001" height="11.806080000000001" fill="none"/><rect x="248.12928" y="218.12928" width="13.74144" height="13.74144" fill="none"/><path d="M 248.13 218.13 A 6.87 6.87 0 0 1  255 225 L 248.13 218.13 A 6.87 6.87 0 0 0 255 225" fill="#19495d"/><path d="M 277.65 217.65 A 14.71 14.71 0 0 1  292.35999999999996 232.36 L 277.65 217.65 A 14.71 14.71 0 0 0 292.35999999999996 232.36" fill="#dfe3ed"/><path d="M 307.16 217.16 A 15.68 15.68 0 0 1  322.84000000000003 232.84 L 307.16 217.16 A 15.68 15.68 0 0 0 322.84000000000003 232.84" fill="#2b5570"/><path d="M 366.19 233.8 A 17.61 17.61 0 0 1  383.8 216.19 L 366.19 233.8 A 17.61 17.61 0 0 0 383.8 216.19" fill="#28536d"/><path d="M 395.71 234.29000000000002 A 18.58 18.58 0 0 1  414.28999999999996 215.71 L 395.71 234.29000000000002 A 18.58 18.58 0 0 0 414.28999999999996 215.71" fill="#58838c"/><path d="M 425.23 215.23 A 19.55 19.55 0 0 1  444.78000000000003 234.78 L 425.23 215.23 A 19.55 19.55 0 0 0 444.78000000000003 234.78" fill="#2f606b"/><rect x="454.7424" y="214.7424" width="20.5152" height="20.5152" fill="none"/><path d="M 465 225 A 10.26 10.26 0 0 1  475.26 235.26 L 465 225 A 10.26 10.26 0 0 0 475.26 235.26" fill="#063c4a"/><path d="M 484.26 235.73999999999998 A 21.48 21.48 0 0 1  505.74 214.26 L 484.26 235.73999999999998 A 21.48 21.48 0 0 0 505.74 214.26" fill="#144954"/><rect x="573.936" y="213.936" width="22.128" height="22.128" fill="none"/><path d="M 573.94 213.94 A 11.06 11.06 0 0 1  585 225 L 573.94 213.94 A 11.06 11.06 0 0 0 585 225" fill="#b3d1d7"/><path d="M 573.94 236.06 A 11.06 11.06 0 0 1  585 225 L 573.94 236.06 A 11.06 11.06 0 0 0 585 225" fill="#0b404f"/><path d="M 585 236.06 A 11.06 11.06 0 0 1  596.06 225 L 585 236.06 A 11.06 11.06 0 0 0 596.06 225" fill="#739aa2"/><path d="M 633.94 213.94 A 22.13 22.13 0 0 1  656.07 236.07 L 633.94 213.94 A 22.13 22.13 0 0 0 656.07 236.07" fill="#6a939b"/><path d="M 663.94 236.07 A 22.13 22.13 0 0 1  686.07 213.94 L 663.94 236.07 A 22.13 22.13 0 0 0 686.07 213.94" fill="#5b7e89"/><path d="M 724.26 214.26 A 21.48 21.48 0 0 1  745.74 235.73999999999998 L 724.26 214.26 A 21.48 21.48 0 0 0 745.74 235.73999999999998" fill="#3d6772"/><path d="M 754.74 235.26000000000002 A 20.52 20.52 0 0 1  775.26 214.74 L 754.74 235.26000000000002 A 20.52 20.52 0 0 0 775.26 214.74" fill="#0c4050"/><path d="M 785.23 234.78 A 19.55 19.55 0 0 1  804.78 215.23 L 785.23 234.78 A 19.55 19.55 0 0 0 804.78 215.23" fill="#cee8ed"/><rect x="815.71008" y="215.71008" width="18.57984" height="18.57984" fill="none"/><path d="M 815.71 225 A 9.29 9.29 0 0 1  825 234.29 L 815.71 225 A 9.29 9.29 0 0 0 825 234.29" fill="#225560"/><path d="M 825 225 A 9.29 9.29 0 0 1  834.29 234.29 L 825 225 A 9.29 9.29 0 0 0 834.29 234.29" fill="#204e64"/><rect x="846.19392" y="216.19392" width="17.61216" height="17.61216" fill="none"/><path d="M 846.19 225 A 8.81 8.81 0 0 1  855 216.19 L 846.19 225 A 8.81 8.81 0 0 0 855 216.19" fill="#9aa0e0"/><path d="M 855 225 A 8.81 8.81 0 0 1  863.81 216.19 L 855 225 A 8.81 8.81 0 0 0 863.81 216.19" fill="#57739d"/><path d="M 846.19 225 A 8.81 8.81 0 0 1  855 233.81 L 846.19 225 A 8.81 8.81 0 0 0 855 233.81" fill="#a7aaee"/><rect x="876.67776" y="216.67776" width="16.644479999999998" height="16.644479999999998" fill="none"/><path d="M 876.68 225 A 8.32 8.32 0 0 1  885 216.68 L 876.68 225 A 8.32 8.32 0 0 0 885 216.68" fill="#083d4c"/><path d="M 885 225 A 8.32 8.32 0 0 1  893.32 216.68 L 885 225 A 8.32 8.32 0 0 0 893.32 216.68" fill="#d5eef2"/><path d="M 876.68 225 A 8.32 8.32 0 0 1  885 233.32 L 876.68 225 A 8.32 8.32 0 0 0 885 233.32" fill="#a8c8ce"/><path d="M 885 233.32 A 8.32 8.32 0 0 1  893.32 225 L 885 233.32 A 8.32 8.32 0 0 0 893.32 225" fill="#708e98"/><path d="M 907.16 232.84 A 15.68 15.68 0 0 1  922.8399999999999 217.16 L 907.16 232.84 A 15.68 15.68 0 0 0 922.8399999999999 217.16" fill="#dcf4f8"/><path d="M 968.13 231.87 A 13.74 13.74 0 0 1  981.87 218.13 L 968.13 231.87 A 13.74 13.74 0 0 0 981.87 218.13" fill="#1a495e"/><rect x="1120.54848" y="220.54848" width="8.90304" height="8.90304" fill="none"/><path d="M 1120.55 225 A 4.45 4.45 0 0 1  1125 229.45 L 1120.55 225 A 4.45 4.45 0 0 0 1125 229.45" fill="#285763"/><path d="M 188.68 261.32 A 12.64 12.64 0 0 1  201.32 248.68 L 188.68 261.32 A 12.64 12.64 0 0 0 201.32 248.68" fill="#9aaeb8"/><path d="M 277.02 262.97 A 15.95 15.95 0 0 1  292.96999999999997 247.02 L 277.02 262.97 A 15.95 15.95 0 0 0 292.96999999999997 247.02" fill="#547199"/><path d="M 306.47 246.47 A 17.06 17.06 0 0 1  323.53000000000003 263.53 L 306.47 246.47 A 17.06 17.06 0 0 0 323.53000000000003 263.53" fill="#2b5d68"/><path d="M 365.36 264.63 A 19.27 19.27 0 0 1  384.63 245.36 L 365.36 264.63 A 19.27 19.27 0 0 0 384.63 245.36" fill="#ecedf6"/><path d="M 453.71 266.3 A 22.59 22.59 0 0 1  476.29999999999995 243.71 L 453.71 266.3 A 22.59 22.59 0 0 0 476.29999999999995 243.71" fill="#9fc0c6"/><path d="M 512.78 267.21 A 24.43 24.43 0 0 1  537.2099999999999 242.78 L 512.78 267.21 A 24.43 24.43 0 0 0 537.2099999999999 242.78" fill="#114551"/><path d="M 542.78 242.78 A 24.43 24.43 0 0 1  567.2099999999999 267.21 L 542.78 242.78 A 24.43 24.43 0 0 0 567.2099999999999 267.21" fill="#dde2eb"/><path d="M 632.78 267.21 A 24.43 24.43 0 0 1  657.2099999999999 242.78 L 632.78 267.21 A 24.43 24.43 0 0 0 657.2099999999999 242.78" fill="#a4a7ea"/><path d="M 662.78 242.78 A 24.43 24.43 0 0 1  687.2099999999999 267.21 L 662.78 242.78 A 24.43 24.43 0 0 0 687.2099999999999 267.21" fill="#b5c3cc"/><path d="M 692.78 242.78 A 24.43 24.43 0 0 1  717.2099999999999 267.21 L 692.78 242.78 A 24.43 24.43 0 0 0 717.2099999999999 267.21" fill="#5a858e"/><path d="M 723.15 266.84000000000003 A 23.69 23.69 0 0 1  746.84 243.15 L 723.15 266.84000000000003 A 23.69 23.69 0 0 0 746.84 243.15" fill="#8290c8"/><path d="M 753.71 266.3 A 22.59 22.59 0 0 1  776.3000000000001 243.71 L 753.71 266.3 A 22.59 22.59 0 0 0 776.3000000000001 243.71" fill="#083e4a"/><path d="M 784.26 244.26 A 21.48 21.48 0 0 1  805.74 265.74 L 784.26 244.26 A 21.48 21.48 0 0 0 805.74 265.74" fill="#28536d"/><path d="M 875.92 264.09 A 18.17 18.17 0 0 1  894.0899999999999 245.92 L 875.92 264.09 A 18.17 18.17 0 0 0 894.0899999999999 245.92" fill="#5c76a1"/><path d="M 1089.79 249.79 A 10.42 10.42 0 0 1  1100.21 260.21 L 1089.79 249.79 A 10.42 10.42 0 0 0 1100.21 260.21" fill="#6d8c96"/><path d="M 247.02 292.96999999999997 A 15.95 15.95 0 0 1  262.97 277.02 L 247.02 292.96999999999997 A 15.95 15.95 0 0 0 262.97 277.02" fill="#043b48"/><rect x="276.40128" y="276.40128" width="17.197439999999997" height="17.197439999999997" fill="none"/><path d="M 276.4 285 A 8.6 8.6 0 0 1  285 293.6 L 276.4 285 A 8.6 8.6 0 0 0 285 293.6" fill="#96abb5"/><path d="M 285 293.6 A 8.6 8.6 0 0 1  293.6 285 L 285 293.6 A 8.6 8.6 0 0 0 293.6 285" fill="#e1f8fc"/><path d="M 393.91 296.08000000000004 A 22.17 22.17 0 0 1  416.08000000000004 273.91 L 393.91 296.08000000000004 A 22.17 22.17 0 0 0 416.08000000000004 273.91" fill="#34656f"/><path d="M 452.67 272.67 A 24.66 24.66 0 0 1  477.33000000000004 297.33000000000004 L 452.67 272.67 A 24.66 24.66 0 0 0 477.33000000000004 297.33000000000004" fill="#b9d7dc"/><path d="M 482.05 297.96000000000004 A 25.91 25.91 0 0 1  507.96000000000004 272.05 L 482.05 297.96000000000004 A 25.91 25.91 0 0 0 507.96000000000004 272.05" fill="#114456"/><path d="M 541.63 298.37 A 26.74 26.74 0 0 1  568.37 271.63 L 541.63 298.37 A 26.74 26.74 0 0 0 568.37 271.63" fill="#497780"/><path d="M 571.63 271.63 A 26.74 26.74 0 0 1  598.37 298.37 L 571.63 271.63 A 26.74 26.74 0 0 0 598.37 298.37" fill="#dee3ec"/><path d="M 601.63 271.63 A 26.74 26.74 0 0 1  628.37 298.37 L 601.63 271.63 A 26.74 26.74 0 0 0 628.37 298.37" fill="#d9f1f6"/><path d="M 631.63 298.37 A 26.74 26.74 0 0 1  658.37 271.63 L 631.63 298.37 A 26.74 26.74 0 0 0 658.37 271.63" fill="#d1ebf0"/><rect x="661.632" y="271.632" width="26.735999999999997" height="26.735999999999997" fill="none"/><path d="M 661.63 285 A 13.37 13.37 0 0 1  675 271.63 L 661.63 285 A 13.37 13.37 0 0 0 675 271.63" fill="#9eb1bb"/><path d="M 675 271.63 A 13.37 13.37 0 0 1  688.37 285 L 675 271.63 A 13.37 13.37 0 0 0 688.37 285" fill="#073d49"/><path d="M 661.63 298.37 A 13.37 13.37 0 0 1  675 285 L 661.63 298.37 A 13.37 13.37 0 0 0 675 285" fill="#033b47"/><path d="M 675 285 A 13.37 13.37 0 0 1  688.37 298.37 L 675 285 A 13.37 13.37 0 0 0 688.37 298.37" fill="#c6e1e6"/><path d="M 691.63 271.63 A 26.74 26.74 0 0 1  718.37 298.37 L 691.63 271.63 A 26.74 26.74 0 0 0 718.37 298.37" fill="#a2c3c9"/><path d="M 783.29 273.29 A 23.42 23.42 0 0 1  806.7099999999999 296.71000000000004 L 783.29 273.29 A 23.42 23.42 0 0 0 806.7099999999999 296.71000000000004" fill="#829ca6"/><rect x="813.91296" y="273.91296" width="22.174079999999996" height="22.174079999999996" fill="none"/><path d="M 813.91 273.91 A 11.09 11.09 0 0 1  825 285 L 813.91 273.91 A 11.09 11.09 0 0 0 825 285" fill="#a3c4ca"/><path d="M 825 285 A 11.09 11.09 0 0 1  836.09 273.91 L 825 285 A 11.09 11.09 0 0 0 836.09 273.91" fill="#8fa6b0"/><path d="M 813.91 296.09 A 11.09 11.09 0 0 1  825 285 L 813.91 296.09 A 11.09 11.09 0 0 0 825 285" fill="#e4fbff"/><path d="M 825 285 A 11.09 11.09 0 0 1  836.09 296.09 L 825 285 A 11.09 11.09 0 0 0 836.09 296.09" fill="#dbe0ea"/><path d="M 844.54 274.54 A 20.93 20.93 0 0 1  865.4699999999999 295.47 L 844.54 274.54 A 20.93 20.93 0 0 0 865.4699999999999 295.47" fill="#bbd8dd"/><path d="M 875.16 294.85 A 19.69 19.69 0 0 1  894.85 275.16 L 875.16 294.85 A 19.69 19.69 0 0 0 894.85 275.16" fill="#335b78"/><path d="M 1028.27 291.72999999999996 A 13.46 13.46 0 0 1  1041.73 278.27 L 1028.27 291.72999999999996 A 13.46 13.46 0 0 0 1041.73 278.27" fill="#376771"/><rect x="1150.75584" y="280.75584" width="8.488319999999998" height="8.488319999999998" fill="none"/><path d="M 217.16 322.84000000000003 A 15.68 15.68 0 0 1  232.84 307.16 L 217.16 322.84000000000003 A 15.68 15.68 0 0 0 232.84 307.16" fill="#6d8c96"/><rect x="246.4704" y="306.4704" width="17.059199999999997" height="17.059199999999997" fill="none"/><path d="M 255 315 A 8.53 8.53 0 0 1  263.53 306.47 L 255 315 A 8.53 8.53 0 0 0 263.53 306.47" fill="#577b86"/><path d="M 255 315 A 8.53 8.53 0 0 1  263.53 323.53 L 255 315 A 8.53 8.53 0 0 0 263.53 323.53" fill="#083d4c"/><path d="M 275.78 305.78 A 18.44 18.44 0 0 1  294.21999999999997 324.21999999999997 L 275.78 305.78 A 18.44 18.44 0 0 0 294.21999999999997 324.21999999999997" fill="#37626e"/><path d="M 334.4 304.4 A 21.21 21.21 0 0 1  355.60999999999996 325.60999999999996 L 334.4 304.4 A 21.21 21.21 0 0 0 355.60999999999996 325.60999999999996" fill="#38636f"/><path d="M 422.32 327.67 A 25.35 25.35 0 0 1  447.67 302.32 L 422.32 327.67 A 25.35 25.35 0 0 0 447.67 302.32" fill="#e5e8f1"/><path d="M 451.63 328.37 A 26.74 26.74 0 0 1  478.37 301.63 L 451.63 328.37 A 26.74 26.74 0 0 0 478.37 301.63" fill="#4e6d94"/><rect x="480.9408" y="300.9408" width="28.1184" height="28.1184" fill="none"/><path d="M 480.94 300.94 A 14.06 14.06 0 0 1  495 315 L 480.94 300.94 A 14.06 14.06 0 0 0 495 315" fill="#bfdbe1"/><path d="M 495 300.94 A 14.06 14.06 0 0 1  509.06 315 L 495 300.94 A 14.06 14.06 0 0 0 509.06 315" fill="#4f6e95"/><path d="M 495 329.06 A 14.06 14.06 0 0 1  509.06 315 L 495 329.06 A 14.06 14.06 0 0 0 509.06 315" fill="#2b5d67"/><path d="M 510.48 329.52000000000004 A 29.04 29.04 0 0 1  539.52 300.48 L 510.48 329.52000000000004 A 29.04 29.04 0 0 0 539.52 300.48" fill="#637ba9"/><path d="M 540.48 300.48 A 29.04 29.04 0 0 1  569.52 329.52000000000004 L 540.48 300.48 A 29.04 29.04 0 0 0 569.52 329.52000000000004" fill="#658f97"/><path d="M 570.48 300.48 A 29.04 29.04 0 0 1  599.52 329.52000000000004 L 570.48 300.48 A 29.04 29.04 0 0 0 599.52 329.52000000000004" fill="#4f6e94"/><path d="M 600.48 300.48 A 29.04 29.04 0 0 1  629.52 329.52000000000004 L 600.48 300.48 A 29.04 29.04 0 0 0 629.52 329.52000000000004" fill="#d8f1f5"/><path d="M 630.48 329.52000000000004 A 29.04 29.04 0 0 1  659.52 300.48 L 630.48 329.52000000000004 A 29.04 29.04 0 0 0 659.52 300.48" fill="#8c97d2"/><path d="M 660.48 329.52000000000004 A 29.04 29.04 0 0 1  689.52 300.48 L 660.48 329.52000000000004 A 29.04 29.04 0 0 0 689.52 300.48" fill="#426587"/><path d="M 690.48 300.48 A 29.04 29.04 0 0 1  719.52 329.52000000000004 L 690.48 300.48 A 29.04 29.04 0 0 0 719.52 329.52000000000004" fill="#8ca3ae"/><path d="M 720.94 300.94 A 28.12 28.12 0 0 1  749.0600000000001 329.06 L 720.94 300.94 A 28.12 28.12 0 0 0 749.0600000000001 329.06" fill="#bfdbe0"/><path d="M 751.63 301.63 A 26.74 26.74 0 0 1  778.37 328.37 L 751.63 301.63 A 26.74 26.74 0 0 0 778.37 328.37" fill="#e8eaf3"/><path d="M 782.32 327.67 A 25.35 25.35 0 0 1  807.6700000000001 302.32 L 782.32 327.67 A 25.35 25.35 0 0 0 807.6700000000001 302.32" fill="#779da5"/><path d="M 813.01 303.01 A 23.97 23.97 0 0 1  836.98 326.98 L 813.01 303.01 A 23.97 23.97 0 0 0 836.98 326.98" fill="#1a4a5f"/><rect x="843.7056" y="303.7056" width="22.5888" height="22.5888" fill="none"/><path d="M 843.71 303.71 A 11.29 11.29 0 0 1  855 315 L 843.71 303.71 A 11.29 11.29 0 0 0 855 315" fill="#7f8ec5"/><path d="M 855 303.71 A 11.29 11.29 0 0 1  866.29 315 L 855 303.71 A 11.29 11.29 0 0 0 866.29 315" fill="#5c878f"/><path d="M 855 315 A 11.29 11.29 0 0 1  866.29 326.29 L 855 315 A 11.29 11.29 0 0 0 866.29 326.29" fill="#27526c"/><rect x="935.7792" y="305.7792" width="18.441599999999994" height="18.441599999999994" fill="none"/><path d="M 935.78 305.78 A 9.22 9.22 0 0 1  945 315 L 935.78 305.78 A 9.22 9.22 0 0 0 945 315" fill="#b9c6d0"/><path d="M 945 315 A 9.22 9.22 0 0 1  954.22 305.78 L 945 315 A 9.22 9.22 0 0 0 954.22 305.78" fill="#a7c7cd"/><path d="M 935.78 315 A 9.22 9.22 0 0 1  945 324.22 L 935.78 315 A 9.22 9.22 0 0 0 945 324.22" fill="#6c81b2"/><rect x="966.4704" y="306.4704" width="17.059199999999997" height="17.059199999999997" fill="none"/><path d="M 966.47 306.47 A 8.53 8.53 0 0 1  975 315 L 966.47 306.47 A 8.53 8.53 0 0 0 975 315" fill="#35616c"/><path d="M 975 315 A 8.53 8.53 0 0 1  983.53 306.47 L 975 315 A 8.53 8.53 0 0 0 983.53 306.47" fill="#5e8991"/><path d="M 966.47 323.53 A 8.53 8.53 0 0 1  975 315 L 966.47 323.53 A 8.53 8.53 0 0 0 975 315" fill="#1e4d63"/><path d="M 997.16 307.16 A 15.68 15.68 0 0 1  1012.8399999999999 322.84000000000003 L 997.16 307.16 A 15.68 15.68 0 0 0 1012.8399999999999 322.84000000000003" fill="#194d59"/><path d="M 1058.54 308.54 A 12.91 12.91 0 0 1  1071.45 321.45000000000005 L 1058.54 308.54 A 12.91 12.91 0 0 0 1071.45 321.45000000000005" fill="#88a0aa"/><path d="M 216.96 336.96 A 16.08 16.08 0 0 1  233.04000000000002 353.03999999999996 L 216.96 336.96 A 16.08 16.08 0 0 0 233.04000000000002 353.03999999999996" fill="#b0ced4"/><path d="M 246.24 336.24 A 17.52 17.52 0 0 1  263.76 353.76 L 246.24 336.24 A 17.52 17.52 0 0 0 263.76 353.76" fill="#45678a"/><rect x="304.8" y="334.8" width="20.4" height="20.4" fill="none"/><rect x="334.08" y="334.08" width="21.84" height="21.84" fill="none"/><path d="M 334.08 345 A 10.92 10.92 0 0 1  345 334.08 L 334.08 345 A 10.92 10.92 0 0 0 345 334.08" fill="#9db1bb"/><path d="M 345 334.08 A 10.92 10.92 0 0 1  355.92 345 L 345 334.08 A 10.92 10.92 0 0 0 355.92 345" fill="#83a8b0"/><path d="M 334.08 345 A 10.92 10.92 0 0 1  345 355.92 L 334.08 345 A 10.92 10.92 0 0 0 345 355.92" fill="#0b414d"/><path d="M 345 345 A 10.92 10.92 0 0 1  355.92 355.92 L 345 345 A 10.92 10.92 0 0 0 355.92 355.92" fill="#26526a"/><rect x="363.36" y="333.36" width="23.279999999999998" height="23.279999999999998" fill="none"/><path d="M 375 333.36 A 11.64 11.64 0 0 1  386.64 345 L 375 333.36 A 11.64 11.64 0 0 0 386.64 345" fill="#a7b8c2"/><path d="M 363.36 345 A 11.64 11.64 0 0 1  375 356.64 L 363.36 345 A 11.64 11.64 0 0 0 375 356.64" fill="#adbdc6"/><path d="M 375 345 A 11.64 11.64 0 0 1  386.64 356.64 L 375 345 A 11.64 11.64 0 0 0 386.64 356.64" fill="#39646f"/><rect x="392.64" y="332.64" width="24.720000000000002" height="24.720000000000002" fill="none"/><path d="M 392.64 332.64 A 12.36 12.36 0 0 1  405 345 L 392.64 332.64 A 12.36 12.36 0 0 0 405 345" fill="#20515c"/><path d="M 405 345 A 12.36 12.36 0 0 1  417.36 332.64 L 405 345 A 12.36 12.36 0 0 0 417.36 332.64" fill="#c5cfd9"/><path d="M 392.64 357.36 A 12.36 12.36 0 0 1  405 345 L 392.64 357.36 A 12.36 12.36 0 0 0 405 345" fill="#395f7e"/><path d="M 405 357.36 A 12.36 12.36 0 0 1  417.36 345 L 405 357.36 A 12.36 12.36 0 0 0 417.36 345" fill="#5e808b"/><path d="M 421.92 331.92 A 26.16 26.16 0 0 1  448.08000000000004 358.08000000000004 L 421.92 331.92 A 26.16 26.16 0 0 0 448.08000000000004 358.08000000000004" fill="#8ba3ad"/><rect x="451.2" y="331.2" width="27.599999999999998" height="27.599999999999998" fill="none"/><path d="M 451.2 331.2 A 13.8 13.8 0 0 1  465 345 L 451.2 331.2 A 13.8 13.8 0 0 0 465 345" fill="#4e6d93"/><path d="M 465 331.2 A 13.8 13.8 0 0 1  478.8 345 L 465 331.2 A 13.8 13.8 0 0 0 478.8 345" fill="#8492ca"/><path d="M 451.2 358.8 A 13.8 13.8 0 0 1  465 345 L 451.2 358.8 A 13.8 13.8 0 0 0 465 345" fill="#7a8bc0"/><path d="M 465 358.8 A 13.8 13.8 0 0 1  478.8 345 L 465 358.8 A 13.8 13.8 0 0 0 478.8 345" fill="#acadf3"/><path d="M 480.48 330.48 A 29.04 29.04 0 0 1  509.52000000000004 359.52000000000004 L 480.48 330.48 A 29.04 29.04 0 0 0 509.52000000000004 359.52000000000004" fill="#517681"/><path d="M 510 330 A 30 30 0 0 1  540 360 L 510 330 A 30 30 0 0 0 540 360" fill="#2d5671"/><rect x="540" y="330" width="30" height="30" fill="none"/><path d="M 540 345 A 15 15 0 0 1  555 330 L 540 345 A 15 15 0 0 0 555 330" fill="#19495d"/><path d="M 555 330 A 15 15 0 0 1  570 345 L 555 330 A 15 15 0 0 0 570 345" fill="#a7a9ed"/><path d="M 540 360 A 15 15 0 0 1  555 345 L 540 360 A 15 15 0 0 0 555 345" fill="#b4c2cc"/><path d="M 555 360 A 15 15 0 0 1  570 345 L 555 360 A 15 15 0 0 0 570 345" fill="#e0e4ed"/><path d="M 570 360 A 30 30 0 0 1  600 330 L 570 360 A 30 30 0 0 0 600 330" fill="#59759f"/><path d="M 600 330 A 30 30 0 0 1  630 360 L 600 330 A 30 30 0 0 0 630 360" fill="#8a96d1"/><path d="M 630 330 A 30 30 0 0 1  660 360 L 630 330 A 30 30 0 0 0 660 360" fill="#0c4050"/><path d="M 660 360 A 30 30 0 0 1  690 330 L 660 360 A 30 30 0 0 0 690 330" fill="#7286b8"/><path d="M 690 330 A 30 30 0 0 1  720 360 L 690 330 A 30 30 0 0 0 720 360" fill="#779ea5"/><rect x="720.48" y="330.48" width="29.04" height="29.04" fill="none"/><path d="M 720.48 330.48 A 14.52 14.52 0 0 1  735 345 L 720.48 330.48 A 14.52 14.52 0 0 0 735 345" fill="#154a55"/><path d="M 735 330.48 A 14.52 14.52 0 0 1  749.52 345 L 735 330.48 A 14.52 14.52 0 0 0 749.52 345" fill="#869fa9"/><path d="M 720.48 359.52 A 14.52 14.52 0 0 1  735 345 L 720.48 359.52 A 14.52 14.52 0 0 0 735 345" fill="#bfcbd5"/><path d="M 735 345 A 14.52 14.52 0 0 1  749.52 359.52 L 735 345 A 14.52 14.52 0 0 0 749.52 359.52" fill="#527782"/><path d="M 751.2 331.2 A 27.6 27.6 0 0 1  778.8000000000001 358.8 L 751.2 331.2 A 27.6 27.6 0 0 0 778.8000000000001 358.8" fill="#385e7d"/><path d="M 781.92 358.08000000000004 A 26.16 26.16 0 0 1  808.0799999999999 331.92 L 781.92 358.08000000000004 A 26.16 26.16 0 0 0 808.0799999999999 331.92" fill="#2d5671"/><rect x="843.36" y="333.36" width="23.279999999999998" height="23.279999999999998" fill="none"/><path d="M 855 345 A 11.64 11.64 0 0 1  866.64 333.36 L 855 345 A 11.64 11.64 0 0 0 866.64 333.36" fill="#58838c"/><path d="M 843.36 356.64 A 11.64 11.64 0 0 1  855 345 L 843.36 356.64 A 11.64 11.64 0 0 0 855 345" fill="#3d6182"/><path d="M 855 356.64 A 11.64 11.64 0 0 1  866.64 345 L 855 356.64 A 11.64 11.64 0 0 0 866.64 345" fill="#6c949c"/><rect x="1027.68" y="337.68" width="14.64" height="14.64" fill="none"/><rect x="1058.4" y="338.4" width="13.2" height="13.2" fill="none"/><path d="M 1058.4 345 A 6.6 6.6 0 0 1  1065 338.4 L 1058.4 345 A 6.6 6.6 0 0 0 1065 338.4" fill="#bcd9df"/><path d="M 158.4 368.4 A 13.2 13.2 0 0 1  171.6 381.59999999999997 L 158.4 368.4 A 13.2 13.2 0 0 0 171.6 381.59999999999997" fill="#37626d"/><path d="M 304.8 364.8 A 20.4 20.4 0 0 1  325.2 385.2 L 304.8 364.8 A 20.4 20.4 0 0 0 325.2 385.2" fill="#456d78"/><path d="M 334.08 364.08 A 21.84 21.84 0 0 1  355.91999999999996 385.91999999999996 L 334.08 364.08 A 21.84 21.84 0 0 0 355.91999999999996 385.91999999999996" fill="#426588"/><path d="M 363.36 363.36 A 23.28 23.28 0 0 1  386.64 386.64 L 363.36 363.36 A 23.28 23.28 0 0 0 386.64 386.64" fill="#29546e"/><path d="M 392.64 362.64 A 24.72 24.72 0 0 1  417.36 387.36 L 392.64 362.64 A 24.72 24.72 0 0 0 417.36 387.36" fill="#87acb3"/><rect x="451.2" y="361.2" width="27.599999999999998" height="27.599999999999998" fill="none"/><path d="M 451.2 375 A 13.8 13.8 0 0 1  465 361.2 L 451.2 375 A 13.8 13.8 0 0 0 465 361.2" fill="#2b556f"/><path d="M 465 375 A 13.8 13.8 0 0 1  478.8 361.2 L 465 375 A 13.8 13.8 0 0 0 478.8 361.2" fill="#46678b"/><path d="M 451.2 375 A 13.8 13.8 0 0 1  465 388.8 L 451.2 375 A 13.8 13.8 0 0 0 465 388.8" fill="#818fc7"/><path d="M 465 375 A 13.8 13.8 0 0 1  478.8 388.8 L 465 375 A 13.8 13.8 0 0 0 478.8 388.8" fill="#6e969e"/><rect x="480.48" y="360.48" width="29.04" height="29.04" fill="none"/><path d="M 480.48 375 A 14.52 14.52 0 0 1  495 360.48 L 480.48 375 A 14.52 14.52 0 0 0 495 360.48" fill="#779ea5"/><path d="M 495 375 A 14.52 14.52 0 0 1  509.52 360.48 L 495 375 A 14.52 14.52 0 0 0 509.52 360.48" fill="#7688bc"/><path d="M 480.48 389.52 A 14.52 14.52 0 0 1  495 375 L 480.48 389.52 A 14.52 14.52 0 0 0 495 375" fill="#22525e"/><path d="M 495 389.52 A 14.52 14.52 0 0 1  509.52 375 L 495 389.52 A 14.52 14.52 0 0 0 509.52 375" fill="#395f7e"/><rect x="510" y="360" width="30" height="30" fill="none"/><path d="M 510 360 A 15 15 0 0 1  525 375 L 510 360 A 15 15 0 0 0 525 375" fill="#1e4c62"/><path d="M 525 360 A 15 15 0 0 1  540 375 L 525 360 A 15 15 0 0 0 540 375" fill="#4d737e"/><path d="M 510 390 A 15 15 0 0 1  525 375 L 510 390 A 15 15 0 0 0 525 375" fill="#497680"/><path d="M 525 375 A 15 15 0 0 1  540 390 L 525 375 A 15 15 0 0 0 540 390" fill="#164a56"/><path d="M 540 360 A 30 30 0 0 1  570 390 L 540 360 A 30 30 0 0 0 570 390" fill="#5b868f"/><path d="M 570 390 A 30 30 0 0 1  600 360 L 570 390 A 30 30 0 0 0 600 360" fill="#718f9a"/><path d="M 600 390 A 30 30 0 0 1  630 360 L 600 390 A 30 30 0 0 0 630 360" fill="#90b4ba"/><rect x="630" y="360" width="30" height="30" fill="none"/><path d="M 630 375 A 15 15 0 0 1  645 360 L 630 375 A 15 15 0 0 0 645 360" fill="#6a8994"/><path d="M 645 360 A 15 15 0 0 1  660 375 L 645 360 A 15 15 0 0 0 660 375" fill="#d8dee7"/><path d="M 630 375 A 15 15 0 0 1  645 390 L 630 375 A 15 15 0 0 0 645 390" fill="#a3c4ca"/><path d="M 645 375 A 15 15 0 0 1  660 390 L 645 375 A 15 15 0 0 0 660 390" fill="#5c76a1"/><path d="M 660 360 A 30 30 0 0 1  690 390 L 660 360 A 30 30 0 0 0 690 390" fill="#a1c2c8"/><path d="M 690 360 A 30 30 0 0 1  720 390 L 690 360 A 30 30 0 0 0 720 390" fill="#d1ebf0"/><path d="M 720.48 389.52000000000004 A 29.04 29.04 0 0 1  749.52 360.48 L 720.48 389.52000000000004 A 29.04 29.04 0 0 0 749.52 360.48" fill="#315976"/><path d="M 751.2 361.2 A 27.6 27.6 0 0 1  778.8000000000001 388.8 L 751.2 361.2 A 27.6 27.6 0 0 0 778.8000000000001 388.8" fill="#315976"/><path d="M 781.92 361.92 A 26.16 26.16 0 0 1  808.0799999999999 388.08000000000004 L 781.92 361.92 A 26.16 26.16 0 0 0 808.0799999999999 388.08000000000004" fill="#a7c7cd"/><path d="M 812.64 362.64 A 24.72 24.72 0 0 1  837.36 387.36 L 812.64 362.64 A 24.72 24.72 0 0 0 837.36 387.36" fill="#3d6772"/><path d="M 843.36 386.64 A 23.28 23.28 0 0 1  866.64 363.36 L 843.36 386.64 A 23.28 23.28 0 0 0 866.64 363.36" fill="#a3a7ea"/><path d="M 874.08 364.08 A 21.84 21.84 0 0 1  895.9200000000001 385.91999999999996 L 874.08 364.08 A 21.84 21.84 0 0 0 895.9200000000001 385.91999999999996" fill="#6d82b2"/><path d="M 966.24 383.76 A 17.52 17.52 0 0 1  983.76 366.24 L 966.24 383.76 A 17.52 17.52 0 0 0 983.76 366.24" fill="#144955"/><path d="M 1119.84 369.84 A 10.32 10.32 0 0 1  1130.1599999999999 380.15999999999997 L 1119.84 369.84 A 10.32 10.32 0 0 0 1130.1599999999999 380.15999999999997" fill="#164b56"/><path d="M 99.84 410.15999999999997 A 10.32 10.32 0 0 1  110.16 399.84 L 99.84 410.15999999999997 A 10.32 10.32 0 0 0 110.16 399.84" fill="#3d6772"/><rect x="304.8" y="394.8" width="20.4" height="20.4" fill="none"/><path d="M 334.08 415.91999999999996 A 21.84 21.84 0 0 1  355.91999999999996 394.08 L 334.08 415.91999999999996 A 21.84 21.84 0 0 0 355.91999999999996 394.08" fill="#94b6bd"/><path d="M 363.36 393.36 A 23.28 23.28 0 0 1  386.64 416.64 L 363.36 393.36 A 23.28 23.28 0 0 0 386.64 416.64" fill="#48757f"/><path d="M 392.64 417.36 A 24.72 24.72 0 0 1  417.36 392.64 L 392.64 417.36 A 24.72 24.72 0 0 0 417.36 392.64" fill="#99adb7"/><path d="M 421.92 418.08000000000004 A 26.16 26.16 0 0 1  448.08000000000004 391.92 L 421.92 418.08000000000004 A 26.16 26.16 0 0 0 448.08000000000004 391.92" fill="#abcbd1"/><path d="M 451.2 391.2 A 27.6 27.6 0 0 1  478.8 418.8 L 451.2 391.2 A 27.6 27.6 0 0 0 478.8 418.8" fill="#56739c"/><path d="M 480.48 419.52000000000004 A 29.04 29.04 0 0 1  509.52000000000004 390.48 L 480.48 419.52000000000004 A 29.04 29.04 0 0 0 509.52000000000004 390.48" fill="#d1ebf0"/><path d="M 510 390 A 30 30 0 0 1  540 420 L 510 390 A 30 30 0 0 0 540 420" fill="#1d515c"/><path d="M 540 390 A 30 30 0 0 1  570 420 L 540 390 A 30 30 0 0 0 570 420" fill="#4a707c"/><path d="M 570 390 A 30 30 0 0 1  600 420 L 570 390 A 30 30 0 0 0 600 420" fill="#507580"/><path d="M 600 390 A 30 30 0 0 1  630 420 L 600 390 A 30 30 0 0 0 630 420" fill="#104651"/><path d="M 630 420 A 30 30 0 0 1  660 390 L 630 420 A 30 30 0 0 0 660 390" fill="#afaff6"/><path d="M 660 390 A 30 30 0 0 1  690 420 L 660 390 A 30 30 0 0 0 690 420" fill="#e5e8f1"/><path d="M 690 420 A 30 30 0 0 1  720 390 L 690 420 A 30 30 0 0 0 720 390" fill="#ddf5f9"/><path d="M 720.48 390.48 A 29.04 29.04 0 0 1  749.52 419.52000000000004 L 720.48 390.48 A 29.04 29.04 0 0 0 749.52 419.52000000000004" fill="#3d6c76"/><path d="M 751.2 418.8 A 27.6 27.6 0 0 1  778.8000000000001 391.2 L 751.2 418.8 A 27.6 27.6 0 0 0 778.8000000000001 391.2" fill="#58749d"/><path d="M 874.08 394.08 A 21.84 21.84 0 0 1  895.9200000000001 415.91999999999996 L 874.08 394.08 A 21.84 21.84 0 0 0 895.9200000000001 415.91999999999996" fill="#b2b1f9"/><path d="M 904.8 415.2 A 20.4 20.4 0 0 1  925.1999999999999 394.8 L 904.8 415.2 A 20.4 20.4 0 0 0 925.1999999999999 394.8" fill="#305d68"/><path d="M 966.24 396.24 A 17.52 17.52 0 0 1  983.76 413.76 L 966.24 396.24 A 17.52 17.52 0 0 0 983.76 413.76" fill="#a1b4be"/><rect x="996.96" y="396.96" width="16.08" height="16.08" fill="none"/><path d="M 996.96 396.96 A 8.04 8.04 0 0 1  1005 405 L 996.96 396.96 A 8.04 8.04 0 0 0 1005 405" fill="#0b3f4f"/><path d="M 1005 405 A 8.04 8.04 0 0 1  1013.04 413.04 L 1005 405 A 8.04 8.04 0 0 0 1013.04 413.04" fill="#687fae"/><rect x="1150.56" y="400.56" width="8.879999999999995" height="8.879999999999995" fill="none"/><path d="M 216.96 443.03999999999996 A 16.08 16.08 0 0 1  233.04000000000002 426.96 L 216.96 443.03999999999996 A 16.08 16.08 0 0 0 233.04000000000002 426.96" fill="#527e87"/><path d="M 246.24 426.24 A 17.52 17.52 0 0 1  263.76 443.76 L 246.24 426.24 A 17.52 17.52 0 0 0 263.76 443.76" fill="#547199"/><path d="M 275.52 425.52 A 18.96 18.96 0 0 1  294.47999999999996 444.47999999999996 L 275.52 425.52 A 18.96 18.96 0 0 0 294.47999999999996 444.47999999999996" fill="#98adb7"/><path d="M 304.8 424.8 A 20.4 20.4 0 0 1  325.2 445.2 L 304.8 424.8 A 20.4 20.4 0 0 0 325.2 445.2" fill="#6c81b2"/><path d="M 392.64 447.36 A 24.72 24.72 0 0 1  417.36 422.64 L 392.64 447.36 A 24.72 24.72 0 0 0 417.36 422.64" fill="#608a92"/><path d="M 421.92 421.92 A 26.16 26.16 0 0 1  448.08000000000004 448.08000000000004 L 421.92 421.92 A 26.16 26.16 0 0 0 448.08000000000004 448.08000000000004" fill="#093f4b"/><path d="M 451.2 421.2 A 27.6 27.6 0 0 1  478.8 448.8 L 451.2 421.2 A 27.6 27.6 0 0 0 478.8 448.8" fill="#c1ccd6"/><path d="M 480.48 420.48 A 29.04 29.04 0 0 1  509.52000000000004 449.52000000000004 L 480.48 420.48 A 29.04 29.04 0 0 0 509.52000000000004 449.52000000000004" fill="#a9abef"/><path d="M 510 420 A 30 30 0 0 1  540 450 L 510 420 A 30 30 0 0 0 540 450" fill="#7a8bc0"/><path d="M 540 450 A 30 30 0 0 1  570 420 L 540 450 A 30 30 0 0 0 570 420" fill="#acadf3"/><path d="M 570 420 A 30 30 0 0 1  600 450 L 570 420 A 30 30 0 0 0 600 450" fill="#90a6b1"/><path d="M 600 420 A 30 30 0 0 1  630 450 L 600 420 A 30 30 0 0 0 630 450" fill="#607aa6"/><path d="M 630 420 A 30 30 0 0 1  660 450 L 630 420 A 30 30 0 0 0 660 450" fill="#3d6182"/><path d="M 660 450 A 30 30 0 0 1  690 420 L 660 450 A 30 30 0 0 0 690 420" fill="#9cbec4"/><path d="M 690 420 A 30 30 0 0 1  720 450 L 690 420 A 30 30 0 0 0 720 450" fill="#c5cfd9"/><rect x="720.48" y="420.48" width="29.04" height="29.04" fill="none"/><path d="M 720.48 435 A 14.52 14.52 0 0 1  735 420.48 L 720.48 435 A 14.52 14.52 0 0 0 735 420.48" fill="#2d5b66"/><path d="M 735 435 A 14.52 14.52 0 0 1  749.52 420.48 L 735 435 A 14.52 14.52 0 0 0 749.52 420.48" fill="#658e96"/><path d="M 720.48 449.52 A 14.52 14.52 0 0 1  735 435 L 720.48 449.52 A 14.52 14.52 0 0 0 735 435" fill="#ebedf6"/><path d="M 735 435 A 14.52 14.52 0 0 1  749.52 449.52 L 735 435 A 14.52 14.52 0 0 0 749.52 449.52" fill="#8bafb6"/><rect x="751.2" y="421.2" width="27.599999999999998" height="27.599999999999998" fill="none"/><path d="M 751.2 421.2 A 13.8 13.8 0 0 1  765 435 L 751.2 421.2 A 13.8 13.8 0 0 0 765 435" fill="#9cbec4"/><path d="M 765 421.2 A 13.8 13.8 0 0 1  778.8 435 L 765 421.2 A 13.8 13.8 0 0 0 778.8 435" fill="#8a96d0"/><path d="M 751.2 448.8 A 13.8 13.8 0 0 1  765 435 L 751.2 448.8 A 13.8 13.8 0 0 0 765 435" fill="#0a3f4e"/><path d="M 765 448.8 A 13.8 13.8 0 0 1  778.8 435 L 765 448.8 A 13.8 13.8 0 0 0 778.8 435" fill="#124651"/><path d="M 812.64 422.64 A 24.72 24.72 0 0 1  837.36 447.36 L 812.64 422.64 A 24.72 24.72 0 0 0 837.36 447.36" fill="#667eac"/><path d="M 874.08 424.08 A 21.84 21.84 0 0 1  895.9200000000001 445.91999999999996 L 874.08 424.08 A 21.84 21.84 0 0 0 895.9200000000001 445.91999999999996" fill="#c7e2e7"/><path d="M 904.8 445.2 A 20.4 20.4 0 0 1  925.1999999999999 424.8 L 904.8 445.2 A 20.4 20.4 0 0 0 925.1999999999999 424.8" fill="#5e78a3"/><path d="M 935.52 425.52 A 18.96 18.96 0 0 1  954.48 444.47999999999996 L 935.52 425.52 A 18.96 18.96 0 0 0 954.48 444.47999999999996" fill="#22525e"/><rect x="1058.4" y="428.4" width="13.2" height="13.2" fill="none"/><path d="M 1058.4 428.4 A 6.6 6.6 0 0 1  1065 435 L 1058.4 428.4 A 6.6 6.6 0 0 0 1065 435" fill="#a6c6cc"/><path d="M 1119.84 440.15999999999997 A 10.32 10.32 0 0 1  1130.1599999999999 429.84 L 1119.84 440.15999999999997 A 10.32 10.32 0 0 0 1130.1599999999999 429.84" fill="#a8aaef"/><path d="M 187.85 457.85 A 14.29 14.29 0 0 1  202.14 472.14000000000004 L 187.85 457.85 A 14.29 14.29 0 0 0 202.14 472.14000000000004" fill="#8995cf"/><rect x="275.7792" y="455.7792" width="18.441599999999994" height="18.441599999999994" fill="none"/><path d="M 275.78 465 A 9.22 9.22 0 0 1  285 455.78 L 275.78 465 A 9.22 9.22 0 0 0 285 455.78" fill="#b2b1f9"/><path d="M 305.09 455.09 A 19.82 19.82 0 0 1  324.90999999999997 474.90999999999997 L 305.09 455.09 A 19.82 19.82 0 0 0 324.90999999999997 474.90999999999997" fill="#2e5c67"/><path d="M 363.71 453.71 A 22.59 22.59 0 0 1  386.29999999999995 476.29999999999995 L 363.71 453.71 A 22.59 22.59 0 0 0 386.29999999999995 476.29999999999995" fill="#8c97d2"/><path d="M 393.01 476.98 A 23.97 23.97 0 0 1  416.98 453.01 L 393.01 476.98 A 23.97 23.97 0 0 0 416.98 453.01" fill="#7da3aa"/><path d="M 422.32 477.67 A 25.35 25.35 0 0 1  447.67 452.32 L 422.32 477.67 A 25.35 25.35 0 0 0 447.67 452.32" fill="#91a7b2"/><path d="M 451.63 478.37 A 26.74 26.74 0 0 1  478.37 451.63 L 451.63 478.37 A 26.74 26.74 0 0 0 478.37 451.63" fill="#406f79"/><path d="M 480.94 450.94 A 28.12 28.12 0 0 1  509.06 479.06 L 480.94 450.94 A 28.12 28.12 0 0 0 509.06 479.06" fill="#8492ca"/><rect x="510.48" y="450.48" width="29.04" height="29.04" fill="none"/><path d="M 510.48 465 A 14.52 14.52 0 0 1  525 450.48 L 510.48 465 A 14.52 14.52 0 0 0 525 450.48" fill="#29546e"/><path d="M 525 465 A 14.52 14.52 0 0 1  539.52 450.48 L 525 465 A 14.52 14.52 0 0 0 539.52 450.48" fill="#b2d0d6"/><path d="M 510.48 479.52 A 14.52 14.52 0 0 1  525 465 L 510.48 479.52 A 14.52 14.52 0 0 0 525 465" fill="#7386b9"/><path d="M 525 465 A 14.52 14.52 0 0 1  539.52 479.52 L 525 465 A 14.52 14.52 0 0 0 539.52 479.52" fill="#e5e8f1"/><path d="M 540.48 450.48 A 29.04 29.04 0 0 1  569.52 479.52000000000004 L 540.48 450.48 A 29.04 29.04 0 0 0 569.52 479.52000000000004" fill="#6f83b4"/><rect x="570.48" y="450.48" width="29.04" height="29.04" fill="none"/><path d="M 570.48 450.48 A 14.52 14.52 0 0 1  585 465 L 570.48 450.48 A 14.52 14.52 0 0 0 585 465" fill="#134558"/><path d="M 585 450.48 A 14.52 14.52 0 0 1  599.52 465 L 585 450.48 A 14.52 14.52 0 0 0 599.52 465" fill="#7d8dc3"/><path d="M 570.48 465 A 14.52 14.52 0 0 1  585 479.52 L 570.48 465 A 14.52 14.52 0 0 0 585 479.52" fill="#21515d"/><path d="M 585 479.52 A 14.52 14.52 0 0 1  599.52 465 L 585 479.52 A 14.52 14.52 0 0 0 599.52 465" fill="#8290c8"/><path d="M 600.48 450.48 A 29.04 29.04 0 0 1  629.52 479.52000000000004 L 600.48 450.48 A 29.04 29.04 0 0 0 629.52 479.52000000000004" fill="#235068"/><path d="M 630.48 450.48 A 29.04 29.04 0 0 1  659.52 479.52000000000004 L 630.48 450.48 A 29.04 29.04 0 0 0 659.52 479.52000000000004" fill="#548089"/><path d="M 660.48 479.52000000000004 A 29.04 29.04 0 0 1  689.52 450.48 L 660.48 479.52000000000004 A 29.04 29.04 0 0 0 689.52 450.48" fill="#ccd4de"/><rect x="690.48" y="450.48" width="29.04" height="29.04" fill="none"/><path d="M 690.48 450.48 A 14.52 14.52 0 0 1  705 465 L 690.48 450.48 A 14.52 14.52 0 0 0 705 465" fill="#406486"/><path d="M 705 450.48 A 14.52 14.52 0 0 1  719.52 465 L 705 450.48 A 14.52 14.52 0 0 0 719.52 465" fill="#d8f1f5"/><path d="M 690.48 465 A 14.52 14.52 0 0 1  705 479.52 L 690.48 465 A 14.52 14.52 0 0 0 705 479.52" fill="#b9d6db"/><path d="M 705 479.52 A 14.52 14.52 0 0 1  719.52 465 L 705 479.52 A 14.52 14.52 0 0 0 719.52 465" fill="#b7c5ce"/><path d="M 720.94 450.94 A 28.12 28.12 0 0 1  749.0600000000001 479.06 L 720.94 450.94 A 28.12 28.12 0 0 0 749.0600000000001 479.06" fill="#8aaeb5"/><path d="M 751.63 451.63 A 26.74 26.74 0 0 1  778.37 478.37 L 751.63 451.63 A 26.74 26.74 0 0 0 778.37 478.37" fill="#677eac"/><path d="M 813.01 476.98 A 23.97 23.97 0 0 1  836.98 453.01 L 813.01 476.98 A 23.97 23.97 0 0 0 836.98 453.01" fill="#a4c5cb"/><path d="M 843.71 476.29999999999995 A 22.59 22.59 0 0 1  866.3000000000001 453.71 L 843.71 476.29999999999995 A 22.59 22.59 0 0 0 866.3000000000001 453.71" fill="#7ba1a9"/><path d="M 905.09 474.90999999999997 A 19.82 19.82 0 0 1  924.9100000000001 455.09 L 905.09 474.90999999999997 A 19.82 19.82 0 0 0 924.9100000000001 455.09" fill="#325a77"/><rect x="966.4704" y="456.4704" width="17.059199999999997" height="17.059199999999997" fill="none"/><path d="M 966.47 456.47 A 8.53 8.53 0 0 1  975 465 L 966.47 456.47 A 8.53 8.53 0 0 0 975 465" fill="#46688b"/><path d="M 975 465 A 8.53 8.53 0 0 1  983.53 473.53 L 975 465 A 8.53 8.53 0 0 0 983.53 473.53" fill="#84a9b0"/><rect x="997.1616" y="457.1616" width="15.676799999999997" height="15.676799999999997" fill="none"/><path d="M 997.16 457.16 A 7.84 7.84 0 0 1  1005 465 L 997.16 457.16 A 7.84 7.84 0 0 0 1005 465" fill="#608a93"/><path d="M 1005 465 A 7.84 7.84 0 0 1  1012.84 457.16 L 1005 465 A 7.84 7.84 0 0 0 1012.84 457.16" fill="#4d6d93"/><path d="M 997.16 472.84 A 7.84 7.84 0 0 1  1005 465 L 997.16 472.84 A 7.84 7.84 0 0 0 1005 465" fill="#a6c6cc"/><path d="M 1005 472.84 A 7.84 7.84 0 0 1  1012.84 465 L 1005 472.84 A 7.84 7.84 0 0 0 1012.84 465" fill="#54719a"/><rect x="158.8896" y="488.8896" width="12.2208" height="12.2208" fill="none"/><rect x="305.7792" y="485.7792" width="18.4416" height="18.4416" fill="none"/><path d="M 315 495 A 9.22 9.22 0 0 1  324.22 485.78 L 315 495 A 9.22 9.22 0 0 0 324.22 485.78" fill="#406385"/><path d="M 305.78 495 A 9.22 9.22 0 0 1  315 504.22 L 305.78 495 A 9.22 9.22 0 0 0 315 504.22" fill="#3c6081"/><path d="M 315 504.22 A 9.22 9.22 0 0 1  324.22 495 L 315 504.22 A 9.22 9.22 0 0 0 324.22 495" fill="#3d6c76"/><path d="M 335.16 504.85 A 19.69 19.69 0 0 1  354.85 485.16 L 335.16 504.85 A 19.69 19.69 0 0 0 354.85 485.16" fill="#abcbd1"/><path d="M 364.54 505.47 A 20.93 20.93 0 0 1  385.47 484.54 L 364.54 505.47 A 20.93 20.93 0 0 0 385.47 484.54" fill="#46747e"/><path d="M 393.91 506.08000000000004 A 22.17 22.17 0 0 1  416.08000000000004 483.91 L 393.91 506.08000000000004 A 22.17 22.17 0 0 0 416.08000000000004 483.91" fill="#61838e"/><rect x="423.29088" y="483.29088" width="23.41824" height="23.41824" fill="none"/><path d="M 423.29 483.29 A 11.71 11.71 0 0 1  435 495 L 423.29 483.29 A 11.71 11.71 0 0 0 435 495" fill="#21525d"/><path d="M 435 483.29 A 11.71 11.71 0 0 1  446.71 495 L 435 483.29 A 11.71 11.71 0 0 0 446.71 495" fill="#749ca3"/><path d="M 423.29 506.71 A 11.71 11.71 0 0 1  435 495 L 423.29 506.71 A 11.71 11.71 0 0 0 435 495" fill="#9eb1bb"/><path d="M 435 495 A 11.71 11.71 0 0 1  446.71 506.71 L 435 495 A 11.71 11.71 0 0 0 446.71 506.71" fill="#969edd"/><path d="M 482.05 482.05 A 25.91 25.91 0 0 1  507.96000000000004 507.96000000000004 L 482.05 482.05 A 25.91 25.91 0 0 0 507.96000000000004 507.96000000000004" fill="#96abb5"/><path d="M 511.63 481.63 A 26.74 26.74 0 0 1  538.37 508.37 L 511.63 481.63 A 26.74 26.74 0 0 0 538.37 508.37" fill="#154854"/><path d="M 541.63 508.37 A 26.74 26.74 0 0 1  568.37 481.63 L 541.63 508.37 A 26.74 26.74 0 0 0 568.37 481.63" fill="#023946"/><path d="M 571.63 481.63 A 26.74 26.74 0 0 1  598.37 508.37 L 571.63 481.63 A 26.74 26.74 0 0 0 598.37 508.37" fill="#949cda"/><path d="M 601.63 481.63 A 26.74 26.74 0 0 1  628.37 508.37 L 601.63 481.63 A 26.74 26.74 0 0 0 628.37 508.37" fill="#9abcc3"/><path d="M 631.63 481.63 A 26.74 26.74 0 0 1  658.37 508.37 L 631.63 481.63 A 26.74 26.74 0 0 0 658.37 508.37" fill="#2e5f6a"/><path d="M 661.63 481.63 A 26.74 26.74 0 0 1  688.37 508.37 L 661.63 481.63 A 26.74 26.74 0 0 0 688.37 508.37" fill="#a1b4be"/><path d="M 722.05 507.96000000000004 A 25.91 25.91 0 0 1  747.9599999999999 482.05 L 722.05 507.96000000000004 A 25.91 25.91 0 0 0 747.9599999999999 482.05" fill="#013945"/><path d="M 752.67 482.67 A 24.66 24.66 0 0 1  777.3299999999999 507.33000000000004 L 752.67 482.67 A 24.66 24.66 0 0 0 777.3299999999999 507.33000000000004" fill="#5d7f8a"/><path d="M 783.29 506.71000000000004 A 23.42 23.42 0 0 1  806.7099999999999 483.29 L 783.29 506.71000000000004 A 23.42 23.42 0 0 0 806.7099999999999 483.29" fill="#164955"/><path d="M 844.54 484.54 A 20.93 20.93 0 0 1  865.4699999999999 505.47 L 844.54 484.54 A 20.93 20.93 0 0 0 865.4699999999999 505.47" fill="#90a7b1"/><rect x="875.15712" y="485.15712" width="19.68576" height="19.68576" fill="none"/><path d="M 875.16 485.16 A 9.84 9.84 0 0 1  885 495 L 875.16 485.16 A 9.84 9.84 0 0 0 885 495" fill="#86abb2"/><path d="M 885 485.16 A 9.84 9.84 0 0 1  894.84 495 L 885 485.16 A 9.84 9.84 0 0 0 894.84 495" fill="#708e99"/><path d="M 875.16 495 A 9.84 9.84 0 0 1  885 504.84 L 875.16 495 A 9.84 9.84 0 0 0 885 504.84" fill="#3c6b75"/><path d="M 885 495 A 9.84 9.84 0 0 1  894.84 504.84 L 885 495 A 9.84 9.84 0 0 0 894.84 504.84" fill="#1c4d59"/><path d="M 1028.27 501.72999999999996 A 13.46 13.46 0 0 1  1041.73 488.27 L 1028.27 501.72999999999996 A 13.46 13.46 0 0 0 1041.73 488.27" fill="#b0aff6"/><path d="M 247.58 532.4300000000001 A 14.85 14.85 0 0 1  262.43 517.58 L 247.58 532.4300000000001 A 14.85 14.85 0 0 0 262.43 517.58" fill="#3d6182"/><rect x="306.4704" y="516.4704" width="17.059199999999997" height="17.059199999999997" fill="none"/><path d="M 306.47 516.47 A 8.53 8.53 0 0 1  315 525 L 306.47 516.47 A 8.53 8.53 0 0 0 315 525" fill="#9cbdc4"/><path d="M 315 525 A 8.53 8.53 0 0 1  323.53 516.47 L 315 525 A 8.53 8.53 0 0 0 323.53 516.47" fill="#43727b"/><path d="M 315 525 A 8.53 8.53 0 0 1  323.53 533.53 L 315 525 A 8.53 8.53 0 0 0 323.53 533.53" fill="#0a414d"/><path d="M 335.92 534.0899999999999 A 18.17 18.17 0 0 1  354.09000000000003 515.92 L 335.92 534.0899999999999 A 18.17 18.17 0 0 0 354.09000000000003 515.92" fill="#60828d"/><path d="M 424.26 514.26 A 21.48 21.48 0 0 1  445.74 535.74 L 424.26 514.26 A 21.48 21.48 0 0 0 445.74 535.74" fill="#0a414c"/><path d="M 453.71 513.71 A 22.59 22.59 0 0 1  476.29999999999995 536.3000000000001 L 453.71 513.71 A 22.59 22.59 0 0 0 476.29999999999995 536.3000000000001" fill="#2f5c68"/><path d="M 483.15 536.84 A 23.69 23.69 0 0 1  506.84 513.15 L 483.15 536.84 A 23.69 23.69 0 0 0 506.84 513.15" fill="#b9d6db"/><path d="M 512.78 537.2099999999999 A 24.43 24.43 0 0 1  537.2099999999999 512.78 L 512.78 537.2099999999999 A 24.43 24.43 0 0 0 537.2099999999999 512.78" fill="#28536d"/><path d="M 542.78 537.2099999999999 A 24.43 24.43 0 0 1  567.2099999999999 512.78 L 542.78 537.2099999999999 A 24.43 24.43 0 0 0 567.2099999999999 512.78" fill="#7d8dc3"/><rect x="572.784" y="512.784" width="24.432" height="24.432" fill="none"/><path d="M 572.78 525 A 12.22 12.22 0 0 1  585 512.78 L 572.78 525 A 12.22 12.22 0 0 0 585 512.78" fill="#6d969e"/><path d="M 585 525 A 12.22 12.22 0 0 1  597.22 512.78 L 585 525 A 12.22 12.22 0 0 0 597.22 512.78" fill="#d7f0f5"/><path d="M 572.78 537.22 A 12.22 12.22 0 0 1  585 525 L 572.78 537.22 A 12.22 12.22 0 0 0 585 525" fill="#b8b5ff"/><path d="M 585 525 A 12.22 12.22 0 0 1  597.22 537.22 L 585 525 A 12.22 12.22 0 0 0 597.22 537.22" fill="#ced6e0"/><path d="M 602.78 537.2099999999999 A 24.43 24.43 0 0 1  627.2099999999999 512.78 L 602.78 537.2099999999999 A 24.43 24.43 0 0 0 627.2099999999999 512.78" fill="#d2d9e2"/><rect x="662.784" y="512.784" width="24.432" height="24.432" fill="none"/><path d="M 662.78 512.78 A 12.22 12.22 0 0 1  675 525 L 662.78 512.78 A 12.22 12.22 0 0 0 675 525" fill="#37626d"/><path d="M 675 512.78 A 12.22 12.22 0 0 1  687.22 525 L 675 512.78 A 12.22 12.22 0 0 0 687.22 525" fill="#979fde"/><path d="M 662.78 537.22 A 12.22 12.22 0 0 1  675 525 L 662.78 537.22 A 12.22 12.22 0 0 0 675 525" fill="#366670"/><path d="M 675 525 A 12.22 12.22 0 0 1  687.22 537.22 L 675 525 A 12.22 12.22 0 0 0 687.22 537.22" fill="#b9c6d0"/><path d="M 723.15 536.84 A 23.69 23.69 0 0 1  746.84 513.15 L 723.15 536.84 A 23.69 23.69 0 0 0 746.84 513.15" fill="#6e8d97"/><path d="M 753.71 536.3000000000001 A 22.59 22.59 0 0 1  776.3000000000001 513.71 L 753.71 536.3000000000001 A 22.59 22.59 0 0 0 776.3000000000001 513.71" fill="#0a3f4e"/><rect x="784.25856" y="514.25856" width="21.48288" height="21.48288" fill="none"/><path d="M 784.26 525 A 10.74 10.74 0 0 1  795 535.74 L 784.26 525 A 10.74 10.74 0 0 0 795 535.74" fill="#a0a4e6"/><path d="M 795 525 A 10.74 10.74 0 0 1  805.74 535.74 L 795 525 A 10.74 10.74 0 0 0 805.74 535.74" fill="#aebdc7"/><rect x="845.36448" y="515.36448" width="19.27104" height="19.27104" fill="none"/><path d="M 845.36 515.36 A 9.64 9.64 0 0 1  855 525 L 845.36 515.36 A 9.64 9.64 0 0 0 855 525" fill="#365d7b"/><path d="M 855 525 A 9.64 9.64 0 0 1  864.64 515.36 L 855 525 A 9.64 9.64 0 0 0 864.64 515.36" fill="#8cb0b7"/><path d="M 845.36 534.64 A 9.64 9.64 0 0 1  855 525 L 845.36 534.64 A 9.64 9.64 0 0 0 855 525" fill="#7995a0"/><path d="M 875.92 534.0899999999999 A 18.17 18.17 0 0 1  894.0899999999999 515.92 L 875.92 534.0899999999999 A 18.17 18.17 0 0 0 894.0899999999999 515.92" fill="#ccd5de"/><path d="M 906.47 516.47 A 17.06 17.06 0 0 1  923.53 533.53 L 906.47 516.47 A 17.06 17.06 0 0 0 923.53 533.53" fill="#214e66"/><path d="M 967.58 517.58 A 14.85 14.85 0 0 1  982.4300000000001 532.4300000000001 L 967.58 517.58 A 14.85 14.85 0 0 0 982.4300000000001 532.4300000000001" fill="#4e6d94"/><path d="M 1150.89 520.89 A 8.21 8.21 0 0 1  1159.1000000000001 529.1 L 1150.89 520.89 A 8.21 8.21 0 0 0 1159.1000000000001 529.1" fill="#5f8992"/><path d="M 1181.45 521.45 A 7.11 7.11 0 0 1  1188.56 528.5600000000001 L 1181.45 521.45 A 7.11 7.11 0 0 0 1188.56 528.5600000000001" fill="#49698e"/><path d="M 189.1 560.91 A 11.81 11.81 0 0 1  200.91 549.1 L 189.1 560.91 A 11.81 11.81 0 0 0 200.91 549.1" fill="#537098"/><path d="M 307.16 547.16 A 15.68 15.68 0 0 1  322.84000000000003 562.8399999999999 L 307.16 547.16 A 15.68 15.68 0 0 0 322.84000000000003 562.8399999999999" fill="#a6b7c1"/><rect x="366.19392" y="546.19392" width="17.61216" height="17.61216" fill="none"/><path d="M 366.19 555 A 8.81 8.81 0 0 1  375 546.19 L 366.19 555 A 8.81 8.81 0 0 0 375 546.19" fill="#c9e4e9"/><path d="M 366.19 563.81 A 8.81 8.81 0 0 1  375 555 L 366.19 563.81 A 8.81 8.81 0 0 0 375 555" fill="#245169"/><path d="M 375 555 A 8.81 8.81 0 0 1  383.81 563.81 L 375 555 A 8.81 8.81 0 0 0 383.81 563.81" fill="#689199"/><rect x="395.71008" y="545.71008" width="18.57984" height="18.57984" fill="none"/><path d="M 395.71 555 A 9.29 9.29 0 0 1  405 564.29 L 395.71 555 A 9.29 9.29 0 0 0 405 564.29" fill="#bdd9df"/><path d="M 454.74 565.26 A 20.52 20.52 0 0 1  475.26 544.74 L 454.74 565.26 A 20.52 20.52 0 0 0 475.26 544.74" fill="#99a0df"/><rect x="573.936" y="543.936" width="22.128" height="22.128" fill="none"/><path d="M 573.94 543.94 A 11.06 11.06 0 0 1  585 555 L 573.94 543.94 A 11.06 11.06 0 0 0 585 555" fill="#a3a7ea"/><path d="M 585 543.94 A 11.06 11.06 0 0 1  596.06 555 L 585 543.94 A 11.06 11.06 0 0 0 596.06 555" fill="#154854"/><path d="M 573.94 566.06 A 11.06 11.06 0 0 1  585 555 L 573.94 566.06 A 11.06 11.06 0 0 0 585 555" fill="#a7aaee"/><path d="M 585 555 A 11.06 11.06 0 0 1  596.06 566.06 L 585 555 A 11.06 11.06 0 0 0 596.06 566.06" fill="#abacf2"/><rect x="603.936" y="543.936" width="22.128" height="22.128" fill="none"/><path d="M 603.94 555 A 11.06 11.06 0 0 1  615 543.94 L 603.94 555 A 11.06 11.06 0 0 0 615 543.94" fill="#3f6873"/><path d="M 603.94 566.06 A 11.06 11.06 0 0 1  615 555 L 603.94 566.06 A 11.06 11.06 0 0 0 615 555" fill="#9dbec4"/><path d="M 615 555 A 11.06 11.06 0 0 1  626.06 566.06 L 615 555 A 11.06 11.06 0 0 0 626.06 566.06" fill="#3e6d77"/><rect x="663.936" y="543.936" width="22.128" height="22.128" fill="none"/><path d="M 663.94 543.94 A 11.06 11.06 0 0 1  675 555 L 663.94 543.94 A 11.06 11.06 0 0 0 675 555" fill="#114752"/><path d="M 675 543.94 A 11.06 11.06 0 0 1  686.06 555 L 675 543.94 A 11.06 11.06 0 0 0 686.06 555" fill="#6b80b0"/><path d="M 724.26 544.26 A 21.48 21.48 0 0 1  745.74 565.74 L 724.26 544.26 A 21.48 21.48 0 0 0 745.74 565.74" fill="#97b9c0"/><rect x="785.22624" y="545.22624" width="19.54752" height="19.54752" fill="none"/><path d="M 785.23 555 A 9.77 9.77 0 0 1  795 545.23 L 785.23 555 A 9.77 9.77 0 0 0 795 545.23" fill="#85a9b1"/><path d="M 795 555 A 9.77 9.77 0 0 1  804.77 545.23 L 795 555 A 9.77 9.77 0 0 0 804.77 545.23" fill="#608a93"/><path d="M 795 555 A 9.77 9.77 0 0 1  804.77 564.77 L 795 555 A 9.77 9.77 0 0 0 804.77 564.77" fill="#979fde"/><rect x="815.71008" y="545.71008" width="18.57984" height="18.57984" fill="none"/><path d="M 815.71 545.71 A 9.29 9.29 0 0 1  825 555 L 815.71 545.71 A 9.29 9.29 0 0 0 825 555" fill="#597c87"/><path d="M 846.19 563.8000000000001 A 17.61 17.61 0 0 1  863.8000000000001 546.19 L 846.19 563.8000000000001 A 17.61 17.61 0 0 0 863.8000000000001 546.19" fill="#9fc0c7"/><path d="M 937.65 547.65 A 14.71 14.71 0 0 1  952.36 562.36 L 937.65 547.65 A 14.71 14.71 0 0 0 952.36 562.36" fill="#8592cb"/><path d="M 1029.1 560.91 A 11.81 11.81 0 0 1  1040.9099999999999 549.1 L 1029.1 560.91 A 11.81 11.81 0 0 0 1040.9099999999999 549.1" fill="#7f8ec5"/><path d="M 189.51 590.49 A 10.98 10.98 0 0 1  200.48999999999998 579.51 L 189.51 590.49 A 10.98 10.98 0 0 0 200.48999999999998 579.51" fill="#587c87"/><path d="M 219.1 579.1 A 11.81 11.81 0 0 1  230.91 590.91 L 219.1 579.1 A 11.81 11.81 0 0 0 230.91 590.91" fill="#87a0aa"/><rect x="367.02336" y="577.02336" width="15.95328" height="15.95328" fill="none"/><path d="M 367.02 577.02 A 7.98 7.98 0 0 1  375 585 L 367.02 577.02 A 7.98 7.98 0 0 0 375 585" fill="#c0cbd5"/><path d="M 375 585 A 7.98 7.98 0 0 1  382.98 577.02 L 375 585 A 7.98 7.98 0 0 0 382.98 577.02" fill="#becad4"/><path d="M 367.02 592.98 A 7.98 7.98 0 0 1  375 585 L 367.02 592.98 A 7.98 7.98 0 0 0 375 585" fill="#27536c"/><rect x="396.60864" y="576.60864" width="16.782719999999998" height="16.782719999999998" fill="none"/><path d="M 405 576.61 A 8.39 8.39 0 0 1  413.39 585 L 405 576.61 A 8.39 8.39 0 0 0 413.39 585" fill="#516f96"/><path d="M 396.61 593.39 A 8.39 8.39 0 0 1  405 585 L 396.61 593.39 A 8.39 8.39 0 0 0 405 585" fill="#739aa2"/><path d="M 405 585 A 8.39 8.39 0 0 1  413.39 593.39 L 405 585 A 8.39 8.39 0 0 0 413.39 593.39" fill="#0d424e"/><rect x="426.19392" y="576.19392" width="17.612159999999996" height="17.612159999999996" fill="none"/><path d="M 435 585 A 8.81 8.81 0 0 1  443.81 593.81 L 435 585 A 8.81 8.81 0 0 0 443.81 593.81" fill="#a5a8ec"/><path d="M 455.78 575.78 A 18.44 18.44 0 0 1  474.21999999999997 594.22 L 455.78 575.78 A 18.44 18.44 0 0 0 474.21999999999997 594.22" fill="#9ea3e5"/><path d="M 485.36 575.36 A 19.27 19.27 0 0 1  504.63 594.63 L 485.36 575.36 A 19.27 19.27 0 0 0 504.63 594.63" fill="#d2d9e3"/><path d="M 515.09 594.9100000000001 A 19.82 19.82 0 0 1  534.9100000000001 575.09 L 515.09 594.9100000000001 A 19.82 19.82 0 0 0 534.9100000000001 575.09" fill="#c1dde2"/><path d="M 635.09 594.9100000000001 A 19.82 19.82 0 0 1  654.9100000000001 575.09 L 635.09 594.9100000000001 A 19.82 19.82 0 0 0 654.9100000000001 575.09" fill="#1c4b60"/><path d="M 755.78 575.78 A 18.44 18.44 0 0 1  774.22 594.22 L 755.78 575.78 A 18.44 18.44 0 0 0 774.22 594.22" fill="#d6dce5"/><path d="M 786.19 593.8000000000001 A 17.61 17.61 0 0 1  803.8000000000001 576.19 L 786.19 593.8000000000001 A 17.61 17.61 0 0 0 803.8000000000001 576.19" fill="#35616c"/><rect x="816.60864" y="576.60864" width="16.782719999999998" height="16.782719999999998" fill="none"/><path d="M 816.61 576.61 A 8.39 8.39 0 0 1  825 585 L 816.61 576.61 A 8.39 8.39 0 0 0 825 585" fill="#255862"/><path d="M 816.61 585 A 8.39 8.39 0 0 1  825 593.39 L 816.61 585 A 8.39 8.39 0 0 0 825 593.39" fill="#053c48"/><path d="M 938.27 591.73 A 13.46 13.46 0 0 1  951.73 578.27 L 938.27 591.73 A 13.46 13.46 0 0 0 951.73 578.27" fill="#647caa"/><path d="M 999.1 579.1 A 11.81 11.81 0 0 1  1010.91 590.91 L 999.1 579.1 A 11.81 11.81 0 0 0 1010.91 590.91" fill="#46747e"/><path d="M 1029.51 579.51 A 10.98 10.98 0 0 1  1040.49 590.49 L 1029.51 579.51 A 10.98 10.98 0 0 0 1040.49 590.49" fill="#033a47"/><path d="M 100.96 610.96 A 8.07 8.07 0 0 1  109.03 619.0300000000001 L 100.96 610.96 A 8.07 8.07 0 0 0 109.03 619.0300000000001" fill="#013945"/><rect x="130.6176" y="610.6176" width="8.764799999999997" height="8.764799999999997" fill="none"/><path d="M 249.24 620.77 A 11.53 11.53 0 0 1  260.77 609.24 L 249.24 620.77 A 11.53 11.53 0 0 0 260.77 609.24" fill="#739aa2"/><path d="M 427.16 607.16 A 15.68 15.68 0 0 1  442.84000000000003 622.8399999999999 L 427.16 607.16 A 15.68 15.68 0 0 0 442.84000000000003 622.8399999999999" fill="#9dbec4"/><rect x="456.816" y="606.816" width="16.367999999999995" height="16.367999999999995" fill="none"/><path d="M 546.24 623.76 A 17.52 17.52 0 0 1  563.76 606.24 L 546.24 623.76 A 17.52 17.52 0 0 0 563.76 606.24" fill="#2c5671"/><path d="M 606.24 623.76 A 17.52 17.52 0 0 1  623.76 606.24 L 606.24 623.76 A 17.52 17.52 0 0 0 623.76 606.24" fill="#789ea6"/><path d="M 696.24 623.76 A 17.52 17.52 0 0 1  713.76 606.24 L 696.24 623.76 A 17.52 17.52 0 0 0 713.76 606.24" fill="#658e96"/><path d="M 726.47 623.53 A 17.06 17.06 0 0 1  743.53 606.47 L 726.47 623.53 A 17.06 17.06 0 0 0 743.53 606.47" fill="#7889bd"/><path d="M 756.82 606.82 A 16.37 16.37 0 0 1  773.19 623.19 L 756.82 606.82 A 16.37 16.37 0 0 0 773.19 623.19" fill="#1c4d59"/><path d="M 847.85 607.85 A 14.29 14.29 0 0 1  862.14 622.14 L 847.85 607.85 A 14.29 14.29 0 0 0 862.14 622.14" fill="none"/><path d="M 190.34 649.6600000000001 A 9.32 9.32 0 0 1  199.66 640.34 L 190.34 649.6600000000001 A 9.32 9.32 0 0 0 199.66 640.34" fill="#2f606a"/><path d="M 279.51 639.51 A 10.98 10.98 0 0 1  290.49 650.49 L 279.51 639.51 A 10.98 10.98 0 0 0 290.49 650.49" fill="#859ea9"/><path d="M 428.13 638.13 A 13.74 13.74 0 0 1  441.87 651.87 L 428.13 638.13 A 13.74 13.74 0 0 0 441.87 651.87" fill="#9bbdc3"/><rect x="457.8528" y="637.8528" width="14.294399999999996" height="14.294399999999996" fill="none"/><path d="M 465 645 A 7.15 7.15 0 0 1  472.15 637.85 L 465 645 A 7.15 7.15 0 0 0 472.15 637.85" fill="#17485b"/><path d="M 457.85 645 A 7.15 7.15 0 0 1  465 652.15 L 457.85 645 A 7.15 7.15 0 0 0 465 652.15" fill="#799fa7"/><path d="M 465 645 A 7.15 7.15 0 0 1  472.15 652.15 L 465 645 A 7.15 7.15 0 0 0 472.15 652.15" fill="#2f5c68"/><rect x="517.392" y="637.392" width="15.215999999999996" height="15.215999999999996" fill="none"/><path d="M 525 652.61 A 7.61 7.61 0 0 1  532.61 645 L 525 652.61 A 7.61 7.61 0 0 0 532.61 645" fill="#7386b9"/><path d="M 667.39 637.39 A 15.22 15.22 0 0 1  682.61 652.61 L 667.39 637.39 A 15.22 15.22 0 0 0 682.61 652.61" fill="#8a95d0"/><path d="M 878.96 651.0400000000001 A 12.08 12.08 0 0 1  891.0400000000001 638.96 L 878.96 651.0400000000001 A 12.08 12.08 0 0 0 891.0400000000001 638.96" fill="#426b76"/><rect x="939.51168" y="639.51168" width="10.976639999999996" height="10.976639999999996" fill="none"/><path d="M 945 645 A 5.49 5.49 0 0 1  950.49 639.51 L 945 645 A 5.49 5.49 0 0 0 950.49 639.51" fill="#043a48"/><path d="M 945 645 A 5.49 5.49 0 0 1  950.49 650.49 L 945 645 A 5.49 5.49 0 0 0 950.49 650.49" fill="#4e7b84"/><rect x="339.71904" y="669.71904" width="10.56192" height="10.56192" fill="none"/><path d="M 339.72 680.28 A 5.28 5.28 0 0 1  345 675 L 339.72 680.28 A 5.28 5.28 0 0 0 345 675" fill="#618b93"/><rect x="369.51168" y="669.51168" width="10.97664" height="10.97664" fill="none"/><rect x="488.68224" y="668.68224" width="12.635519999999996" height="12.635519999999996" fill="none"/><path d="M 488.68 681.32 A 6.32 6.32 0 0 1  495 675 L 488.68 681.32 A 6.32 6.32 0 0 0 495 675" fill="#5d8790"/><path d="M 518.54 681.4499999999999 A 12.91 12.91 0 0 1  531.4499999999999 668.54 L 518.54 681.4499999999999 A 12.91 12.91 0 0 0 531.4499999999999 668.54" fill="#bac7d0"/><path d="M 1000.55 670.55 A 8.9 8.9 0 0 1  1009.4499999999999 679.4499999999999 L 1000.55 670.55 A 8.9 8.9 0 0 0 1009.4499999999999 679.4499999999999" fill="#989fde"/><path d="M 1151.59 678.4200000000001 A 6.83 6.83 0 0 1  1158.4199999999998 671.59 L 1151.59 678.4200000000001 A 6.83 6.83 0 0 0 1158.4199999999998 671.59" fill="#b1b0f8"/><rect x="430.06464" y="700.06464" width="9.870719999999999" height="9.870719999999999" fill="none"/><path d="M 435 700.06 A 4.94 4.94 0 0 1  439.94 705 L 435 700.06 A 4.94 4.94 0 0 0 439.94 705" fill="#3f6384"/><path d="M 435 705 A 4.94 4.94 0 0 1  439.94 709.94 L 435 705 A 4.94 4.94 0 0 0 439.94 709.94" fill="#2d5b66"/><path d="M 519.7 699.7 A 10.61 10.61 0 0 1  530.3100000000001 710.3100000000001 L 519.7 699.7 A 10.61 10.61 0 0 0 530.3100000000001 710.3100000000001" fill="#d1eaef"/><path d="M 549.7 699.7 A 10.61 10.61 0 0 1  560.3100000000001 710.3100000000001 L 549.7 699.7 A 10.61 10.61 0 0 0 560.3100000000001 710.3100000000001" fill="#62838e"/><rect x="639.696" y="699.696" width="10.608" height="10.608" fill="none"/><path d="M 645 699.7 A 5.3 5.3 0 0 1  650.3 705 L 645 699.7 A 5.3 5.3 0 0 0 650.3 705" fill="#134753"/><path d="M 645 710.3 A 5.3 5.3 0 0 1  650.3 705 L 645 710.3 A 5.3 5.3 0 0 0 650.3 705" fill="#869fa9"/><path d="M 729.79 710.2099999999999 A 10.42 10.42 0 0 1  740.2099999999999 699.79 L 729.79 710.2099999999999 A 10.42 10.42 0 0 0 740.2099999999999 699.79" fill="#cbe6eb"/></g></svg>