<?xml version="1.0" standalone="no"?><svg xmlns:xlink="http://www.w3.org/1999/xlink" xmlns="http://www.w3.org/2000/svg" viewBox="0 0 1500 937.5" preserveAspectRatio="xMaxYMax slice"><g transform="scale(1.25)"><rect x="0" y="0" width="1200" height="750" fill="none"/><path d="M 161.65 48.339999999999996 A 6.69 6.69 0 0 1  168.34 41.65 L 161.65 48.339999999999996 A 6.69 6.69 0 0 0 168.34 41.65" fill="#527782"/><path d="M 730.89 49.1 A 8.21 8.21 0 0 1  739.1 40.89 L 730.89 49.1 A 8.21 8.21 0 0 0 739.1 40.89" fill="#385e7d"/><path d="M 370.34 79.66 A 9.32 9.32 0 0 1  379.65999999999997 70.34 L 370.34 79.66 A 9.32 9.32 0 0 0 379.65999999999997 70.34" fill="#5a759f"/><path d="M 400.2 70.2 A 9.59 9.59 0 0 1  409.78999999999996 79.79 L 400.2 70.2 A 9.59 9.59 0 0 0 409.78999999999996 79.79" fill="#a6a9ed"/><path d="M 519.7 80.31 A 10.61 10.61 0 0 1  530.3100000000001 69.7 L 519.7 80.31 A 10.61 10.61 0 0 0 530.3100000000001 69.7" fill="#92a8b3"/><path d="M 669.7 69.7 A 10.61 10.61 0 0 1  680.3100000000001 80.31 L 669.7 69.7 A 10.61 10.61 0 0 0 680.3100000000001 80.31" fill="#73909b"/><path d="M 880.48 79.52000000000001 A 9.04 9.04 0 0 1  889.52 70.48 L 880.48 79.52000000000001 A 9.04 9.04 0 0 0 889.52 70.48" fill="#5c76a1"/><path d="M 910.62 79.38000000000001 A 8.76 8.76 0 0 1  919.38 70.62 L 910.62 79.38000000000001 A 8.76 8.76 0 0 0 919.38 70.62" fill="#798abf"/><path d="M 190.76 100.76 A 8.49 8.49 0 0 1  199.25 109.25 L 190.76 100.76 A 8.49 8.49 0 0 0 199.25 109.25" fill="#e6e9f2"/><path d="M 668.54 111.45 A 12.91 12.91 0 0 1  681.4499999999999 98.54 L 668.54 111.45 A 12.91 12.91 0 0 0 681.4499999999999 98.54" fill="#a6b7c1"/><rect x="940.13376" y="100.13376" width="9.732479999999995" height="9.732479999999995" fill="none"/><path d="M 945 100.13 A 4.87 4.87 0 0 1  949.87 105 L 945 100.13 A 4.87 4.87 0 0 0 949.87 105" fill="#989fde"/><path d="M 309.24 140.77 A 11.53 11.53 0 0 1  320.77 129.24 L 309.24 140.77 A 11.53 11.53 0 0 0 320.77 129.24" fill="#b8c5cf"/><rect x="338.95871999999997" y="128.95872" width="12.08256" height="12.08256" fill="none"/><path d="M 338.96 135 A 6.04 6.04 0 0 1  345 128.96 L 338.96 135 A 6.04 6.04 0 0 0 345 128.96" fill="#285a65"/><path d="M 345 135 A 6.04 6.04 0 0 1  351.04 128.96 L 345 135 A 6.04 6.04 0 0 0 351.04 128.96" fill="#7688bc"/><rect x="547.392" y="127.392" width="15.215999999999996" height="15.215999999999996" fill="none"/><path d="M 555 135 A 7.61 7.61 0 0 1  562.61 127.39 L 555 135 A 7.61 7.61 0 0 0 562.61 127.39" fill="#3a6570"/><path d="M 547.39 142.61 A 7.61 7.61 0 0 1  555 135 L 547.39 142.61 A 7.61 7.61 0 0 0 555 135" fill="#98bac0"/><path d="M 555 135 A 7.61 7.61 0 0 1  562.61 142.61 L 555 135 A 7.61 7.61 0 0 0 562.61 142.61" fill="#4a6a8f"/><path d="M 577.39 142.61 A 15.22 15.22 0 0 1  592.61 127.39 L 577.39 142.61 A 15.22 15.22 0 0 0 592.61 127.39" fill="#4e7b84"/><path d="M 607.39 127.39 A 15.22 15.22 0 0 1  622.61 142.61 L 607.39 127.39 A 15.22 15.22 0 0 0 622.61 142.61" fill="#657dab"/><rect x="757.8528" y="127.8528" width="14.294399999999996" height="14.294399999999996" fill="none"/><path d="M 757.85 127.85 A 7.15 7.15 0 0 1  765 135 L 757.85 127.85 A 7.15 7.15 0 0 0 765 135" fill="#5b76a1"/><path d="M 788.13 141.87 A 13.74 13.74 0 0 1  801.87 128.13 L 788.13 141.87 A 13.74 13.74 0 0 0 801.87 128.13" fill="#6b80b0"/><rect x="878.95872" y="128.95872" width="12.08256" height="12.08256" fill="none"/><path d="M 969.79 129.79 A 10.42 10.42 0 0 1  980.2099999999999 140.20999999999998 L 969.79 129.79 A 10.42 10.42 0 0 0 980.2099999999999 140.20999999999998" fill="#61828d"/><path d="M 456.82 156.82 A 16.37 16.37 0 0 1  473.19 173.19 L 456.82 156.82 A 16.37 16.37 0 0 0 473.19 173.19" fill="#798abf"/><rect x="516.24" y="156.24" width="17.519999999999996" height="17.519999999999996" fill="none"/><path d="M 516.24 156.24 A 8.76 8.76 0 0 1  525 165 L 516.24 156.24 A 8.76 8.76 0 0 0 525 165" fill="#4b727d"/><path d="M 516.24 173.76 A 8.76 8.76 0 0 1  525 165 L 516.24 173.76 A 8.76 8.76 0 0 0 525 165" fill="#8ea5af"/><path d="M 525 165 A 8.76 8.76 0 0 1  533.76 173.76 L 525 165 A 8.76 8.76 0 0 0 533.76 173.76" fill="#e9ebf4"/><path d="M 546.24 156.24 A 17.52 17.52 0 0 1  563.76 173.76000000000002 L 546.24 156.24 A 17.52 17.52 0 0 0 563.76 173.76000000000002" fill="#053d48"/><rect x="606.24" y="156.24" width="17.519999999999996" height="17.519999999999996" fill="none"/><path d="M 606.24 165 A 8.76 8.76 0 0 1  615 156.24 L 606.24 165 A 8.76 8.76 0 0 0 615 156.24" fill="#1e4f5b"/><path d="M 615 156.24 A 8.76 8.76 0 0 1  623.76 165 L 615 156.24 A 8.76 8.76 0 0 0 623.76 165" fill="#7ea4ac"/><path d="M 606.24 165 A 8.76 8.76 0 0 1  615 173.76 L 606.24 165 A 8.76 8.76 0 0 0 615 173.76" fill="#093e4d"/><path d="M 615 173.76 A 8.76 8.76 0 0 1  623.76 165 L 615 173.76 A 8.76 8.76 0 0 0 623.76 165" fill="#124651"/><rect x="636.24" y="156.24" width="17.519999999999996" height="17.519999999999996" fill="none"/><path d="M 636.24 165 A 8.76 8.76 0 0 1  645 156.24 L 636.24 165 A 8.76 8.76 0 0 0 645 156.24" fill="#6b949c"/><path d="M 636.24 173.76 A 8.76 8.76 0 0 1  645 165 L 636.24 173.76 A 8.76 8.76 0 0 0 645 165" fill="#9ea3e5"/><path d="M 645 165 A 8.76 8.76 0 0 1  653.76 173.76 L 645 165 A 8.76 8.76 0 0 0 653.76 173.76" fill="#617aa7"/><rect x="878.1984" y="158.1984" width="13.603200000000001" height="13.603200000000001" fill="none"/><path d="M 969.24 159.24 A 11.53 11.53 0 0 1  980.77 170.77 L 969.24 159.24 A 11.53 11.53 0 0 0 980.77 170.77" fill="#7ba1a9"/><path d="M 130.34 190.34 A 9.32 9.32 0 0 1  139.66 199.66 L 130.34 190.34 A 9.32 9.32 0 0 0 139.66 199.66" fill="#19495d"/><path d="M 278.27 201.73000000000002 A 13.46 13.46 0 0 1  291.72999999999996 188.27 L 278.27 201.73000000000002 A 13.46 13.46 0 0 0 291.72999999999996 188.27" fill="#1a4a5f"/><path d="M 396.61 186.61 A 16.78 16.78 0 0 1  413.39 203.39000000000001 L 396.61 186.61 A 16.78 16.78 0 0 0 413.39 203.39000000000001" fill="#dde2eb"/><path d="M 455.78 204.22 A 18.44 18.44 0 0 1  474.21999999999997 185.78 L 455.78 204.22 A 18.44 18.44 0 0 0 474.21999999999997 185.78" fill="#8ba3ad"/><path d="M 485.36 204.63000000000002 A 19.27 19.27 0 0 1  504.63 185.36 L 485.36 204.63000000000002 A 19.27 19.27 0 0 0 504.63 185.36" fill="#7f99a4"/><path d="M 515.09 185.09 A 19.82 19.82 0 0 1  534.9100000000001 204.91 L 515.09 185.09 A 19.82 19.82 0 0 0 534.9100000000001 204.91" fill="#a4a8eb"/><path d="M 575.09 204.91 A 19.82 19.82 0 0 1  594.9100000000001 185.09 L 575.09 204.91 A 19.82 19.82 0 0 0 594.9100000000001 185.09" fill="#8794cd"/><path d="M 605.09 185.09 A 19.82 19.82 0 0 1  624.9100000000001 204.91 L 605.09 185.09 A 19.82 19.82 0 0 0 624.9100000000001 204.91" fill="#154a55"/><path d="M 635.09 185.09 A 19.82 19.82 0 0 1  654.9100000000001 204.91 L 635.09 185.09 A 19.82 19.82 0 0 0 654.9100000000001 204.91" fill="#ddf5f9"/><rect x="695.088" y="185.088" width="19.823999999999998" height="19.823999999999998" fill="none"/><path d="M 705 195 A 9.91 9.91 0 0 1  714.91 204.91 L 705 195 A 9.91 9.91 0 0 0 714.91 204.91" fill="#dbf4f8"/><path d="M 755.78 185.78 A 18.44 18.44 0 0 1  774.22 204.22 L 755.78 185.78 A 18.44 18.44 0 0 0 774.22 204.22" fill="#255460"/><path d="M 938.27 188.27 A 13.46 13.46 0 0 1  951.73 201.73000000000002 L 938.27 188.27 A 13.46 13.46 0 0 0 951.73 201.73000000000002" fill="#d3edf1"/><path d="M 968.68 188.68 A 12.64 12.64 0 0 1  981.3199999999999 201.32 L 968.68 188.68 A 12.64 12.64 0 0 0 981.3199999999999 201.32" fill="#013945"/><path d="M 366.19 216.19 A 17.61 17.61 0 0 1  383.8 233.8 L 366.19 216.19 A 17.61 17.61 0 0 0 383.8 233.8" fill="#1b4d58"/><path d="M 425.23 234.78 A 19.55 19.55 0 0 1  444.78000000000003 215.23 L 425.23 234.78 A 19.55 19.55 0 0 0 444.78000000000003 215.23" fill="#30616c"/><path d="M 484.26 214.26 A 21.48 21.48 0 0 1  505.74 235.73999999999998 L 484.26 214.26 A 21.48 21.48 0 0 0 505.74 235.73999999999998" fill="#5d7f8a"/><path d="M 543.94 236.07 A 22.13 22.13 0 0 1  566.07 213.94 L 543.94 236.07 A 22.13 22.13 0 0 0 566.07 213.94" fill="#cdd5df"/><path d="M 573.94 236.07 A 22.13 22.13 0 0 1  596.07 213.94 L 573.94 236.07 A 22.13 22.13 0 0 0 596.07 213.94" fill="#30616b"/><rect x="633.936" y="213.936" width="22.128" height="22.128" fill="none"/><path d="M 633.94 236.06 A 11.06 11.06 0 0 1  645 225 L 633.94 236.06 A 11.06 11.06 0 0 0 645 225" fill="#1c4e59"/><path d="M 645 225 A 11.06 11.06 0 0 1  656.06 236.06 L 645 225 A 11.06 11.06 0 0 0 656.06 236.06" fill="#acadf3"/><path d="M 693.94 213.94 A 22.13 22.13 0 0 1  716.07 236.07 L 693.94 213.94 A 22.13 22.13 0 0 0 716.07 236.07" fill="#023945"/><path d="M 724.26 235.73999999999998 A 21.48 21.48 0 0 1  745.74 214.26 L 724.26 235.73999999999998 A 21.48 21.48 0 0 0 745.74 214.26" fill="#9cb0ba"/><path d="M 754.74 214.74 A 20.52 20.52 0 0 1  775.26 235.26000000000002 L 754.74 214.74 A 20.52 20.52 0 0 0 775.26 235.26000000000002" fill="#bfcbd5"/><path d="M 815.71 215.71 A 18.58 18.58 0 0 1  834.2900000000001 234.29000000000002 L 815.71 215.71 A 18.58 18.58 0 0 0 834.2900000000001 234.29000000000002" fill="#9ba1e2"/><path d="M 876.68 216.68 A 16.64 16.64 0 0 1  893.3199999999999 233.32 L 876.68 216.68 A 16.64 16.64 0 0 0 893.3199999999999 233.32" fill="#679098"/><path d="M 968.13 231.87 A 13.74 13.74 0 0 1  981.87 218.13 L 968.13 231.87 A 13.74 13.74 0 0 0 981.87 218.13" fill="#4e747f"/><rect x="998.61312" y="218.61312" width="12.77376" height="12.77376" fill="none"/><path d="M 998.61 218.61 A 6.39 6.39 0 0 1  1005 225 L 998.61 218.61 A 6.39 6.39 0 0 0 1005 225" fill="#2a546e"/><rect x="129.78816" y="249.78816" width="10.423679999999997" height="10.423679999999997" fill="none"/><path d="M 129.79 260.21 A 5.21 5.21 0 0 1  135 255 L 129.79 260.21 A 5.21 5.21 0 0 0 135 255" fill="#a9c8ce"/><path d="M 135 260.21 A 5.21 5.21 0 0 1  140.21 255 L 135 260.21 A 5.21 5.21 0 0 0 140.21 255" fill="#657caa"/><path d="M 159.24 260.77 A 11.53 11.53 0 0 1  170.77 249.24 L 159.24 260.77 A 11.53 11.53 0 0 0 170.77 249.24" fill="#85aab1"/><rect x="306.4704" y="246.4704" width="17.059199999999997" height="17.059199999999997" fill="none"/><path d="M 306.47 255 A 8.53 8.53 0 0 1  315 263.53 L 306.47 255 A 8.53 8.53 0 0 0 315 263.53" fill="#697fae"/><path d="M 315 263.53 A 8.53 8.53 0 0 1  323.53 255 L 315 263.53 A 8.53 8.53 0 0 0 323.53 255" fill="#134854"/><rect x="365.36448" y="245.36448000000001" width="19.27104" height="19.27104" fill="none"/><path d="M 483.15 266.84000000000003 A 23.69 23.69 0 0 1  506.84 243.15 L 483.15 266.84000000000003 A 23.69 23.69 0 0 0 506.84 243.15" fill="#aaabf0"/><path d="M 572.78 267.21 A 24.43 24.43 0 0 1  597.2099999999999 242.78 L 572.78 267.21 A 24.43 24.43 0 0 0 597.2099999999999 242.78" fill="#285762"/><path d="M 662.78 242.78 A 24.43 24.43 0 0 1  687.2099999999999 267.21 L 662.78 242.78 A 24.43 24.43 0 0 0 687.2099999999999 267.21" fill="#2f606a"/><rect x="723.15264" y="243.15264" width="23.694719999999997" height="23.694719999999997" fill="none"/><path d="M 723.15 255 A 11.85 11.85 0 0 1  735 266.85 L 723.15 255 A 11.85 11.85 0 0 0 735 266.85" fill="#6b8a95"/><path d="M 753.71 243.71 A 22.59 22.59 0 0 1  776.3000000000001 266.3 L 753.71 243.71 A 22.59 22.59 0 0 0 776.3000000000001 266.3" fill="#5e8891"/><path d="M 906.47 263.53 A 17.06 17.06 0 0 1  923.53 246.47 L 906.47 263.53 A 17.06 17.06 0 0 0 923.53 246.47" fill="#d7f0f5"/><rect x="937.02336" y="247.02336" width="15.95328" height="15.95328" fill="none"/><path d="M 937.02 247.02 A 7.98 7.98 0 0 1  945 255 L 937.02 247.02 A 7.98 7.98 0 0 0 945 255" fill="#2e5f69"/><path d="M 945 255 A 7.98 7.98 0 0 1  952.98 262.98 L 945 255 A 7.98 7.98 0 0 0 952.98 262.98" fill="#e7e9f3"/><path d="M 70.76 280.76 A 8.49 8.49 0 0 1  79.25 289.25 L 70.76 280.76 A 8.49 8.49 0 0 0 79.25 289.25" fill="#7487ba"/><rect x="158.8896" y="278.8896" width="12.2208" height="12.2208" fill="none"/><path d="M 165 291.11 A 6.11 6.11 0 0 1  171.11 285 L 165 291.11 A 6.11 6.11 0 0 0 171.11 285" fill="#ecedf6"/><path d="M 276.4 276.4 A 17.2 17.2 0 0 1  293.59999999999997 293.59999999999997 L 276.4 276.4 A 17.2 17.2 0 0 0 293.59999999999997 293.59999999999997" fill="#acadf3"/><path d="M 393.91 296.08000000000004 A 22.17 22.17 0 0 1  416.08000000000004 273.91 L 393.91 296.08000000000004 A 22.17 22.17 0 0 0 416.08000000000004 273.91" fill="#7688bc"/><rect x="423.29088" y="273.29088" width="23.41824" height="23.41824" fill="none"/><path d="M 423.29 285 A 11.71 11.71 0 0 1  435 273.29 L 423.29 285 A 11.71 11.71 0 0 0 435 273.29" fill="#0c4050"/><path d="M 435 285 A 11.71 11.71 0 0 1  446.71 273.29 L 435 285 A 11.71 11.71 0 0 0 446.71 273.29" fill="#798bbf"/><path d="M 435 296.71 A 11.71 11.71 0 0 1  446.71 285 L 435 296.71 A 11.71 11.71 0 0 0 446.71 285" fill="#577b85"/><path d="M 452.67 272.67 A 24.66 24.66 0 0 1  477.33000000000004 297.33000000000004 L 452.67 272.67 A 24.66 24.66 0 0 0 477.33000000000004 297.33000000000004" fill="#5f78a4"/><path d="M 482.05 297.96000000000004 A 25.91 25.91 0 0 1  507.96000000000004 272.05 L 482.05 297.96000000000004 A 25.91 25.91 0 0 0 507.96000000000004 272.05" fill="#8190c8"/><path d="M 511.63 271.63 A 26.74 26.74 0 0 1  538.37 298.37 L 511.63 271.63 A 26.74 26.74 0 0 0 538.37 298.37" fill="#d8dee7"/><path d="M 541.63 271.63 A 26.74 26.74 0 0 1  568.37 298.37 L 541.63 271.63 A 26.74 26.74 0 0 0 568.37 298.37" fill="#134557"/><path d="M 601.63 271.63 A 26.74 26.74 0 0 1  628.37 298.37 L 601.63 271.63 A 26.74 26.74 0 0 0 628.37 298.37" fill="#6b939c"/><path d="M 631.63 298.37 A 26.74 26.74 0 0 1  658.37 271.63 L 631.63 298.37 A 26.74 26.74 0 0 0 658.37 271.63" fill="#4a7881"/><path d="M 661.63 271.63 A 26.74 26.74 0 0 1  688.37 298.37 L 661.63 271.63 A 26.74 26.74 0 0 0 688.37 298.37" fill="#658f97"/><path d="M 691.63 298.37 A 26.74 26.74 0 0 1  718.37 271.63 L 691.63 298.37 A 26.74 26.74 0 0 0 718.37 271.63" fill="#8b96d1"/><path d="M 722.05 297.96000000000004 A 25.91 25.91 0 0 1  747.9599999999999 272.05 L 722.05 297.96000000000004 A 25.91 25.91 0 0 0 747.9599999999999 272.05" fill="#5a858e"/><path d="M 752.67 272.67 A 24.66 24.66 0 0 1  777.3299999999999 297.33000000000004 L 752.67 272.67 A 24.66 24.66 0 0 0 777.3299999999999 297.33000000000004" fill="#bac7d1"/><rect x="783.29088" y="273.29088" width="23.41824" height="23.41824" fill="none"/><path d="M 783.29 273.29 A 11.71 11.71 0 0 1  795 285 L 783.29 273.29 A 11.71 11.71 0 0 0 795 285" fill="#023945"/><path d="M 795 285 A 11.71 11.71 0 0 1  806.71 273.29 L 795 285 A 11.71 11.71 0 0 0 806.71 273.29" fill="#b0bfc9"/><path d="M 783.29 296.71 A 11.71 11.71 0 0 1  795 285 L 783.29 296.71 A 11.71 11.71 0 0 0 795 285" fill="#1a4a5e"/><path d="M 813.91 296.08000000000004 A 22.17 22.17 0 0 1  836.0799999999999 273.91 L 813.91 296.08000000000004 A 22.17 22.17 0 0 0 836.0799999999999 273.91" fill="#77939e"/><path d="M 844.54 295.47 A 20.93 20.93 0 0 1  865.4699999999999 274.54 L 844.54 295.47 A 20.93 20.93 0 0 0 865.4699999999999 274.54" fill="#769da4"/><path d="M 905.78 294.21999999999997 A 18.44 18.44 0 0 1  924.22 275.78 L 905.78 294.21999999999997 A 18.44 18.44 0 0 0 924.22 275.78" fill="#29546d"/><path d="M 997.65 292.35999999999996 A 14.71 14.71 0 0 1  1012.36 277.65 L 997.65 292.35999999999996 A 14.71 14.71 0 0 0 1012.36 277.65" fill="#255560"/><path d="M 217.16 307.16 A 15.68 15.68 0 0 1  232.84 322.84000000000003 L 217.16 307.16 A 15.68 15.68 0 0 0 232.84 322.84000000000003" fill="#b1b0f8"/><path d="M 246.47 306.47 A 17.06 17.06 0 0 1  263.53 323.53000000000003 L 246.47 306.47 A 17.06 17.06 0 0 0 263.53 323.53000000000003" fill="#e0f8fc"/><path d="M 305.09 324.90999999999997 A 19.82 19.82 0 0 1  324.90999999999997 305.09 L 305.09 324.90999999999997 A 19.82 19.82 0 0 0 324.90999999999997 305.09" fill="#023a46"/><rect x="334.3968" y="304.3968" width="21.206400000000002" height="21.206400000000002" fill="none"/><path d="M 334.4 315 A 10.6 10.6 0 0 1  345 304.4 L 334.4 315 A 10.6 10.6 0 0 0 345 304.4" fill="#013945"/><path d="M 334.4 315 A 10.6 10.6 0 0 1  345 325.6 L 334.4 315 A 10.6 10.6 0 0 0 345 325.6" fill="#7ba1a9"/><path d="M 363.71 303.71 A 22.59 22.59 0 0 1  386.29999999999995 326.29999999999995 L 363.71 303.71 A 22.59 22.59 0 0 0 386.29999999999995 326.29999999999995" fill="#4c6c91"/><path d="M 393.01 303.01 A 23.97 23.97 0 0 1  416.98 326.98 L 393.01 303.01 A 23.97 23.97 0 0 0 416.98 326.98" fill="#4b7882"/><path d="M 451.63 301.63 A 26.74 26.74 0 0 1  478.37 328.37 L 451.63 301.63 A 26.74 26.74 0 0 0 478.37 328.37" fill="#5b868f"/><path d="M 480.94 329.06 A 28.12 28.12 0 0 1  509.06 300.94 L 480.94 329.06 A 28.12 28.12 0 0 0 509.06 300.94" fill="#9aaeb8"/><path d="M 510.48 300.48 A 29.04 29.04 0 0 1  539.52 329.52000000000004 L 510.48 300.48 A 29.04 29.04 0 0 0 539.52 329.52000000000004" fill="#335f6a"/><path d="M 540.48 329.52000000000004 A 29.04 29.04 0 0 1  569.52 300.48 L 540.48 329.52000000000004 A 29.04 29.04 0 0 0 569.52 300.48" fill="#919bd8"/><rect x="570.48" y="300.48" width="29.04" height="29.04" fill="none"/><path d="M 570.48 300.48 A 14.52 14.52 0 0 1  585 315 L 570.48 300.48 A 14.52 14.52 0 0 0 585 315" fill="#78949e"/><path d="M 585 315 A 14.52 14.52 0 0 1  599.52 300.48 L 585 315 A 14.52 14.52 0 0 0 599.52 300.48" fill="#375e7c"/><path d="M 570.48 315 A 14.52 14.52 0 0 1  585 329.52 L 570.48 315 A 14.52 14.52 0 0 0 585 329.52" fill="#355c7a"/><path d="M 585 329.52 A 14.52 14.52 0 0 1  599.52 315 L 585 329.52 A 14.52 14.52 0 0 0 599.52 315" fill="#4a7781"/><path d="M 600.48 329.52000000000004 A 29.04 29.04 0 0 1  629.52 300.48 L 600.48 329.52000000000004 A 29.04 29.04 0 0 0 629.52 300.48" fill="#7c97a2"/><path d="M 630.48 329.52000000000004 A 29.04 29.04 0 0 1  659.52 300.48 L 630.48 329.52000000000004 A 29.04 29.04 0 0 0 659.52 300.48" fill="#c4cfd8"/><path d="M 660.48 329.52000000000004 A 29.04 29.04 0 0 1  689.52 300.48 L 660.48 329.52000000000004 A 29.04 29.04 0 0 0 689.52 300.48" fill="#d7dde6"/><path d="M 690.48 329.52000000000004 A 29.04 29.04 0 0 1  719.52 300.48 L 690.48 329.52000000000004 A 29.04 29.04 0 0 0 719.52 300.48" fill="#618b94"/><path d="M 720.94 329.06 A 28.12 28.12 0 0 1  749.0600000000001 300.94 L 720.94 329.06 A 28.12 28.12 0 0 0 749.0600000000001 300.94" fill="#4b7882"/><path d="M 751.63 301.63 A 26.74 26.74 0 0 1  778.37 328.37 L 751.63 301.63 A 26.74 26.74 0 0 0 778.37 328.37" fill="#3a6a74"/><rect x="782.3232" y="302.3232" width="25.353599999999997" height="25.353599999999997" fill="none"/><path d="M 782.32 302.32 A 12.68 12.68 0 0 1  795 315 L 782.32 302.32 A 12.68 12.68 0 0 0 795 315" fill="#56739c"/><path d="M 795 302.32 A 12.68 12.68 0 0 1  807.68 315 L 795 302.32 A 12.68 12.68 0 0 0 807.68 315" fill="#22525e"/><path d="M 795 327.68 A 12.68 12.68 0 0 1  807.68 315 L 795 327.68 A 12.68 12.68 0 0 0 807.68 315" fill="#cde7ec"/><path d="M 813.01 326.98 A 23.97 23.97 0 0 1  836.98 303.01 L 813.01 326.98 A 23.97 23.97 0 0 0 836.98 303.01" fill="#7a8bc0"/><rect x="843.7056" y="303.7056" width="22.5888" height="22.5888" fill="none"/><path d="M 843.71 315 A 11.29 11.29 0 0 1  855 303.71 L 843.71 315 A 11.29 11.29 0 0 0 855 303.71" fill="#a8aaee"/><path d="M 855 303.71 A 11.29 11.29 0 0 1  866.29 315 L 855 303.71 A 11.29 11.29 0 0 0 866.29 315" fill="#919bd8"/><path d="M 843.71 326.29 A 11.29 11.29 0 0 1  855 315 L 843.71 326.29 A 11.29 11.29 0 0 0 855 315" fill="#84a9b0"/><path d="M 855 315 A 11.29 11.29 0 0 1  866.29 326.29 L 855 315 A 11.29 11.29 0 0 0 866.29 326.29" fill="#a4a7ea"/><path d="M 874.4 325.60999999999996 A 21.21 21.21 0 0 1  895.61 304.4 L 874.4 325.60999999999996 A 21.21 21.21 0 0 0 895.61 304.4" fill="#687ead"/><path d="M 905.09 324.90999999999997 A 19.82 19.82 0 0 1  924.9100000000001 305.09 L 905.09 324.90999999999997 A 19.82 19.82 0 0 0 924.9100000000001 305.09" fill="#5f818c"/><path d="M 997.16 322.84000000000003 A 15.68 15.68 0 0 1  1012.8399999999999 307.16 L 997.16 322.84000000000003 A 15.68 15.68 0 0 0 1012.8399999999999 307.16" fill="#b9c6d0"/><path d="M 1058.54 321.45000000000005 A 12.91 12.91 0 0 1  1071.45 308.54 L 1058.54 321.45000000000005 A 12.91 12.91 0 0 0 1071.45 308.54" fill="#2a5c66"/><path d="M 1089.24 309.24 A 11.53 11.53 0 0 1  1100.77 320.77 L 1089.24 309.24 A 11.53 11.53 0 0 0 1100.77 320.77" fill="#3a6570"/><path d="M 275.52 354.47999999999996 A 18.96 18.96 0 0 1  294.47999999999996 335.52 L 275.52 354.47999999999996 A 18.96 18.96 0 0 0 294.47999999999996 335.52" fill="#6d8b96"/><rect x="304.8" y="334.8" width="20.4" height="20.4" fill="none"/><path d="M 304.8 345 A 10.2 10.2 0 0 1  315 334.8 L 304.8 345 A 10.2 10.2 0 0 0 315 334.8" fill="#82a7af"/><path d="M 304.8 345 A 10.2 10.2 0 0 1  315 355.2 L 304.8 345 A 10.2 10.2 0 0 0 315 355.2" fill="#506f96"/><path d="M 334.08 334.08 A 21.84 21.84 0 0 1  355.91999999999996 355.91999999999996 L 334.08 334.08 A 21.84 21.84 0 0 0 355.91999999999996 355.91999999999996" fill="#ccd5de"/><path d="M 392.64 332.64 A 24.72 24.72 0 0 1  417.36 357.36 L 392.64 332.64 A 24.72 24.72 0 0 0 417.36 357.36" fill="#739aa2"/><rect x="421.92" y="331.92" width="26.16" height="26.16" fill="none"/><path d="M 435 345 A 13.08 13.08 0 0 1  448.08 331.92 L 435 345 A 13.08 13.08 0 0 0 448.08 331.92" fill="#959ddc"/><path d="M 421.92 358.08 A 13.08 13.08 0 0 1  435 345 L 421.92 358.08 A 13.08 13.08 0 0 0 435 345" fill="#49698e"/><path d="M 435 358.08 A 13.08 13.08 0 0 1  448.08 345 L 435 358.08 A 13.08 13.08 0 0 0 448.08 345" fill="#cfd7e1"/><rect x="451.2" y="331.2" width="27.599999999999998" height="27.599999999999998" fill="none"/><path d="M 451.2 331.2 A 13.8 13.8 0 0 1  465 345 L 451.2 331.2 A 13.8 13.8 0 0 0 465 345" fill="#5e808b"/><path d="M 465 345 A 13.8 13.8 0 0 1  478.8 331.2 L 465 345 A 13.8 13.8 0 0 0 478.8 331.2" fill="#21515d"/><path d="M 451.2 358.8 A 13.8 13.8 0 0 1  465 345 L 451.2 358.8 A 13.8 13.8 0 0 0 465 345" fill="#7f8ec5"/><path d="M 465 345 A 13.8 13.8 0 0 1  478.8 358.8 L 465 345 A 13.8 13.8 0 0 0 478.8 358.8" fill="#275661"/><path d="M 480.48 330.48 A 29.04 29.04 0 0 1  509.52000000000004 359.52000000000004 L 480.48 330.48 A 29.04 29.04 0 0 0 509.52000000000004 359.52000000000004" fill="#7a96a0"/><rect x="510" y="330" width="30" height="30" fill="none"/><path d="M 510 330 A 15 15 0 0 1  525 345 L 510 330 A 15 15 0 0 0 525 345" fill="#7f99a4"/><path d="M 525 330 A 15 15 0 0 1  540 345 L 525 330 A 15 15 0 0 0 540 345" fill="#97b9c0"/><path d="M 510 360 A 15 15 0 0 1  525 345 L 510 360 A 15 15 0 0 0 525 345" fill="#b0ced4"/><path d="M 525 345 A 15 15 0 0 1  540 360 L 525 345 A 15 15 0 0 0 540 360" fill="#245068"/><path d="M 540 330 A 30 30 0 0 1  570 360 L 540 330 A 30 30 0 0 0 570 360" fill="#adadf3"/><path d="M 570 360 A 30 30 0 0 1  600 330 L 570 360 A 30 30 0 0 0 600 330" fill="#798abf"/><rect x="600" y="330" width="30" height="30" fill="none"/><path d="M 600 330 A 15 15 0 0 1  615 345 L 600 330 A 15 15 0 0 0 615 345" fill="#6e969e"/><path d="M 615 330 A 15 15 0 0 1  630 345 L 615 330 A 15 15 0 0 0 630 345" fill="#dcf4f8"/><path d="M 600 345 A 15 15 0 0 1  615 360 L 600 345 A 15 15 0 0 0 615 360" fill="#44727c"/><path d="M 615 360 A 15 15 0 0 1  630 345 L 615 360 A 15 15 0 0 0 630 345" fill="#aabac4"/><path d="M 630 360 A 30 30 0 0 1  660 330 L 630 360 A 30 30 0 0 0 660 330" fill="#b3b1f9"/><path d="M 660 360 A 30 30 0 0 1  690 330 L 660 360 A 30 30 0 0 0 690 330" fill="#8d98d4"/><path d="M 690 330 A 30 30 0 0 1  720 360 L 690 330 A 30 30 0 0 0 720 360" fill="#4b7882"/><rect x="720.48" y="330.48" width="29.04" height="29.04" fill="none"/><path d="M 720.48 330.48 A 14.52 14.52 0 0 1  735 345 L 720.48 330.48 A 14.52 14.52 0 0 0 735 345" fill="#5f78a4"/><path d="M 735 330.48 A 14.52 14.52 0 0 1  749.52 345 L 735 330.48 A 14.52 14.52 0 0 0 749.52 345" fill="#93a9b3"/><path d="M 720.48 345 A 14.52 14.52 0 0 1  735 359.52 L 720.48 345 A 14.52 14.52 0 0 0 735 359.52" fill="#d5dce5"/><path d="M 735 359.52 A 14.52 14.52 0 0 1  749.52 345 L 735 359.52 A 14.52 14.52 0 0 0 749.52 345" fill="#8895cf"/><path d="M 751.2 331.2 A 27.6 27.6 0 0 1  778.8000000000001 358.8 L 751.2 331.2 A 27.6 27.6 0 0 0 778.8000000000001 358.8" fill="#28536d"/><path d="M 781.92 331.92 A 26.16 26.16 0 0 1  808.0799999999999 358.08000000000004 L 781.92 331.92 A 26.16 26.16 0 0 0 808.0799999999999 358.08000000000004" fill="#3c6b75"/><path d="M 812.64 357.36 A 24.72 24.72 0 0 1  837.36 332.64 L 812.64 357.36 A 24.72 24.72 0 0 0 837.36 332.64" fill="#2e5773"/><path d="M 843.36 333.36 A 23.28 23.28 0 0 1  866.64 356.64 L 843.36 333.36 A 23.28 23.28 0 0 0 866.64 356.64" fill="#406974"/><path d="M 904.8 355.2 A 20.4 20.4 0 0 1  925.1999999999999 334.8 L 904.8 355.2 A 20.4 20.4 0 0 0 925.1999999999999 334.8" fill="#0e444f"/><rect x="966.24" y="336.24" width="17.519999999999996" height="17.519999999999996" fill="none"/><path d="M 966.24 345 A 8.76 8.76 0 0 1  975 336.24 L 966.24 345 A 8.76 8.76 0 0 0 975 336.24" fill="#a8aaef"/><path d="M 975 336.24 A 8.76 8.76 0 0 1  983.76 345 L 975 336.24 A 8.76 8.76 0 0 0 983.76 345" fill="#798abf"/><path d="M 975 345 A 8.76 8.76 0 0 1  983.76 353.76 L 975 345 A 8.76 8.76 0 0 0 983.76 353.76" fill="#3e6873"/><path d="M 996.96 353.03999999999996 A 16.08 16.08 0 0 1  1013.0400000000001 336.96 L 996.96 353.03999999999996 A 16.08 16.08 0 0 0 1013.0400000000001 336.96" fill="#3e6283"/><path d="M 1027.68 337.68 A 14.64 14.64 0 0 1  1042.3200000000002 352.32 L 1027.68 337.68 A 14.64 14.64 0 0 0 1042.3200000000002 352.32" fill="#8492cb"/><path d="M 1058.4 338.4 A 13.2 13.2 0 0 1  1071.6000000000001 351.59999999999997 L 1058.4 338.4 A 13.2 13.2 0 0 0 1071.6000000000001 351.59999999999997" fill="#55818a"/><path d="M 1119.84 339.84 A 10.32 10.32 0 0 1  1130.1599999999999 350.15999999999997 L 1119.84 339.84 A 10.32 10.32 0 0 0 1130.1599999999999 350.15999999999997" fill="#a8c8ce"/><path d="M 1181.28 348.71999999999997 A 7.44 7.44 0 0 1  1188.72 341.28 L 1181.28 348.71999999999997 A 7.44 7.44 0 0 0 1188.72 341.28" fill="#1a4c58"/><path d="M 99.84 380.15999999999997 A 10.32 10.32 0 0 1  110.16 369.84 L 99.84 380.15999999999997 A 10.32 10.32 0 0 0 110.16 369.84" fill="#a6b7c1"/><path d="M 129.12 380.88 A 11.76 11.76 0 0 1  140.88 369.12 L 129.12 380.88 A 11.76 11.76 0 0 0 140.88 369.12" fill="#1c4e59"/><path d="M 187.68 367.68 A 14.64 14.64 0 0 1  202.32 382.32 L 187.68 367.68 A 14.64 14.64 0 0 0 202.32 382.32" fill="#285762"/><rect x="246.24" y="366.24" width="17.519999999999996" height="17.519999999999996" fill="none"/><path d="M 246.24 383.76 A 8.76 8.76 0 0 1  255 375 L 246.24 383.76 A 8.76 8.76 0 0 0 255 375" fill="#989fdf"/><path d="M 275.52 365.52 A 18.96 18.96 0 0 1  294.47999999999996 384.47999999999996 L 275.52 365.52 A 18.96 18.96 0 0 0 294.47999999999996 384.47999999999996" fill="#416a75"/><path d="M 304.8 385.2 A 20.4 20.4 0 0 1  325.2 364.8 L 304.8 385.2 A 20.4 20.4 0 0 0 325.2 364.8" fill="#34656f"/><path d="M 363.36 363.36 A 23.28 23.28 0 0 1  386.64 386.64 L 363.36 363.36 A 23.28 23.28 0 0 0 386.64 386.64" fill="#b4d2d8"/><path d="M 451.2 388.8 A 27.6 27.6 0 0 1  478.8 361.2 L 451.2 388.8 A 27.6 27.6 0 0 0 478.8 361.2" fill="#87a0aa"/><rect x="480.48" y="360.48" width="29.04" height="29.04" fill="none"/><path d="M 480.48 360.48 A 14.52 14.52 0 0 1  495 375 L 480.48 360.48 A 14.52 14.52 0 0 0 495 375" fill="#5f818c"/><path d="M 495 375 A 14.52 14.52 0 0 1  509.52 360.48 L 495 375 A 14.52 14.52 0 0 0 509.52 360.48" fill="#093e4d"/><path d="M 480.48 375 A 14.52 14.52 0 0 1  495 389.52 L 480.48 375 A 14.52 14.52 0 0 0 495 389.52" fill="#86abb2"/><path d="M 495 389.52 A 14.52 14.52 0 0 1  509.52 375 L 495 389.52 A 14.52 14.52 0 0 0 509.52 375" fill="#869fa9"/><path d="M 510 390 A 30 30 0 0 1  540 360 L 510 390 A 30 30 0 0 0 540 360" fill="#8b96d1"/><rect x="540" y="360" width="30" height="30" fill="none"/><path d="M 540 360 A 15 15 0 0 1  555 375 L 540 360 A 15 15 0 0 0 555 375" fill="#516f96"/><path d="M 555 375 A 15 15 0 0 1  570 360 L 555 375 A 15 15 0 0 0 570 360" fill="#506e95"/><path d="M 540 390 A 15 15 0 0 1  555 375 L 540 390 A 15 15 0 0 0 555 375" fill="#497780"/><path d="M 555 375 A 15 15 0 0 1  570 390 L 555 375 A 15 15 0 0 0 570 390" fill="#779da5"/><path d="M 570 390 A 30 30 0 0 1  600 360 L 570 390 A 30 30 0 0 0 600 360" fill="#ecedf6"/><path d="M 600 390 A 30 30 0 0 1  630 360 L 600 390 A 30 30 0 0 0 630 360" fill="#0e4252"/><rect x="630" y="360" width="30" height="30" fill="none"/><path d="M 630 360 A 15 15 0 0 1  645 375 L 630 360 A 15 15 0 0 0 645 375" fill="#9da3e4"/><path d="M 645 360 A 15 15 0 0 1  660 375 L 645 360 A 15 15 0 0 0 660 375" fill="#6b949c"/><path d="M 630 375 A 15 15 0 0 1  645 390 L 630 375 A 15 15 0 0 0 645 390" fill="#cae5ea"/><path d="M 645 375 A 15 15 0 0 1  660 390 L 645 375 A 15 15 0 0 0 660 390" fill="#4d6c92"/><rect x="660" y="360" width="30" height="30" fill="none"/><path d="M 660 360 A 15 15 0 0 1  675 375 L 660 360 A 15 15 0 0 0 675 375" fill="#57739c"/><path d="M 675 375 A 15 15 0 0 1  690 360 L 675 375 A 15 15 0 0 0 690 360" fill="#557984"/><path d="M 660 375 A 15 15 0 0 1  675 390 L 660 375 A 15 15 0 0 0 675 390" fill="#164954"/><path d="M 675 390 A 15 15 0 0 1  690 375 L 675 390 A 15 15 0 0 0 690 375" fill="#26526b"/><path d="M 690 360 A 30 30 0 0 1  720 390 L 690 360 A 30 30 0 0 0 720 390" fill="#134557"/><path d="M 720.48 360.48 A 29.04 29.04 0 0 1  749.52 389.52000000000004 L 720.48 360.48 A 29.04 29.04 0 0 0 749.52 389.52000000000004" fill="#798abf"/><rect x="751.2" y="361.2" width="27.599999999999998" height="27.599999999999998" fill="none"/><path d="M 751.2 375 A 13.8 13.8 0 0 1  765 361.2 L 751.2 375 A 13.8 13.8 0 0 0 765 361.2" fill="#1f4d64"/><path d="M 751.2 388.8 A 13.8 13.8 0 0 1  765 375 L 751.2 388.8 A 13.8 13.8 0 0 0 765 375" fill="#45737d"/><path d="M 781.92 361.92 A 26.16 26.16 0 0 1  808.0799999999999 388.08000000000004 L 781.92 361.92 A 26.16 26.16 0 0 0 808.0799999999999 388.08000000000004" fill="#919bd8"/><path d="M 812.64 387.36 A 24.72 24.72 0 0 1  837.36 362.64 L 812.64 387.36 A 24.72 24.72 0 0 0 837.36 362.64" fill="#a3b5bf"/><rect x="843.36" y="363.36" width="23.279999999999998" height="23.279999999999998" fill="none"/><path d="M 843.36 363.36 A 11.64 11.64 0 0 1  855 375 L 843.36 363.36 A 11.64 11.64 0 0 0 855 375" fill="#c7d1db"/><path d="M 843.36 375 A 11.64 11.64 0 0 1  855 386.64 L 843.36 375 A 11.64 11.64 0 0 0 855 386.64" fill="#989fde"/><path d="M 855 375 A 11.64 11.64 0 0 1  866.64 386.64 L 855 375 A 11.64 11.64 0 0 0 866.64 386.64" fill="#c7e2e7"/><rect x="935.52" y="365.52" width="18.96" height="18.96" fill="none"/><path d="M 935.52 375 A 9.48 9.48 0 0 1  945 365.52 L 935.52 375 A 9.48 9.48 0 0 0 945 365.52" fill="#6f83b5"/><path d="M 945 384.48 A 9.48 9.48 0 0 1  954.48 375 L 945 384.48 A 9.48 9.48 0 0 0 954.48 375" fill="#7da3aa"/><path d="M 966.24 366.24 A 17.52 17.52 0 0 1  983.76 383.76 L 966.24 366.24 A 17.52 17.52 0 0 0 983.76 383.76" fill="#acadf3"/><path d="M 996.96 366.96 A 16.08 16.08 0 0 1  1013.0400000000001 383.03999999999996 L 996.96 366.96 A 16.08 16.08 0 0 0 1013.0400000000001 383.03999999999996" fill="#255460"/><path d="M 1027.68 382.32 A 14.64 14.64 0 0 1  1042.3200000000002 367.68 L 1027.68 382.32 A 14.64 14.64 0 0 0 1042.3200000000002 367.68" fill="#466e79"/><rect x="1058.4" y="368.4" width="13.2" height="13.2" fill="none"/><path d="M 1058.4 375 A 6.6 6.6 0 0 1  1065 381.6 L 1058.4 375 A 6.6 6.6 0 0 0 1065 381.6" fill="#809aa4"/><path d="M 1065 381.6 A 6.6 6.6 0 0 1  1071.6 375 L 1065 381.6 A 6.6 6.6 0 0 0 1071.6 375" fill="#0a404c"/><rect x="99.84" y="399.84" width="10.319999999999997" height="10.319999999999997" fill="none"/><path d="M 129.12 410.88 A 11.76 11.76 0 0 1  140.88 399.12 L 129.12 410.88 A 11.76 11.76 0 0 0 140.88 399.12" fill="#dff7fb"/><path d="M 158.4 398.4 A 13.2 13.2 0 0 1  171.6 411.59999999999997 L 158.4 398.4 A 13.2 13.2 0 0 0 171.6 411.59999999999997" fill="#1b4f5a"/><path d="M 216.96 396.96 A 16.08 16.08 0 0 1  233.04000000000002 413.03999999999996 L 216.96 396.96 A 16.08 16.08 0 0 0 233.04000000000002 413.03999999999996" fill="#5e78a4"/><rect x="304.8" y="394.8" width="20.4" height="20.4" fill="none"/><path d="M 315 405 A 10.2 10.2 0 0 1  325.2 394.8 L 315 405 A 10.2 10.2 0 0 0 325.2 394.8" fill="#718f99"/><path d="M 315 405 A 10.2 10.2 0 0 1  325.2 415.2 L 315 405 A 10.2 10.2 0 0 0 325.2 415.2" fill="#a2b4be"/><rect x="334.08" y="394.08" width="21.84" height="21.84" fill="none"/><path d="M 334.08 394.08 A 10.92 10.92 0 0 1  345 405 L 334.08 394.08 A 10.92 10.92 0 0 0 345 405" fill="#a3c3ca"/><path d="M 345 405 A 10.92 10.92 0 0 1  355.92 394.08 L 345 405 A 10.92 10.92 0 0 0 355.92 394.08" fill="#4e747f"/><path d="M 334.08 415.92 A 10.92 10.92 0 0 1  345 405 L 334.08 415.92 A 10.92 10.92 0 0 0 345 405" fill="#c7e3e8"/><path d="M 345 415.92 A 10.92 10.92 0 0 1  355.92 405 L 345 415.92 A 10.92 10.92 0 0 0 355.92 405" fill="#96abb5"/><path d="M 363.36 416.64 A 23.28 23.28 0 0 1  386.64 393.36 L 363.36 416.64 A 23.28 23.28 0 0 0 386.64 393.36" fill="#7688bc"/><path d="M 392.64 417.36 A 24.72 24.72 0 0 1  417.36 392.64 L 392.64 417.36 A 24.72 24.72 0 0 0 417.36 392.64" fill="#dff7fb"/><path d="M 421.92 418.08000000000004 A 26.16 26.16 0 0 1  448.08000000000004 391.92 L 421.92 418.08000000000004 A 26.16 26.16 0 0 0 448.08000000000004 391.92" fill="#8da4ae"/><path d="M 451.2 391.2 A 27.6 27.6 0 0 1  478.8 418.8 L 451.2 391.2 A 27.6 27.6 0 0 0 478.8 418.8" fill="#86abb2"/><rect x="480.48" y="390.48" width="29.04" height="29.04" fill="none"/><path d="M 480.48 390.48 A 14.52 14.52 0 0 1  495 405 L 480.48 390.48 A 14.52 14.52 0 0 0 495 405" fill="#92a8b3"/><path d="M 495 390.48 A 14.52 14.52 0 0 1  509.52 405 L 495 390.48 A 14.52 14.52 0 0 0 509.52 405" fill="#a9aaef"/><path d="M 495 419.52 A 14.52 14.52 0 0 1  509.52 405 L 495 419.52 A 14.52 14.52 0 0 0 509.52 405" fill="#d9dfe8"/><path d="M 510 390 A 30 30 0 0 1  540 420 L 510 390 A 30 30 0 0 0 540 420" fill="#aeaef4"/><path d="M 540 420 A 30 30 0 0 1  570 390 L 540 420 A 30 30 0 0 0 570 390" fill="#134557"/><path d="M 570 420 A 30 30 0 0 1  600 390 L 570 420 A 30 30 0 0 0 600 390" fill="#a3b5bf"/><rect x="600" y="390" width="30" height="30" fill="none"/><path d="M 600 405 A 15 15 0 0 1  615 390 L 600 405 A 15 15 0 0 0 615 390" fill="#0d4151"/><path d="M 615 405 A 15 15 0 0 1  630 390 L 615 405 A 15 15 0 0 0 630 390" fill="#5f818c"/><path d="M 600 420 A 15 15 0 0 1  615 405 L 600 420 A 15 15 0 0 0 615 405" fill="#48698e"/><path d="M 615 405 A 15 15 0 0 1  630 420 L 615 405 A 15 15 0 0 0 630 420" fill="#63848f"/><rect x="630" y="390" width="30" height="30" fill="none"/><path d="M 630 405 A 15 15 0 0 1  645 390 L 630 405 A 15 15 0 0 0 645 390" fill="#d1d8e2"/><path d="M 645 390 A 15 15 0 0 1  660 405 L 645 390 A 15 15 0 0 0 660 405" fill="#1e525d"/><path d="M 630 420 A 15 15 0 0 1  645 405 L 630 420 A 15 15 0 0 0 645 405" fill="#a3c3ca"/><path d="M 645 405 A 15 15 0 0 1  660 420 L 645 405 A 15 15 0 0 0 660 420" fill="#9fa4e5"/><rect x="660" y="390" width="30" height="30" fill="none"/><path d="M 660 390 A 15 15 0 0 1  675 405 L 660 390 A 15 15 0 0 0 675 405" fill="#275964"/><path d="M 675 390 A 15 15 0 0 1  690 405 L 675 390 A 15 15 0 0 0 690 405" fill="#7e98a3"/><path d="M 660 405 A 15 15 0 0 1  675 420 L 660 405 A 15 15 0 0 0 675 420" fill="#d7f0f5"/><path d="M 675 420 A 15 15 0 0 1  690 405 L 675 420 A 15 15 0 0 0 690 405" fill="#7b8cc1"/><path d="M 690 390 A 30 30 0 0 1  720 420 L 690 390 A 30 30 0 0 0 720 420" fill="#81a6ae"/><path d="M 720.48 419.52000000000004 A 29.04 29.04 0 0 1  749.52 390.48 L 720.48 419.52000000000004 A 29.04 29.04 0 0 0 749.52 390.48" fill="#5d7f8a"/><path d="M 751.2 391.2 A 27.6 27.6 0 0 1  778.8000000000001 418.8 L 751.2 391.2 A 27.6 27.6 0 0 0 778.8000000000001 418.8" fill="#567a85"/><path d="M 781.92 391.92 A 26.16 26.16 0 0 1  808.0799999999999 418.08000000000004 L 781.92 391.92 A 26.16 26.16 0 0 0 808.0799999999999 418.08000000000004" fill="#647caa"/><path d="M 812.64 417.36 A 24.72 24.72 0 0 1  837.36 392.64 L 812.64 417.36 A 24.72 24.72 0 0 0 837.36 392.64" fill="#bdd9df"/><path d="M 843.36 416.64 A 23.28 23.28 0 0 1  866.64 393.36 L 843.36 416.64 A 23.28 23.28 0 0 0 866.64 393.36" fill="#19495e"/><path d="M 904.8 394.8 A 20.4 20.4 0 0 1  925.1999999999999 415.2 L 904.8 394.8 A 20.4 20.4 0 0 0 925.1999999999999 415.2" fill="#033a47"/><path d="M 935.52 414.47999999999996 A 18.96 18.96 0 0 1  954.48 395.52 L 935.52 414.47999999999996 A 18.96 18.96 0 0 0 954.48 395.52" fill="#9cbdc4"/><path d="M 996.96 413.03999999999996 A 16.08 16.08 0 0 1  1013.0400000000001 396.96 L 996.96 413.03999999999996 A 16.08 16.08 0 0 0 1013.0400000000001 396.96" fill="#80a5ad"/><path d="M 1058.4 411.59999999999997 A 13.2 13.2 0 0 1  1071.6000000000001 398.4 L 1058.4 411.59999999999997 A 13.2 13.2 0 0 0 1071.6000000000001 398.4" fill="#bad7dc"/><path d="M 1119.84 410.15999999999997 A 10.32 10.32 0 0 1  1130.1599999999999 399.84 L 1119.84 410.15999999999997 A 10.32 10.32 0 0 0 1130.1599999999999 399.84" fill="#d7dde6"/><path d="M 1150.56 400.56 A 8.88 8.88 0 0 1  1159.44 409.44 L 1150.56 400.56 A 8.88 8.88 0 0 0 1159.44 409.44" fill="#3f6e77"/><path d="M 246.24 426.24 A 17.52 17.52 0 0 1  263.76 443.76 L 246.24 426.24 A 17.52 17.52 0 0 0 263.76 443.76" fill="#949dda"/><rect x="275.52" y="425.52" width="18.96" height="18.96" fill="none"/><path d="M 275.52 435 A 9.48 9.48 0 0 1  285 425.52 L 275.52 435 A 9.48 9.48 0 0 0 285 425.52" fill="#0f434f"/><path d="M 285 444.48 A 9.48 9.48 0 0 1  294.48 435 L 285 444.48 A 9.48 9.48 0 0 0 294.48 435" fill="#013945"/><path d="M 304.8 424.8 A 20.4 20.4 0 0 1  325.2 445.2 L 304.8 424.8 A 20.4 20.4 0 0 0 325.2 445.2" fill="#b2d1d6"/><path d="M 363.36 423.36 A 23.28 23.28 0 0 1  386.64 446.64 L 363.36 423.36 A 23.28 23.28 0 0 0 386.64 446.64" fill="#0e434f"/><path d="M 421.92 448.08000000000004 A 26.16 26.16 0 0 1  448.08000000000004 421.92 L 421.92 448.08000000000004 A 26.16 26.16 0 0 0 448.08000000000004 421.92" fill="#275964"/><rect x="451.2" y="421.2" width="27.599999999999998" height="27.599999999999998" fill="none"/><path d="M 451.2 435 A 13.8 13.8 0 0 1  465 421.2 L 451.2 435 A 13.8 13.8 0 0 0 465 421.2" fill="#42717a"/><path d="M 465 435 A 13.8 13.8 0 0 1  478.8 421.2 L 465 435 A 13.8 13.8 0 0 0 478.8 421.2" fill="#799fa7"/><path d="M 465 448.8 A 13.8 13.8 0 0 1  478.8 435 L 465 448.8 A 13.8 13.8 0 0 0 478.8 435" fill="#cce6eb"/><path d="M 480.48 449.52000000000004 A 29.04 29.04 0 0 1  509.52000000000004 420.48 L 480.48 449.52000000000004 A 29.04 29.04 0 0 0 509.52000000000004 420.48" fill="#c7d1da"/><path d="M 510 420 A 30 30 0 0 1  540 450 L 510 420 A 30 30 0 0 0 540 450" fill="#1c505b"/><path d="M 540 450 A 30 30 0 0 1  570 420 L 540 450 A 30 30 0 0 0 570 420" fill="#7487ba"/><path d="M 570 420 A 30 30 0 0 1  600 450 L 570 420 A 30 30 0 0 0 600 450" fill="#104354"/><path d="M 600 450 A 30 30 0 0 1  630 420 L 600 450 A 30 30 0 0 0 630 420" fill="#436588"/><path d="M 630 420 A 30 30 0 0 1  660 450 L 630 420 A 30 30 0 0 0 660 450" fill="#eaecf5"/><path d="M 660 420 A 30 30 0 0 1  690 450 L 660 420 A 30 30 0 0 0 690 450" fill="#b8b5ff"/><path d="M 690 420 A 30 30 0 0 1  720 450 L 690 420 A 30 30 0 0 0 720 450" fill="#537883"/><path d="M 720.48 420.48 A 29.04 29.04 0 0 1  749.52 449.52000000000004 L 720.48 420.48 A 29.04 29.04 0 0 0 749.52 449.52000000000004" fill="#1f535e"/><path d="M 751.2 421.2 A 27.6 27.6 0 0 1  778.8000000000001 448.8 L 751.2 421.2 A 27.6 27.6 0 0 0 778.8000000000001 448.8" fill="#82a7af"/><rect x="781.92" y="421.92" width="26.16" height="26.16" fill="none"/><path d="M 781.92 435 A 13.08 13.08 0 0 1  795 421.92 L 781.92 435 A 13.08 13.08 0 0 0 795 421.92" fill="#a3a7ea"/><path d="M 795 421.92 A 13.08 13.08 0 0 1  808.08 435 L 795 421.92 A 13.08 13.08 0 0 0 808.08 435" fill="#0b424d"/><path d="M 795 435 A 13.08 13.08 0 0 1  808.08 448.08 L 795 435 A 13.08 13.08 0 0 0 808.08 448.08" fill="#edeef7"/><rect x="843.36" y="423.36" width="23.279999999999998" height="23.279999999999998" fill="none"/><path d="M 843.36 423.36 A 11.64 11.64 0 0 1  855 435 L 843.36 423.36 A 11.64 11.64 0 0 0 855 435" fill="#b4b2fb"/><path d="M 855 423.36 A 11.64 11.64 0 0 1  866.64 435 L 855 423.36 A 11.64 11.64 0 0 0 866.64 435" fill="#a6a9ec"/><path d="M 843.36 435 A 11.64 11.64 0 0 1  855 446.64 L 843.36 435 A 11.64 11.64 0 0 0 855 446.64" fill="#476e79"/><path d="M 855 446.64 A 11.64 11.64 0 0 1  866.64 435 L 855 446.64 A 11.64 11.64 0 0 0 866.64 435" fill="#365d7b"/><path d="M 874.08 445.91999999999996 A 21.84 21.84 0 0 1  895.9200000000001 424.08 L 874.08 445.91999999999996 A 21.84 21.84 0 0 0 895.9200000000001 424.08" fill="#949cda"/><rect x="904.8" y="424.8" width="20.4" height="20.4" fill="none"/><path d="M 904.8 435 A 10.2 10.2 0 0 1  915 424.8 L 904.8 435 A 10.2 10.2 0 0 0 915 424.8" fill="#c5e1e6"/><path d="M 915 424.8 A 10.2 10.2 0 0 1  925.2 435 L 915 424.8 A 10.2 10.2 0 0 0 925.2 435" fill="#829ca6"/><path d="M 904.8 435 A 10.2 10.2 0 0 1  915 445.2 L 904.8 435 A 10.2 10.2 0 0 0 915 445.2" fill="none"/><path d="M 996.96 426.96 A 16.08 16.08 0 0 1  1013.0400000000001 443.03999999999996 L 996.96 426.96 A 16.08 16.08 0 0 0 1013.0400000000001 443.03999999999996" fill="#72909a"/><rect x="129.2352" y="459.2352" width="11.529599999999999" height="11.529599999999999" fill="none"/><path d="M 129.24 459.24 A 5.76 5.76 0 0 1  135 465 L 129.24 459.24 A 5.76 5.76 0 0 0 135 465" fill="#4b727d"/><rect x="187.8528" y="457.8528" width="14.294400000000001" height="14.294400000000001" fill="none"/><path d="M 195 465 A 7.15 7.15 0 0 1  202.15 457.85 L 195 465 A 7.15 7.15 0 0 0 202.15 457.85" fill="#547883"/><path d="M 217.16 472.84000000000003 A 15.68 15.68 0 0 1  232.84 457.16 L 217.16 472.84000000000003 A 15.68 15.68 0 0 0 232.84 457.16" fill="#164b56"/><path d="M 246.47 456.47 A 17.06 17.06 0 0 1  263.53 473.53000000000003 L 246.47 456.47 A 17.06 17.06 0 0 0 263.53 473.53000000000003" fill="#2b5d67"/><path d="M 275.78 455.78 A 18.44 18.44 0 0 1  294.21999999999997 474.21999999999997 L 275.78 455.78 A 18.44 18.44 0 0 0 294.21999999999997 474.21999999999997" fill="#c8d2db"/><rect x="363.7056" y="453.7056" width="22.5888" height="22.5888" fill="none"/><path d="M 375 453.71 A 11.29 11.29 0 0 1  386.29 465 L 375 453.71 A 11.29 11.29 0 0 0 386.29 465" fill="#44727c"/><path d="M 375 476.29 A 11.29 11.29 0 0 1  386.29 465 L 375 476.29 A 11.29 11.29 0 0 0 386.29 465" fill="#75919c"/><path d="M 422.32 452.32 A 25.35 25.35 0 0 1  447.67 477.67 L 422.32 452.32 A 25.35 25.35 0 0 0 447.67 477.67" fill="#75929c"/><path d="M 451.63 478.37 A 26.74 26.74 0 0 1  478.37 451.63 L 451.63 478.37 A 26.74 26.74 0 0 0 478.37 451.63" fill="#0b414d"/><path d="M 480.94 479.06 A 28.12 28.12 0 0 1  509.06 450.94 L 480.94 479.06 A 28.12 28.12 0 0 0 509.06 450.94" fill="#759ca4"/><path d="M 510.48 479.52000000000004 A 29.04 29.04 0 0 1  539.52 450.48 L 510.48 479.52000000000004 A 29.04 29.04 0 0 0 539.52 450.48" fill="#bbd8dd"/><path d="M 540.48 479.52000000000004 A 29.04 29.04 0 0 1  569.52 450.48 L 540.48 479.52000000000004 A 29.04 29.04 0 0 0 569.52 450.48" fill="#547984"/><rect x="570.48" y="450.48" width="29.04" height="29.04" fill="none"/><path d="M 570.48 450.48 A 14.52 14.52 0 0 1  585 465 L 570.48 450.48 A 14.52 14.52 0 0 0 585 465" fill="#a5b7c0"/><path d="M 570.48 479.52 A 14.52 14.52 0 0 1  585 465 L 570.48 479.52 A 14.52 14.52 0 0 0 585 465" fill="#19495d"/><path d="M 585 465 A 14.52 14.52 0 0 1  599.52 479.52 L 585 465 A 14.52 14.52 0 0 0 599.52 479.52" fill="#22525e"/><path d="M 600.48 450.48 A 29.04 29.04 0 0 1  629.52 479.52000000000004 L 600.48 450.48 A 29.04 29.04 0 0 0 629.52 479.52000000000004" fill="#7aa1a8"/><path d="M 630.48 479.52000000000004 A 29.04 29.04 0 0 1  659.52 450.48 L 630.48 479.52000000000004 A 29.04 29.04 0 0 0 659.52 450.48" fill="#6b8a95"/><rect x="660.48" y="450.48" width="29.04" height="29.04" fill="none"/><path d="M 660.48 465 A 14.52 14.52 0 0 1  675 450.48 L 660.48 465 A 14.52 14.52 0 0 0 675 450.48" fill="#b1b0f8"/><path d="M 660.48 465 A 14.52 14.52 0 0 1  675 479.52 L 660.48 465 A 14.52 14.52 0 0 0 675 479.52" fill="#9eb2bc"/><path d="M 675 465 A 14.52 14.52 0 0 1  689.52 479.52 L 675 465 A 14.52 14.52 0 0 0 689.52 479.52" fill="#4a6a8f"/><path d="M 690.48 450.48 A 29.04 29.04 0 0 1  719.52 479.52000000000004 L 690.48 450.48 A 29.04 29.04 0 0 0 719.52 479.52000000000004" fill="#3c6181"/><path d="M 720.94 479.06 A 28.12 28.12 0 0 1  749.0600000000001 450.94 L 720.94 479.06 A 28.12 28.12 0 0 0 749.0600000000001 450.94" fill="#3d6c76"/><path d="M 751.63 451.63 A 26.74 26.74 0 0 1  778.37 478.37 L 751.63 451.63 A 26.74 26.74 0 0 0 778.37 478.37" fill="#517681"/><path d="M 782.32 452.32 A 25.35 25.35 0 0 1  807.6700000000001 477.67 L 782.32 452.32 A 25.35 25.35 0 0 0 807.6700000000001 477.67" fill="#09404b"/><rect x="813.0144" y="453.0144" width="23.971200000000003" height="23.971200000000003" fill="none"/><path d="M 813.01 465 A 11.99 11.99 0 0 1  825 453.01 L 813.01 465 A 11.99 11.99 0 0 0 825 453.01" fill="#0b404c"/><path d="M 813.01 465 A 11.99 11.99 0 0 1  825 476.99 L 813.01 465 A 11.99 11.99 0 0 0 825 476.99" fill="#27526b"/><path d="M 825 476.99 A 11.99 11.99 0 0 1  836.99 465 L 825 476.99 A 11.99 11.99 0 0 0 836.99 465" fill="#6e8d97"/><path d="M 843.71 476.29999999999995 A 22.59 22.59 0 0 1  866.3000000000001 453.71 L 843.71 476.29999999999995 A 22.59 22.59 0 0 0 866.3000000000001 453.71" fill="#7c97a2"/><path d="M 905.09 474.90999999999997 A 19.82 19.82 0 0 1  924.9100000000001 455.09 L 905.09 474.90999999999997 A 19.82 19.82 0 0 0 924.9100000000001 455.09" fill="#a5b7c1"/><path d="M 935.78 455.78 A 18.44 18.44 0 0 1  954.22 474.21999999999997 L 935.78 455.78 A 18.44 18.44 0 0 0 954.22 474.21999999999997" fill="#829ca6"/><path d="M 966.47 473.53000000000003 A 17.06 17.06 0 0 1  983.53 456.47 L 966.47 473.53000000000003 A 17.06 17.06 0 0 0 983.53 456.47" fill="#577b86"/><rect x="1089.2352" y="459.2352" width="11.529599999999999" height="11.529599999999999" fill="none"/><path d="M 1095 459.24 A 5.76 5.76 0 0 1  1100.76 465 L 1095 459.24 A 5.76 5.76 0 0 0 1100.76 465" fill="#7c8cc2"/><path d="M 1095 470.76 A 5.76 5.76 0 0 1  1100.76 465 L 1095 470.76 A 5.76 5.76 0 0 0 1100.76 465" fill="#255169"/><rect x="1119.9264" y="459.9264" width="10.147199999999998" height="10.147199999999998" fill="none"/><path d="M 1119.93 470.07 A 5.07 5.07 0 0 1  1125 465 L 1119.93 470.07 A 5.07 5.07 0 0 0 1125 465" fill="#acadf2"/><rect x="217.64544" y="487.64544" width="14.70912" height="14.70912" fill="none"/><path d="M 217.65 495 A 7.35 7.35 0 0 1  225 487.65 L 217.65 495 A 7.35 7.35 0 0 0 225 487.65" fill="#5f8992"/><path d="M 217.65 495 A 7.35 7.35 0 0 1  225 502.35 L 217.65 495 A 7.35 7.35 0 0 0 225 502.35" fill="#8391c9"/><path d="M 276.4 486.4 A 17.2 17.2 0 0 1  293.59999999999997 503.59999999999997 L 276.4 486.4 A 17.2 17.2 0 0 0 293.59999999999997 503.59999999999997" fill="#e0f7fc"/><rect x="305.7792" y="485.7792" width="18.4416" height="18.4416" fill="none"/><path d="M 305.78 504.22 A 9.22 9.22 0 0 1  315 495 L 305.78 504.22 A 9.22 9.22 0 0 0 315 495" fill="#a5a8ec"/><path d="M 315 504.22 A 9.22 9.22 0 0 1  324.22 495 L 315 504.22 A 9.22 9.22 0 0 0 324.22 495" fill="#5a858e"/><path d="M 335.16 504.85 A 19.69 19.69 0 0 1  354.85 485.16 L 335.16 504.85 A 19.69 19.69 0 0 0 354.85 485.16" fill="#134557"/><path d="M 364.54 505.47 A 20.93 20.93 0 0 1  385.47 484.54 L 364.54 505.47 A 20.93 20.93 0 0 0 385.47 484.54" fill="#8ca3ae"/><path d="M 393.91 483.91 A 22.17 22.17 0 0 1  416.08000000000004 506.08000000000004 L 393.91 483.91 A 22.17 22.17 0 0 0 416.08000000000004 506.08000000000004" fill="#dce1ea"/><rect x="452.6688" y="482.6688" width="24.662399999999998" height="24.662399999999998" fill="none"/><path d="M 452.67 482.67 A 12.33 12.33 0 0 1  465 495 L 452.67 482.67 A 12.33 12.33 0 0 0 465 495" fill="#bcc8d2"/><path d="M 465 482.67 A 12.33 12.33 0 0 1  477.33 495 L 465 482.67 A 12.33 12.33 0 0 0 477.33 495" fill="#85aab1"/><path d="M 452.67 507.33 A 12.33 12.33 0 0 1  465 495 L 452.67 507.33 A 12.33 12.33 0 0 0 465 495" fill="#396973"/><rect x="482.04672" y="482.04672" width="25.90656" height="25.90656" fill="none"/><path d="M 482.05 482.05 A 12.95 12.95 0 0 1  495 495 L 482.05 482.05 A 12.95 12.95 0 0 0 495 495" fill="#0a3f4e"/><path d="M 482.05 507.95 A 12.95 12.95 0 0 1  495 495 L 482.05 507.95 A 12.95 12.95 0 0 0 495 495" fill="#184c57"/><path d="M 511.63 481.63 A 26.74 26.74 0 0 1  538.37 508.37 L 511.63 481.63 A 26.74 26.74 0 0 0 538.37 508.37" fill="#c7d1db"/><path d="M 541.63 508.37 A 26.74 26.74 0 0 1  568.37 481.63 L 541.63 508.37 A 26.74 26.74 0 0 0 568.37 481.63" fill="#b4d2d8"/><rect x="571.632" y="481.632" width="26.735999999999997" height="26.735999999999997" fill="none"/><path d="M 585 495 A 13.37 13.37 0 0 1  598.37 481.63 L 585 495 A 13.37 13.37 0 0 0 598.37 481.63" fill="#adaef4"/><path d="M 571.63 495 A 13.37 13.37 0 0 1  585 508.37 L 571.63 495 A 13.37 13.37 0 0 0 585 508.37" fill="#daf2f6"/><path d="M 585 495 A 13.37 13.37 0 0 1  598.37 508.37 L 585 495 A 13.37 13.37 0 0 0 598.37 508.37" fill="#b7c5ce"/><path d="M 601.63 508.37 A 26.74 26.74 0 0 1  628.37 481.63 L 601.63 508.37 A 26.74 26.74 0 0 0 628.37 481.63" fill="#9aafb9"/><path d="M 631.63 481.63 A 26.74 26.74 0 0 1  658.37 508.37 L 631.63 481.63 A 26.74 26.74 0 0 0 658.37 508.37" fill="#8ea5af"/><rect x="661.632" y="481.632" width="26.735999999999997" height="26.735999999999997" fill="none"/><path d="M 675 495 A 13.37 13.37 0 0 1  688.37 481.63 L 675 495 A 13.37 13.37 0 0 0 688.37 481.63" fill="#053b49"/><path d="M 661.63 508.37 A 13.37 13.37 0 0 1  675 495 L 661.63 508.37 A 13.37 13.37 0 0 0 675 495" fill="#73909b"/><path d="M 675 508.37 A 13.37 13.37 0 0 1  688.37 495 L 675 508.37 A 13.37 13.37 0 0 0 688.37 495" fill="#679099"/><path d="M 691.63 508.37 A 26.74 26.74 0 0 1  718.37 481.63 L 691.63 508.37 A 26.74 26.74 0 0 0 718.37 481.63" fill="#7e99a3"/><rect x="722.04672" y="482.04672" width="25.90656" height="25.90656" fill="none"/><path d="M 722.05 495 A 12.95 12.95 0 0 1  735 482.05 L 722.05 495 A 12.95 12.95 0 0 0 735 482.05" fill="#2b5964"/><path d="M 735 495 A 12.95 12.95 0 0 1  747.95 482.05 L 735 495 A 12.95 12.95 0 0 0 747.95 482.05" fill="#295763"/><path d="M 722.05 495 A 12.95 12.95 0 0 1  735 507.95 L 722.05 495 A 12.95 12.95 0 0 0 735 507.95" fill="#94b6bd"/><path d="M 735 495 A 12.95 12.95 0 0 1  747.95 507.95 L 735 495 A 12.95 12.95 0 0 0 747.95 507.95" fill="#154a55"/><path d="M 752.67 507.33000000000004 A 24.66 24.66 0 0 1  777.3299999999999 482.67 L 752.67 507.33000000000004 A 24.66 24.66 0 0 0 777.3299999999999 482.67" fill="#295b66"/><rect x="783.29088" y="483.29088" width="23.41824" height="23.41824" fill="none"/><path d="M 783.29 495 A 11.71 11.71 0 0 1  795 483.29 L 783.29 495 A 11.71 11.71 0 0 0 795 483.29" fill="#32636d"/><path d="M 795 483.29 A 11.71 11.71 0 0 1  806.71 495 L 795 483.29 A 11.71 11.71 0 0 0 806.71 495" fill="#a9aaef"/><path d="M 783.29 495 A 11.71 11.71 0 0 1  795 506.71 L 783.29 495 A 11.71 11.71 0 0 0 795 506.71" fill="#325a77"/><path d="M 795 495 A 11.71 11.71 0 0 1  806.71 506.71 L 795 495 A 11.71 11.71 0 0 0 806.71 506.71" fill="#537199"/><path d="M 813.91 483.91 A 22.17 22.17 0 0 1  836.0799999999999 506.08000000000004 L 813.91 483.91 A 22.17 22.17 0 0 0 836.0799999999999 506.08000000000004" fill="#5c77a2"/><path d="M 844.54 484.54 A 20.93 20.93 0 0 1  865.4699999999999 505.47 L 844.54 484.54 A 20.93 20.93 0 0 0 865.4699999999999 505.47" fill="#90b4ba"/><path d="M 905.78 504.21999999999997 A 18.44 18.44 0 0 1  924.22 485.78 L 905.78 504.21999999999997 A 18.44 18.44 0 0 0 924.22 485.78" fill="#5f818c"/><rect x="936.40128" y="486.40128" width="17.197439999999997" height="17.197439999999997" fill="none"/><path d="M 945 503.6 A 8.6 8.6 0 0 1  953.6 495 L 945 503.6 A 8.6 8.6 0 0 0 953.6 495" fill="#989fdf"/><path d="M 967.02 487.02 A 15.95 15.95 0 0 1  982.97 502.96999999999997 L 967.02 487.02 A 15.95 15.95 0 0 0 982.97 502.96999999999997" fill="#4d6c92"/><path d="M 1058.89 501.11 A 12.22 12.22 0 0 1  1071.1100000000001 488.89 L 1058.89 501.11 A 12.22 12.22 0 0 0 1071.1100000000001 488.89" fill="#29546e"/><path d="M 1089.51 489.51 A 10.98 10.98 0 0 1  1100.49 500.49 L 1089.51 489.51 A 10.98 10.98 0 0 0 1100.49 500.49" fill="#23535f"/><path d="M 129.79 519.79 A 10.42 10.42 0 0 1  140.20999999999998 530.2099999999999 L 129.79 519.79 A 10.42 10.42 0 0 0 140.20999999999998 530.2099999999999" fill="#55818a"/><rect x="188.68224" y="518.68224" width="12.635520000000003" height="12.635520000000003" fill="none"/><rect x="247.57632" y="517.57632" width="14.847359999999997" height="14.847359999999997" fill="none"/><path d="M 247.58 517.58 A 7.42 7.42 0 0 1  255 525 L 247.58 517.58 A 7.42 7.42 0 0 0 255 525" fill="#1d4f5a"/><path d="M 247.58 525 A 7.42 7.42 0 0 1  255 532.42 L 247.58 525 A 7.42 7.42 0 0 0 255 532.42" fill="#1a4e59"/><path d="M 255 532.42 A 7.42 7.42 0 0 1  262.42 525 L 255 532.42 A 7.42 7.42 0 0 0 262.42 525" fill="#1b4a5f"/><path d="M 277.02 532.97 A 15.95 15.95 0 0 1  292.96999999999997 517.02 L 277.02 532.97 A 15.95 15.95 0 0 0 292.96999999999997 517.02" fill="#4b7882"/><path d="M 306.47 533.53 A 17.06 17.06 0 0 1  323.53000000000003 516.47 L 306.47 533.53 A 17.06 17.06 0 0 0 323.53000000000003 516.47" fill="#809ba5"/><path d="M 424.26 514.26 A 21.48 21.48 0 0 1  445.74 535.74 L 424.26 514.26 A 21.48 21.48 0 0 0 445.74 535.74" fill="#7185b7"/><path d="M 453.71 536.3000000000001 A 22.59 22.59 0 0 1  476.29999999999995 513.71 L 453.71 536.3000000000001 A 22.59 22.59 0 0 0 476.29999999999995 513.71" fill="#7688bc"/><path d="M 483.15 536.84 A 23.69 23.69 0 0 1  506.84 513.15 L 483.15 536.84 A 23.69 23.69 0 0 0 506.84 513.15" fill="#b8c5cf"/><path d="M 512.78 537.2099999999999 A 24.43 24.43 0 0 1  537.2099999999999 512.78 L 512.78 537.2099999999999 A 24.43 24.43 0 0 0 537.2099999999999 512.78" fill="#0c4050"/><path d="M 542.78 537.2099999999999 A 24.43 24.43 0 0 1  567.2099999999999 512.78 L 542.78 537.2099999999999 A 24.43 24.43 0 0 0 567.2099999999999 512.78" fill="#a2c2c9"/><rect x="572.784" y="512.784" width="24.432" height="24.432" fill="none"/><path d="M 572.78 525 A 12.22 12.22 0 0 1  585 512.78 L 572.78 525 A 12.22 12.22 0 0 0 585 512.78" fill="#24545f"/><path d="M 585 525 A 12.22 12.22 0 0 1  597.22 512.78 L 585 525 A 12.22 12.22 0 0 0 597.22 512.78" fill="#4a6a8f"/><path d="M 585 537.22 A 12.22 12.22 0 0 1  597.22 525 L 585 537.22 A 12.22 12.22 0 0 0 597.22 525" fill="#6f979f"/><path d="M 602.78 512.78 A 24.43 24.43 0 0 1  627.2099999999999 537.2099999999999 L 602.78 512.78 A 24.43 24.43 0 0 0 627.2099999999999 537.2099999999999" fill="#2d5b66"/><rect x="632.784" y="512.784" width="24.432" height="24.432" fill="none"/><path d="M 632.78 512.78 A 12.22 12.22 0 0 1  645 525 L 632.78 512.78 A 12.22 12.22 0 0 0 645 525" fill="#315975"/><path d="M 645 525 A 12.22 12.22 0 0 1  657.22 512.78 L 645 525 A 12.22 12.22 0 0 0 657.22 512.78" fill="#5e78a3"/><path d="M 632.78 537.22 A 12.22 12.22 0 0 1  645 525 L 632.78 537.22 A 12.22 12.22 0 0 0 645 525" fill="#4e6d93"/><path d="M 645 525 A 12.22 12.22 0 0 1  657.22 537.22 L 645 525 A 12.22 12.22 0 0 0 657.22 537.22" fill="#446c77"/><rect x="662.784" y="512.784" width="24.432" height="24.432" fill="none"/><path d="M 662.78 512.78 A 12.22 12.22 0 0 1  675 525 L 662.78 512.78 A 12.22 12.22 0 0 0 675 525" fill="#56828b"/><path d="M 675 525 A 12.22 12.22 0 0 1  687.22 512.78 L 675 525 A 12.22 12.22 0 0 0 687.22 512.78" fill="#56818a"/><path d="M 662.78 525 A 12.22 12.22 0 0 1  675 537.22 L 662.78 525 A 12.22 12.22 0 0 0 675 537.22" fill="#2d5772"/><path d="M 675 525 A 12.22 12.22 0 0 1  687.22 537.22 L 675 525 A 12.22 12.22 0 0 0 687.22 537.22" fill="#1e4c63"/><path d="M 692.78 512.78 A 24.43 24.43 0 0 1  717.2099999999999 537.2099999999999 L 692.78 512.78 A 24.43 24.43 0 0 0 717.2099999999999 537.2099999999999" fill="#033a46"/><path d="M 753.71 536.3000000000001 A 22.59 22.59 0 0 1  776.3000000000001 513.71 L 753.71 536.3000000000001 A 22.59 22.59 0 0 0 776.3000000000001 513.71" fill="#dff7fb"/><path d="M 784.26 514.26 A 21.48 21.48 0 0 1  805.74 535.74 L 784.26 514.26 A 21.48 21.48 0 0 0 805.74 535.74" fill="#cde7ec"/><rect x="814.81152" y="514.81152" width="20.376959999999997" height="20.376959999999997" fill="none"/><path d="M 814.81 514.81 A 10.19 10.19 0 0 1  825 525 L 814.81 514.81 A 10.19 10.19 0 0 0 825 525" fill="#6f979f"/><path d="M 825 525 A 10.19 10.19 0 0 1  835.19 514.81 L 825 525 A 10.19 10.19 0 0 0 835.19 514.81" fill="#a8aaef"/><path d="M 825 525 A 10.19 10.19 0 0 1  835.19 535.19 L 825 525 A 10.19 10.19 0 0 0 835.19 535.19" fill="#7b96a1"/><path d="M 906.47 516.47 A 17.06 17.06 0 0 1  923.53 533.53 L 906.47 516.47 A 17.06 17.06 0 0 0 923.53 533.53" fill="#325a77"/><path d="M 1028.68 518.68 A 12.64 12.64 0 0 1  1041.3200000000002 531.3199999999999 L 1028.68 518.68 A 12.64 12.64 0 0 0 1041.3200000000002 531.3199999999999" fill="#7688bc"/><path d="M 159.58 560.4200000000001 A 10.84 10.84 0 0 1  170.42000000000002 549.58 L 159.58 560.4200000000001 A 10.84 10.84 0 0 0 170.42000000000002 549.58" fill="#37626d"/><rect x="189.09696" y="549.09696" width="11.806080000000001" height="11.806080000000001" fill="none"/><path d="M 195 555 A 5.9 5.9 0 0 1  200.9 549.1 L 195 555 A 5.9 5.9 0 0 0 200.9 549.1" fill="#47757f"/><path d="M 336.68 563.3199999999999 A 16.64 16.64 0 0 1  353.32 546.68 L 336.68 563.3199999999999 A 16.64 16.64 0 0 0 353.32 546.68" fill="#96abb6"/><rect x="366.19392" y="546.19392" width="17.61216" height="17.61216" fill="none"/><path d="M 366.19 555 A 8.81 8.81 0 0 1  375 546.19 L 366.19 555 A 8.81 8.81 0 0 0 375 546.19" fill="#a3c3ca"/><path d="M 375 546.19 A 8.81 8.81 0 0 1  383.81 555 L 375 546.19 A 8.81 8.81 0 0 0 383.81 555" fill="#315976"/><path d="M 366.19 555 A 8.81 8.81 0 0 1  375 563.81 L 366.19 555 A 8.81 8.81 0 0 0 375 563.81" fill="#687ead"/><rect x="395.71008" y="545.71008" width="18.57984" height="18.57984" fill="none"/><path d="M 395.71 545.71 A 9.29 9.29 0 0 1  405 555 L 395.71 545.71 A 9.29 9.29 0 0 0 405 555" fill="#47688c"/><path d="M 395.71 555 A 9.29 9.29 0 0 1  405 564.29 L 395.71 555 A 9.29 9.29 0 0 0 405 564.29" fill="#668791"/><path d="M 513.94 543.94 A 22.13 22.13 0 0 1  536.07 566.07 L 513.94 543.94 A 22.13 22.13 0 0 0 536.07 566.07" fill="#114456"/><rect x="543.936" y="543.936" width="22.128" height="22.128" fill="none"/><path d="M 543.94 543.94 A 11.06 11.06 0 0 1  555 555 L 543.94 543.94 A 11.06 11.06 0 0 0 555 555" fill="#62838e"/><path d="M 555 555 A 11.06 11.06 0 0 1  566.06 543.94 L 555 555 A 11.06 11.06 0 0 0 566.06 543.94" fill="#638d95"/><path d="M 573.94 543.94 A 22.13 22.13 0 0 1  596.07 566.07 L 573.94 543.94 A 22.13 22.13 0 0 0 596.07 566.07" fill="#19495e"/><path d="M 603.94 543.94 A 22.13 22.13 0 0 1  626.07 566.07 L 603.94 543.94 A 22.13 22.13 0 0 0 626.07 566.07" fill="#a0b3bd"/><path d="M 663.94 566.07 A 22.13 22.13 0 0 1  686.07 543.94 L 663.94 566.07 A 22.13 22.13 0 0 0 686.07 543.94" fill="#476f7a"/><path d="M 693.94 543.94 A 22.13 22.13 0 0 1  716.07 566.07 L 693.94 543.94 A 22.13 22.13 0 0 0 716.07 566.07" fill="#a0b3bd"/><rect x="754.7424" y="544.7424" width="20.5152" height="20.5152" fill="none"/><path d="M 754.74 544.74 A 10.26 10.26 0 0 1  765 555 L 754.74 544.74 A 10.26 10.26 0 0 0 765 555" fill="#ced6df"/><path d="M 765 544.74 A 10.26 10.26 0 0 1  775.26 555 L 765 544.74 A 10.26 10.26 0 0 0 775.26 555" fill="#3b6080"/><path d="M 754.74 565.26 A 10.26 10.26 0 0 1  765 555 L 754.74 565.26 A 10.26 10.26 0 0 0 765 555" fill="#729aa2"/><path d="M 785.23 545.23 A 19.55 19.55 0 0 1  804.78 564.78 L 785.23 545.23 A 19.55 19.55 0 0 0 804.78 564.78" fill="#517681"/><rect x="1029.09696" y="549.09696" width="11.806080000000001" height="11.806080000000001" fill="none"/><path d="M 219.1 579.1 A 11.81 11.81 0 0 1  230.91 590.91 L 219.1 579.1 A 11.81 11.81 0 0 0 230.91 590.91" fill="#b8b5ff"/><rect x="248.68224" y="578.68224" width="12.635519999999996" height="12.635519999999996" fill="none"/><rect x="307.8528" y="577.8528" width="14.294399999999998" height="14.294399999999998" fill="none"/><path d="M 315 592.15 A 7.15 7.15 0 0 1  322.15 585 L 315 592.15 A 7.15 7.15 0 0 0 322.15 585" fill="#b0cfd5"/><path d="M 337.44 577.44 A 15.12 15.12 0 0 1  352.56 592.5600000000001 L 337.44 577.44 A 15.12 15.12 0 0 0 352.56 592.5600000000001" fill="#b5b3fc"/><path d="M 367.02 577.02 A 15.95 15.95 0 0 1  382.96999999999997 592.97 L 367.02 577.02 A 15.95 15.95 0 0 0 382.96999999999997 592.97" fill="#20505c"/><rect x="396.60864" y="576.60864" width="16.782719999999998" height="16.782719999999998" fill="none"/><path d="M 396.61 593.39 A 8.39 8.39 0 0 1  405 585 L 396.61 593.39 A 8.39 8.39 0 0 0 405 585" fill="#b6d3d9"/><path d="M 405 593.39 A 8.39 8.39 0 0 1  413.39 585 L 405 593.39 A 8.39 8.39 0 0 0 413.39 585" fill="#6a80b0"/><path d="M 426.19 576.19 A 17.61 17.61 0 0 1  443.8 593.8000000000001 L 426.19 576.19 A 17.61 17.61 0 0 0 443.8 593.8000000000001" fill="#013945"/><rect x="485.36448" y="575.36448" width="19.271039999999996" height="19.271039999999996" fill="none"/><path d="M 485.36 585 A 9.64 9.64 0 0 1  495 575.36 L 485.36 585 A 9.64 9.64 0 0 0 495 575.36" fill="#255862"/><path d="M 495 575.36 A 9.64 9.64 0 0 1  504.64 585 L 495 575.36 A 9.64 9.64 0 0 0 504.64 585" fill="#3c6081"/><path d="M 485.36 585 A 9.64 9.64 0 0 1  495 594.64 L 485.36 585 A 9.64 9.64 0 0 0 495 594.64" fill="#7d8dc3"/><path d="M 495 585 A 9.64 9.64 0 0 1  504.64 594.64 L 495 585 A 9.64 9.64 0 0 0 504.64 594.64" fill="#2d5f69"/><path d="M 515.09 594.9100000000001 A 19.82 19.82 0 0 1  534.9100000000001 575.09 L 515.09 594.9100000000001 A 19.82 19.82 0 0 0 534.9100000000001 575.09" fill="#a6b7c1"/><path d="M 635.09 594.9100000000001 A 19.82 19.82 0 0 1  654.9100000000001 575.09 L 635.09 594.9100000000001 A 19.82 19.82 0 0 0 654.9100000000001 575.09" fill="#063c4a"/><rect x="725.36448" y="575.36448" width="19.271039999999996" height="19.271039999999996" fill="none"/><path d="M 725.36 585 A 9.64 9.64 0 0 1  735 575.36 L 725.36 585 A 9.64 9.64 0 0 0 735 575.36" fill="#9cb0ba"/><path d="M 755.78 594.22 A 18.44 18.44 0 0 1  774.22 575.78 L 755.78 594.22 A 18.44 18.44 0 0 0 774.22 575.78" fill="#d1ebf0"/><path d="M 786.19 593.8000000000001 A 17.61 17.61 0 0 1  803.8000000000001 576.19 L 786.19 593.8000000000001 A 17.61 17.61 0 0 0 803.8000000000001 576.19" fill="#a3c3c9"/><path d="M 907.85 592.14 A 14.29 14.29 0 0 1  922.14 577.85 L 907.85 592.14 A 14.29 14.29 0 0 0 922.14 577.85" fill="#104651"/><path d="M 1029.51 579.51 A 10.98 10.98 0 0 1  1040.49 590.49 L 1029.51 579.51 A 10.98 10.98 0 0 0 1040.49 590.49" fill="#adaef4"/><path d="M 427.16 607.16 A 15.68 15.68 0 0 1  442.84000000000003 622.8399999999999 L 427.16 607.16 A 15.68 15.68 0 0 0 442.84000000000003 622.8399999999999" fill="#7f8ec5"/><rect x="456.816" y="606.816" width="16.367999999999995" height="16.367999999999995" fill="none"/><path d="M 456.82 615 A 8.18 8.18 0 0 1  465 606.82 L 456.82 615 A 8.18 8.18 0 0 0 465 606.82" fill="#7286b8"/><path d="M 465 615 A 8.18 8.18 0 0 1  473.18 606.82 L 465 615 A 8.18 8.18 0 0 0 473.18 606.82" fill="#4b6b90"/><rect x="486.4704" y="606.4704" width="17.059199999999997" height="17.059199999999997" fill="none"/><path d="M 495 615 A 8.53 8.53 0 0 1  503.53 606.47 L 495 615 A 8.53 8.53 0 0 0 503.53 606.47" fill="#315976"/><path d="M 495 623.53 A 8.53 8.53 0 0 1  503.53 615 L 495 623.53 A 8.53 8.53 0 0 0 503.53 615" fill="#b3b2fa"/><path d="M 516.24 623.76 A 17.52 17.52 0 0 1  533.76 606.24 L 516.24 623.76 A 17.52 17.52 0 0 0 533.76 606.24" fill="#2e5773"/><path d="M 576.24 606.24 A 17.52 17.52 0 0 1  593.76 623.76 L 576.24 606.24 A 17.52 17.52 0 0 0 593.76 623.76" fill="#37626d"/><path d="M 666.24 606.24 A 17.52 17.52 0 0 1  683.76 623.76 L 666.24 606.24 A 17.52 17.52 0 0 0 683.76 623.76" fill="#94b7bd"/><path d="M 726.47 606.47 A 17.06 17.06 0 0 1  743.53 623.53 L 726.47 606.47 A 17.06 17.06 0 0 0 743.53 623.53" fill="#245169"/><path d="M 787.16 622.8399999999999 A 15.68 15.68 0 0 1  802.8399999999999 607.16 L 787.16 622.8399999999999 A 15.68 15.68 0 0 0 802.8399999999999 607.16" fill="#486f7a"/><path d="M 847.85 622.14 A 14.29 14.29 0 0 1  862.14 607.85 L 847.85 622.14 A 14.29 14.29 0 0 0 862.14 607.85" fill="#39646f"/><path d="M 101.17 648.8299999999999 A 7.66 7.66 0 0 1  108.83 641.17 L 101.17 648.8299999999999 A 7.66 7.66 0 0 0 108.83 641.17" fill="#d0d7e1"/><rect x="457.8528" y="637.8528" width="14.294399999999996" height="14.294399999999996" fill="none"/><path d="M 465 652.15 A 7.15 7.15 0 0 1  472.15 645 L 465 652.15 A 7.15 7.15 0 0 0 472.15 645" fill="#0f4551"/><rect x="517.392" y="637.392" width="15.215999999999996" height="15.215999999999996" fill="none"/><path d="M 525 645 A 7.61 7.61 0 0 1  532.61 637.39 L 525 645 A 7.61 7.61 0 0 0 532.61 637.39" fill="#a7c7cd"/><path d="M 547.39 652.61 A 15.22 15.22 0 0 1  562.61 637.39 L 547.39 652.61 A 15.22 15.22 0 0 0 562.61 637.39" fill="#497680"/><path d="M 637.39 652.61 A 15.22 15.22 0 0 1  652.61 637.39 L 637.39 652.61 A 15.22 15.22 0 0 0 652.61 637.39" fill="#5f8a92"/><path d="M 667.39 652.61 A 15.22 15.22 0 0 1  682.61 637.39 L 667.39 652.61 A 15.22 15.22 0 0 0 682.61 637.39" fill="#1d4c62"/><path d="M 757.85 652.14 A 14.29 14.29 0 0 1  772.14 637.85 L 757.85 652.14 A 14.29 14.29 0 0 0 772.14 637.85" fill="#8793cd"/><path d="M 818.41 638.41 A 13.19 13.19 0 0 1  831.6 651.6 L 818.41 638.41 A 13.19 13.19 0 0 0 831.6 651.6" fill="#2a546f"/><rect x="1121.17056" y="641.17056" width="7.658879999999996" height="7.658879999999996" fill="none"/><path d="M 339.72 669.72 A 10.56 10.56 0 0 1  350.28000000000003 680.28 L 339.72 669.72 A 10.56 10.56 0 0 0 350.28000000000003 680.28" fill="#8ea5af"/><path d="M 488.68 681.3199999999999 A 12.64 12.64 0 0 1  501.32 668.68 L 488.68 681.3199999999999 A 12.64 12.64 0 0 0 501.32 668.68" fill="#daf3f7"/><path d="M 608.54 681.4499999999999 A 12.91 12.91 0 0 1  621.4499999999999 668.54 L 608.54 681.4499999999999 A 12.91 12.91 0 0 0 621.4499999999999 668.54" fill="#325a77"/><rect x="638.544" y="668.544" width="12.911999999999999" height="12.911999999999999" fill="none"/><path d="M 638.54 668.54 A 6.46 6.46 0 0 1  645 675 L 638.54 668.54 A 6.46 6.46 0 0 0 645 675" fill="#0b404f"/><path d="M 668.54 668.54 A 12.91 12.91 0 0 1  681.4499999999999 681.4499999999999 L 668.54 668.54 A 12.91 12.91 0 0 0 681.4499999999999 681.4499999999999" fill="#7084b6"/><path d="M 758.89 681.11 A 12.22 12.22 0 0 1  771.11 668.89 L 758.89 681.11 A 12.22 12.22 0 0 0 771.11 668.89" fill="#023945"/><rect x="849.51168" y="669.51168" width="10.97664" height="10.97664" fill="none"/><path d="M 879.72 669.72 A 10.56 10.56 0 0 1  890.28 680.28 L 879.72 669.72 A 10.56 10.56 0 0 0 890.28 680.28" fill="#cce6eb"/><path d="M 370.34 709.6600000000001 A 9.32 9.32 0 0 1  379.65999999999997 700.34 L 370.34 709.6600000000001 A 9.32 9.32 0 0 0 379.65999999999997 700.34" fill="#053c48"/><rect x="669.696" y="699.696" width="10.608" height="10.608" fill="none"/><path d="M 669.7 710.3 A 5.3 5.3 0 0 1  675 705 L 669.7 710.3 A 5.3 5.3 0 0 0 675 705" fill="#3f6384"/><path d="M 820.2 709.7900000000001 A 9.59 9.59 0 0 1  829.7900000000001 700.2 L 820.2 709.7900000000001 A 9.59 9.59 0 0 0 829.7900000000001 700.2" fill="#27536c"/><rect x="850.34112" y="700.34112" width="9.31776" height="9.31776" fill="none"/><path d="M 850.34 709.66 A 4.66 4.66 0 0 1  855 705 L 850.34 709.66 A 4.66 4.66 0 0 0 855 705" fill="#8e98d4"/><path d="M 371.17 731.17 A 7.66 7.66 0 0 1  378.83000000000004 738.8299999999999 L 371.17 731.17 A 7.66 7.66 0 0 0 378.83000000000004 738.8299999999999" fill="#93a9b3"/><path d="M 431.03 738.97 A 7.94 7.94 0 0 1  438.96999999999997 731.03 L 431.03 738.97 A 7.94 7.94 0 0 0 438.96999999999997 731.03" fill="#1d4e5a"/><rect x="550.848" y="730.848" width="8.303999999999998" height="8.303999999999998" fill="none"/></g></svg>