<svg xmlns:xlink="http://www.w3.org/1999/xlink" xmlns="http://www.w3.org/2000/svg" viewBox="0 0 1500 937.5" preserveAspectRatio="xMaxYMax slice"><g transform="scale(1.25)"><rect x="0" y="0" width="1200" height="750" fill="none"/><path d="M 791.03 48.97 A 7.94 7.94 0 0 1  798.97 41.03 L 791.03 48.97 A 7.94 7.94 0 0 0 798.97 41.03" fill="#275a64"/><rect x="1151.86176" y="41.861760000000004" width="6.276479999999999" height="6.276479999999999" fill="none"/><path d="M 340.48 79.52000000000001 A 9.04 9.04 0 0 1  349.52000000000004 70.48 L 340.48 79.52000000000001 A 9.04 9.04 0 0 0 349.52000000000004 70.48" fill="#375d7c"/><path d="M 370.34 79.66 A 9.32 9.32 0 0 1  379.65999999999997 70.34 L 370.34 79.66 A 9.32 9.32 0 0 0 379.65999999999997 70.34" fill="#d9f1f6"/><path d="M 579.7 69.7 A 10.61 10.61 0 0 1  590.3100000000001 80.31 L 579.7 69.7 A 10.61 10.61 0 0 0 590.3100000000001 80.31" fill="#184c57"/><path d="M 1031.17 78.83 A 7.66 7.66 0 0 1  1038.8300000000002 71.17 L 1031.17 78.83 A 7.66 7.66 0 0 0 1038.8300000000002 71.17" fill="#c6d0da"/><path d="M 280.13 109.86 A 9.73 9.73 0 0 1  289.86 100.13 L 280.13 109.86 A 9.73 9.73 0 0 0 289.86 100.13" fill="#486f7b"/><path d="M 399.3 110.69 A 11.39 11.39 0 0 1  410.69 99.3 L 399.3 110.69 A 11.39 11.39 0 0 0 410.69 99.3" fill="#6980af"/><path d="M 429.1 99.1 A 11.81 11.81 0 0 1  440.91 110.91 L 429.1 99.1 A 11.81 11.81 0 0 0 440.91 110.91" fill="#18485c"/><rect x="458.8896" y="98.8896" width="12.220799999999997" height="12.220799999999997" fill="none"/><path d="M 458.89 105 A 6.11 6.11 0 0 1  465 111.11 L 458.89 105 A 6.11 6.11 0 0 0 465 111.11" fill="#6a80af"/><path d="M 465 105 A 6.11 6.11 0 0 1  471.11 111.11 L 465 105 A 6.11 6.11 0 0 0 471.11 111.11" fill="#d4edf2"/><path d="M 548.54 98.54 A 12.91 12.91 0 0 1  561.4499999999999 111.45 L 548.54 98.54 A 12.91 12.91 0 0 0 561.4499999999999 111.45" fill="#537098"/><path d="M 728.68 98.68 A 12.64 12.64 0 0 1  741.3199999999999 111.32000000000001 L 728.68 98.68 A 12.64 12.64 0 0 0 741.3199999999999 111.32000000000001" fill="#1e525d"/><path d="M 819.3 99.3 A 11.39 11.39 0 0 1  830.6899999999999 110.69 L 819.3 99.3 A 11.39 11.39 0 0 0 830.6899999999999 110.69" fill="#667dac"/><rect x="1060.9632" y="100.9632" width="8.073599999999999" height="8.073599999999999" fill="none"/><path d="M 398.41 128.41 A 13.19 13.19 0 0 1  411.6 141.6 L 398.41 128.41 A 13.19 13.19 0 0 0 411.6 141.6" fill="#69929a"/><path d="M 428.13 128.13 A 13.74 13.74 0 0 1  441.87 141.87 L 428.13 128.13 A 13.74 13.74 0 0 0 441.87 141.87" fill="#5b76a1"/><path d="M 457.85 142.14 A 14.29 14.29 0 0 1  472.14000000000004 127.85 L 457.85 142.14 A 14.29 14.29 0 0 0 472.14000000000004 127.85" fill="#18495d"/><path d="M 487.58 127.58 A 14.85 14.85 0 0 1  502.43 142.43 L 487.58 127.58 A 14.85 14.85 0 0 0 502.43 142.43" fill="#9ea4e5"/><path d="M 517.39 142.61 A 15.22 15.22 0 0 1  532.61 127.39 L 517.39 142.61 A 15.22 15.22 0 0 0 532.61 127.39" fill="#cce6eb"/><path d="M 547.39 142.61 A 15.22 15.22 0 0 1  562.61 127.39 L 547.39 142.61 A 15.22 15.22 0 0 0 562.61 127.39" fill="#194e59"/><rect x="788.12928" y="128.12928" width="13.74144" height="13.74144" fill="none"/><path d="M 788.13 128.13 A 6.87 6.87 0 0 1  795 135 L 788.13 128.13 A 6.87 6.87 0 0 0 795 135" fill="#58749e"/><path d="M 795 128.13 A 6.87 6.87 0 0 1  801.87 135 L 795 128.13 A 6.87 6.87 0 0 0 801.87 135" fill="#47688c"/><path d="M 788.13 135 A 6.87 6.87 0 0 1  795 141.87 L 788.13 135 A 6.87 6.87 0 0 0 795 141.87" fill="#416a75"/><path d="M 848.68 128.68 A 12.64 12.64 0 0 1  861.3199999999999 141.32 L 848.68 128.68 A 12.64 12.64 0 0 0 861.3199999999999 141.32" fill="#335b78"/><path d="M 969.79 140.20999999999998 A 10.42 10.42 0 0 1  980.2099999999999 129.79 L 969.79 140.20999999999998 A 10.42 10.42 0 0 0 980.2099999999999 129.79" fill="#a1a6e8"/><path d="M 486.47 156.47 A 17.06 17.06 0 0 1  503.53000000000003 173.53 L 486.47 156.47 A 17.06 17.06 0 0 0 503.53000000000003 173.53" fill="#093e4d"/><path d="M 576.24 173.76000000000002 A 17.52 17.52 0 0 1  593.76 156.24 L 576.24 173.76000000000002 A 17.52 17.52 0 0 0 593.76 156.24" fill="#99bbc1"/><path d="M 606.24 156.24 A 17.52 17.52 0 0 1  623.76 173.76000000000002 L 606.24 156.24 A 17.52 17.52 0 0 0 623.76 173.76000000000002" fill="#1f535e"/><rect x="756.816" y="156.816" width="16.367999999999995" height="16.367999999999995" fill="none"/><path d="M 756.82 165 A 8.18 8.18 0 0 1  765 156.82 L 756.82 165 A 8.18 8.18 0 0 0 765 156.82" fill="#44727c"/><path d="M 787.16 157.16 A 15.68 15.68 0 0 1  802.8399999999999 172.84 L 787.16 157.16 A 15.68 15.68 0 0 0 802.8399999999999 172.84" fill="#4c737e"/><path d="M 817.51 172.5 A 14.99 14.99 0 0 1  832.5 157.51 L 817.51 172.5 A 14.99 14.99 0 0 0 832.5 157.51" fill="#647caa"/><rect x="847.8528" y="157.8528" width="14.294399999999998" height="14.294399999999998" fill="none"/><path d="M 855 165 A 7.15 7.15 0 0 1  862.15 157.85 L 855 165 A 7.15 7.15 0 0 0 862.15 157.85" fill="#0a414c"/><path d="M 999.58 159.58 A 10.84 10.84 0 0 1  1010.4200000000001 170.42000000000002 L 999.58 159.58 A 10.84 10.84 0 0 0 1010.4200000000001 170.42000000000002" fill="#aecdd3"/><path d="M 1060.27 160.27 A 9.46 9.46 0 0 1  1069.73 169.73000000000002 L 1060.27 160.27 A 9.46 9.46 0 0 0 1069.73 169.73000000000002" fill="#8592cb"/><path d="M 159.93 200.08 A 10.15 10.15 0 0 1  170.08 189.93 L 159.93 200.08 A 10.15 10.15 0 0 0 170.08 189.93" fill="#6c949d"/><path d="M 248.68 188.68 A 12.64 12.64 0 0 1  261.32 201.32 L 248.68 188.68 A 12.64 12.64 0 0 0 261.32 201.32" fill="#0c4050"/><path d="M 426.19 203.8 A 17.61 17.61 0 0 1  443.8 186.19 L 426.19 203.8 A 17.61 17.61 0 0 0 443.8 186.19" fill="#c5cfd8"/><rect x="485.36448" y="185.36448000000001" width="19.271039999999996" height="19.271039999999996" fill="none"/><path d="M 485.36 204.64 A 9.64 9.64 0 0 1  495 195 L 485.36 204.64 A 9.64 9.64 0 0 0 495 195" fill="#9dbec5"/><path d="M 545.09 204.91 A 19.82 19.82 0 0 1  564.9100000000001 185.09 L 545.09 204.91 A 19.82 19.82 0 0 0 564.9100000000001 185.09" fill="#bedbe0"/><rect x="575.088" y="185.088" width="19.823999999999998" height="19.823999999999998" fill="none"/><path d="M 585 195 A 9.91 9.91 0 0 1  594.91 185.09 L 585 195 A 9.91 9.91 0 0 0 594.91 185.09" fill="#8ba2ad"/><path d="M 585 204.91 A 9.91 9.91 0 0 1  594.91 195 L 585 204.91 A 9.91 9.91 0 0 0 594.91 195" fill="#82a7ae"/><path d="M 605.09 185.09 A 19.82 19.82 0 0 1  624.9100000000001 204.91 L 605.09 185.09 A 19.82 19.82 0 0 0 624.9100000000001 204.91" fill="#7995a0"/><path d="M 635.09 204.91 A 19.82 19.82 0 0 1  654.9100000000001 185.09 L 635.09 204.91 A 19.82 19.82 0 0 0 654.9100000000001 185.09" fill="#134652"/><path d="M 665.09 185.09 A 19.82 19.82 0 0 1  684.9100000000001 204.91 L 665.09 185.09 A 19.82 19.82 0 0 0 684.9100000000001 204.91" fill="#3e6873"/><path d="M 695.09 204.91 A 19.82 19.82 0 0 1  714.9100000000001 185.09 L 695.09 204.91 A 19.82 19.82 0 0 0 714.9100000000001 185.09" fill="#bddadf"/><path d="M 725.36 204.63000000000002 A 19.27 19.27 0 0 1  744.63 185.36 L 725.36 204.63000000000002 A 19.27 19.27 0 0 0 744.63 185.36" fill="#97acb6"/><path d="M 755.78 185.78 A 18.44 18.44 0 0 1  774.22 204.22 L 755.78 185.78 A 18.44 18.44 0 0 0 774.22 204.22" fill="#7889be"/><path d="M 816.61 186.61 A 16.78 16.78 0 0 1  833.39 203.39000000000001 L 816.61 186.61 A 16.78 16.78 0 0 0 833.39 203.39000000000001" fill="#a1c2c8"/><path d="M 938.27 201.73000000000002 A 13.46 13.46 0 0 1  951.73 188.27 L 938.27 201.73000000000002 A 13.46 13.46 0 0 0 951.73 188.27" fill="#849da7"/><path d="M 1029.51 189.51 A 10.98 10.98 0 0 1  1040.49 200.48999999999998 L 1029.51 189.51 A 10.98 10.98 0 0 0 1040.49 200.48999999999998" fill="#134752"/><rect x="248.12928" y="218.12928" width="13.74144" height="13.74144" fill="none"/><path d="M 307.16 217.16 A 15.68 15.68 0 0 1  322.84000000000003 232.84 L 307.16 217.16 A 15.68 15.68 0 0 0 322.84000000000003 232.84" fill="#b6c4ce"/><rect x="395.71008" y="215.71008" width="18.57984" height="18.57984" fill="none"/><path d="M 454.74 214.74 A 20.52 20.52 0 0 1  475.26 235.26000000000002 L 454.74 214.74 A 20.52 20.52 0 0 0 475.26 235.26000000000002" fill="#c9d3dc"/><path d="M 484.26 235.73999999999998 A 21.48 21.48 0 0 1  505.74 214.26 L 484.26 235.73999999999998 A 21.48 21.48 0 0 0 505.74 214.26" fill="#bfcbd4"/><rect x="543.936" y="213.936" width="22.128" height="22.128" fill="none"/><path d="M 543.94 225 A 11.06 11.06 0 0 1  555 213.94 L 543.94 225 A 11.06 11.06 0 0 0 555 213.94" fill="#cae4e9"/><path d="M 555 213.94 A 11.06 11.06 0 0 1  566.06 225 L 555 213.94 A 11.06 11.06 0 0 0 566.06 225" fill="#90a7b1"/><path d="M 543.94 225 A 11.06 11.06 0 0 1  555 236.06 L 543.94 225 A 11.06 11.06 0 0 0 555 236.06" fill="#7ca2a9"/><path d="M 555 236.06 A 11.06 11.06 0 0 1  566.06 225 L 555 236.06 A 11.06 11.06 0 0 0 566.06 225" fill="#053c48"/><rect x="573.936" y="213.936" width="22.128" height="22.128" fill="none"/><path d="M 573.94 213.94 A 11.06 11.06 0 0 1  585 225 L 573.94 213.94 A 11.06 11.06 0 0 0 585 225" fill="#b2c1cb"/><path d="M 585 225 A 11.06 11.06 0 0 1  596.06 213.94 L 585 225 A 11.06 11.06 0 0 0 596.06 213.94" fill="#647caa"/><path d="M 573.94 225 A 11.06 11.06 0 0 1  585 236.06 L 573.94 225 A 11.06 11.06 0 0 0 585 236.06" fill="#6c8b95"/><path d="M 585 225 A 11.06 11.06 0 0 1  596.06 236.06 L 585 225 A 11.06 11.06 0 0 0 596.06 236.06" fill="#7e99a3"/><rect x="603.936" y="213.936" width="22.128" height="22.128" fill="none"/><path d="M 603.94 213.94 A 11.06 11.06 0 0 1  615 225 L 603.94 213.94 A 11.06 11.06 0 0 0 615 225" fill="#becad3"/><path d="M 603.94 236.06 A 11.06 11.06 0 0 1  615 225 L 603.94 236.06 A 11.06 11.06 0 0 0 615 225" fill="#164954"/><path d="M 615 225 A 11.06 11.06 0 0 1  626.06 236.06 L 615 225 A 11.06 11.06 0 0 0 626.06 236.06" fill="#053b49"/><path d="M 633.94 213.94 A 22.13 22.13 0 0 1  656.07 236.07 L 633.94 213.94 A 22.13 22.13 0 0 0 656.07 236.07" fill="#4c6b91"/><path d="M 693.94 213.94 A 22.13 22.13 0 0 1  716.07 236.07 L 693.94 213.94 A 22.13 22.13 0 0 0 716.07 236.07" fill="#8db0b7"/><rect x="724.25856" y="214.25856" width="21.48288" height="21.48288" fill="none"/><path d="M 724.26 225 A 10.74 10.74 0 0 1  735 214.26 L 724.26 225 A 10.74 10.74 0 0 0 735 214.26" fill="#617aa6"/><path d="M 735 214.26 A 10.74 10.74 0 0 1  745.74 225 L 735 214.26 A 10.74 10.74 0 0 0 745.74 225" fill="#114455"/><path d="M 724.26 235.74 A 10.74 10.74 0 0 1  735 225 L 724.26 235.74 A 10.74 10.74 0 0 0 735 225" fill="#0c4050"/><path d="M 735 225 A 10.74 10.74 0 0 1  745.74 235.74 L 735 225 A 10.74 10.74 0 0 0 745.74 235.74" fill="#4e747f"/><path d="M 815.71 215.71 A 18.58 18.58 0 0 1  834.2900000000001 234.29000000000002 L 815.71 215.71 A 18.58 18.58 0 0 0 834.2900000000001 234.29000000000002" fill="#a4c4ca"/><path d="M 846.19 216.19 A 17.61 17.61 0 0 1  863.8000000000001 233.8 L 846.19 216.19 A 17.61 17.61 0 0 0 863.8000000000001 233.8" fill="#79959f"/><path d="M 876.68 216.68 A 16.64 16.64 0 0 1  893.3199999999999 233.32 L 876.68 216.68 A 16.64 16.64 0 0 0 893.3199999999999 233.32" fill="#0c414d"/><path d="M 937.65 232.36 A 14.71 14.71 0 0 1  952.36 217.65 L 937.65 232.36 A 14.71 14.71 0 0 0 952.36 217.65" fill="#20535e"/><rect x="1120.54848" y="220.54848" width="8.90304" height="8.90304" fill="none"/><path d="M 1125 220.55 A 4.45 4.45 0 0 1  1129.45 225 L 1125 220.55 A 4.45 4.45 0 0 0 1129.45 225" fill="#2c5a65"/><path d="M 1125 225 A 4.45 4.45 0 0 1  1129.45 229.45 L 1125 225 A 4.45 4.45 0 0 0 1129.45 229.45" fill="#b0b0f7"/><rect x="100.34112" y="250.34112" width="9.31776" height="9.31776" fill="none"/><rect x="188.68224" y="248.68224" width="12.635520000000003" height="12.635520000000003" fill="none"/><path d="M 188.68 255 A 6.32 6.32 0 0 1  195 248.68 L 188.68 255 A 6.32 6.32 0 0 0 195 248.68" fill="#aeaef5"/><path d="M 195 255 A 6.32 6.32 0 0 1  201.32 261.32 L 195 255 A 6.32 6.32 0 0 0 201.32 261.32" fill="#0f4253"/><rect x="218.12928" y="248.12928" width="13.74144" height="13.74144" fill="none"/><path d="M 225 261.87 A 6.87 6.87 0 0 1  231.87 255 L 225 261.87 A 6.87 6.87 0 0 0 231.87 255" fill="#b1b0f7"/><path d="M 247.58 247.58 A 14.85 14.85 0 0 1  262.43 262.43 L 247.58 247.58 A 14.85 14.85 0 0 0 262.43 262.43" fill="#3e6d77"/><rect x="306.4704" y="246.4704" width="17.059199999999997" height="17.059199999999997" fill="none"/><path d="M 306.47 263.53 A 8.53 8.53 0 0 1  315 255 L 306.47 263.53 A 8.53 8.53 0 0 0 315 255" fill="#7da3ab"/><rect x="365.36448" y="245.36448000000001" width="19.27104" height="19.27104" fill="none"/><path d="M 375 255 A 9.64 9.64 0 0 1  384.64 245.36 L 375 255 A 9.64 9.64 0 0 0 384.64 245.36" fill="#b3c1cb"/><path d="M 365.36 255 A 9.64 9.64 0 0 1  375 264.64 L 365.36 255 A 9.64 9.64 0 0 0 375 264.64" fill="#8cb0b7"/><path d="M 375 255 A 9.64 9.64 0 0 1  384.64 264.64 L 375 255 A 9.64 9.64 0 0 0 384.64 264.64" fill="#97b9c0"/><path d="M 424.26 244.26 A 21.48 21.48 0 0 1  445.74 265.74 L 424.26 244.26 A 21.48 21.48 0 0 0 445.74 265.74" fill="#929bd8"/><path d="M 483.15 243.15 A 23.69 23.69 0 0 1  506.84 266.84000000000003 L 483.15 243.15 A 23.69 23.69 0 0 0 506.84 266.84000000000003" fill="#5d8790"/><path d="M 572.78 242.78 A 24.43 24.43 0 0 1  597.2099999999999 267.21 L 572.78 242.78 A 24.43 24.43 0 0 0 597.2099999999999 267.21" fill="#174a55"/><path d="M 602.78 242.78 A 24.43 24.43 0 0 1  627.2099999999999 267.21 L 602.78 242.78 A 24.43 24.43 0 0 0 627.2099999999999 267.21" fill="#2a546e"/><path d="M 632.78 267.21 A 24.43 24.43 0 0 1  657.2099999999999 242.78 L 632.78 267.21 A 24.43 24.43 0 0 0 657.2099999999999 242.78" fill="#224f67"/><path d="M 662.78 242.78 A 24.43 24.43 0 0 1  687.2099999999999 267.21 L 662.78 242.78 A 24.43 24.43 0 0 0 687.2099999999999 267.21" fill="#a0b3bd"/><path d="M 692.78 267.21 A 24.43 24.43 0 0 1  717.2099999999999 242.78 L 692.78 267.21 A 24.43 24.43 0 0 0 717.2099999999999 242.78" fill="#245761"/><rect x="784.25856" y="244.25856" width="21.48288" height="21.48288" fill="none"/><path d="M 784.26 255 A 10.74 10.74 0 0 1  795 244.26 L 784.26 255 A 10.74 10.74 0 0 0 795 244.26" fill="#cdd5df"/><path d="M 795 244.26 A 10.74 10.74 0 0 1  805.74 255 L 795 244.26 A 10.74 10.74 0 0 0 805.74 255" fill="#0c4051"/><path d="M 784.26 265.74 A 10.74 10.74 0 0 1  795 255 L 784.26 265.74 A 10.74 10.74 0 0 0 795 255" fill="#093e4d"/><path d="M 845.36 264.63 A 19.27 19.27 0 0 1  864.63 245.36 L 845.36 264.63 A 19.27 19.27 0 0 0 864.63 245.36" fill="#76939d"/><path d="M 875.92 245.92 A 18.17 18.17 0 0 1  894.0899999999999 264.09 L 875.92 245.92 A 18.17 18.17 0 0 0 894.0899999999999 264.09" fill="#184a56"/><path d="M 937.02 262.97 A 15.95 15.95 0 0 1  952.97 247.02 L 937.02 262.97 A 15.95 15.95 0 0 0 952.97 247.02" fill="#d4dbe4"/><path d="M 1059.24 260.77 A 11.53 11.53 0 0 1  1070.77 249.24 L 1059.24 260.77 A 11.53 11.53 0 0 0 1070.77 249.24" fill="#3f6384"/><rect x="217.64544" y="277.64544" width="14.70912" height="14.70912" fill="none"/><path d="M 217.65 285 A 7.35 7.35 0 0 1  225 292.35 L 217.65 285 A 7.35 7.35 0 0 0 225 292.35" fill="#929bd9"/><path d="M 247.02 277.02 A 15.95 15.95 0 0 1  262.97 292.96999999999997 L 247.02 277.02 A 15.95 15.95 0 0 0 262.97 292.96999999999997" fill="#54719a"/><path d="M 335.16 294.85 A 19.69 19.69 0 0 1  354.85 275.16 L 335.16 294.85 A 19.69 19.69 0 0 0 354.85 275.16" fill="#88a1ab"/><path d="M 364.54 295.47 A 20.93 20.93 0 0 1  385.47 274.54 L 364.54 295.47 A 20.93 20.93 0 0 0 385.47 274.54" fill="#34606b"/><path d="M 393.91 296.08000000000004 A 22.17 22.17 0 0 1  416.08000000000004 273.91 L 393.91 296.08000000000004 A 22.17 22.17 0 0 0 416.08000000000004 273.91" fill="#b0ced4"/><path d="M 423.29 273.29 A 23.42 23.42 0 0 1  446.71000000000004 296.71000000000004 L 423.29 273.29 A 23.42 23.42 0 0 0 446.71000000000004 296.71000000000004" fill="#104450"/><path d="M 452.67 297.33000000000004 A 24.66 24.66 0 0 1  477.33000000000004 272.67 L 452.67 297.33000000000004 A 24.66 24.66 0 0 0 477.33000000000004 272.67" fill="#7084b6"/><path d="M 482.05 297.96000000000004 A 25.91 25.91 0 0 1  507.96000000000004 272.05 L 482.05 297.96000000000004 A 25.91 25.91 0 0 0 507.96000000000004 272.05" fill="#59749e"/><path d="M 541.63 271.63 A 26.74 26.74 0 0 1  568.37 298.37 L 541.63 271.63 A 26.74 26.74 0 0 0 568.37 298.37" fill="#144955"/><path d="M 571.63 298.37 A 26.74 26.74 0 0 1  598.37 271.63 L 571.63 298.37 A 26.74 26.74 0 0 0 598.37 271.63" fill="#6c81b2"/><path d="M 631.63 271.63 A 26.74 26.74 0 0 1  658.37 298.37 L 631.63 271.63 A 26.74 26.74 0 0 0 658.37 298.37" fill="#d2ecf1"/><path d="M 661.63 271.63 A 26.74 26.74 0 0 1  688.37 298.37 L 661.63 271.63 A 26.74 26.74 0 0 0 688.37 298.37" fill="#0d4151"/><path d="M 691.63 271.63 A 26.74 26.74 0 0 1  718.37 298.37 L 691.63 271.63 A 26.74 26.74 0 0 0 718.37 298.37" fill="#4f7c85"/><path d="M 722.05 297.96000000000004 A 25.91 25.91 0 0 1  747.9599999999999 272.05 L 722.05 297.96000000000004 A 25.91 25.91 0 0 0 747.9599999999999 272.05" fill="#bac7d0"/><path d="M 752.67 272.67 A 24.66 24.66 0 0 1  777.3299999999999 297.33000000000004 L 752.67 272.67 A 24.66 24.66 0 0 0 777.3299999999999 297.33000000000004" fill="#5e808b"/><rect x="783.29088" y="273.29088" width="23.41824" height="23.41824" fill="none"/><path d="M 795 273.29 A 11.71 11.71 0 0 1  806.71 285 L 795 273.29 A 11.71 11.71 0 0 0 806.71 285" fill="#bdc9d2"/><path d="M 783.29 296.71 A 11.71 11.71 0 0 1  795 285 L 783.29 296.71 A 11.71 11.71 0 0 0 795 285" fill="#63848f"/><path d="M 795 296.71 A 11.71 11.71 0 0 1  806.71 285 L 795 296.71 A 11.71 11.71 0 0 0 806.71 285" fill="#395f7e"/><rect x="813.91296" y="273.91296" width="22.174079999999996" height="22.174079999999996" fill="none"/><path d="M 825 285 A 11.09 11.09 0 0 1  836.09 273.91 L 825 285 A 11.09 11.09 0 0 0 836.09 273.91" fill="#a8b9c3"/><path d="M 813.91 296.09 A 11.09 11.09 0 0 1  825 285 L 813.91 296.09 A 11.09 11.09 0 0 0 825 285" fill="#a0a5e7"/><path d="M 844.54 295.47 A 20.93 20.93 0 0 1  865.4699999999999 274.54 L 844.54 295.47 A 20.93 20.93 0 0 0 865.4699999999999 274.54" fill="#9aa0e0"/><path d="M 875.16 294.85 A 19.69 19.69 0 0 1  894.85 275.16 L 875.16 294.85 A 19.69 19.69 0 0 0 894.85 275.16" fill="#033b47"/><path d="M 967.02 277.02 A 15.95 15.95 0 0 1  982.97 292.96999999999997 L 967.02 277.02 A 15.95 15.95 0 0 0 982.97 292.96999999999997" fill="#cae5ea"/><path d="M 275.78 305.78 A 18.44 18.44 0 0 1  294.21999999999997 324.21999999999997 L 275.78 305.78 A 18.44 18.44 0 0 0 294.21999999999997 324.21999999999997" fill="#4a7881"/><rect x="305.088" y="305.088" width="19.823999999999998" height="19.823999999999998" fill="none"/><path d="M 315 305.09 A 9.91 9.91 0 0 1  324.91 315 L 315 305.09 A 9.91 9.91 0 0 0 324.91 315" fill="#1d4c61"/><path d="M 305.09 315 A 9.91 9.91 0 0 1  315 324.91 L 305.09 315 A 9.91 9.91 0 0 0 315 324.91" fill="#6e969e"/><path d="M 315 315 A 9.91 9.91 0 0 1  324.91 324.91 L 315 315 A 9.91 9.91 0 0 0 324.91 324.91" fill="#d8dee7"/><path d="M 334.4 304.4 A 21.21 21.21 0 0 1  355.60999999999996 325.60999999999996 L 334.4 304.4 A 21.21 21.21 0 0 0 355.60999999999996 325.60999999999996" fill="#a7a9ed"/><path d="M 393.01 326.98 A 23.97 23.97 0 0 1  416.98 303.01 L 393.01 326.98 A 23.97 23.97 0 0 0 416.98 303.01" fill="#134753"/><path d="M 451.63 301.63 A 26.74 26.74 0 0 1  478.37 328.37 L 451.63 301.63 A 26.74 26.74 0 0 0 478.37 328.37" fill="#89a1ac"/><path d="M 480.94 329.06 A 28.12 28.12 0 0 1  509.06 300.94 L 480.94 329.06 A 28.12 28.12 0 0 0 509.06 300.94" fill="#2d5b66"/><path d="M 510.48 300.48 A 29.04 29.04 0 0 1  539.52 329.52000000000004 L 510.48 300.48 A 29.04 29.04 0 0 0 539.52 329.52000000000004" fill="#4d737e"/><rect x="540.48" y="300.48" width="29.04" height="29.04" fill="none"/><path d="M 540.48 300.48 A 14.52 14.52 0 0 1  555 315 L 540.48 300.48 A 14.52 14.52 0 0 0 555 315" fill="#3f6384"/><path d="M 555 300.48 A 14.52 14.52 0 0 1  569.52 315 L 555 300.48 A 14.52 14.52 0 0 0 569.52 315" fill="#335b78"/><path d="M 555 329.52 A 14.52 14.52 0 0 1  569.52 315 L 555 329.52 A 14.52 14.52 0 0 0 569.52 315" fill="#0c414d"/><rect x="570.48" y="300.48" width="29.04" height="29.04" fill="none"/><path d="M 570.48 315 A 14.52 14.52 0 0 1  585 300.48 L 570.48 315 A 14.52 14.52 0 0 0 585 300.48" fill="#9dbec5"/><path d="M 585 300.48 A 14.52 14.52 0 0 1  599.52 315 L 585 300.48 A 14.52 14.52 0 0 0 599.52 315" fill="#8c97d2"/><path d="M 570.48 329.52 A 14.52 14.52 0 0 1  585 315 L 570.48 329.52 A 14.52 14.52 0 0 0 585 315" fill="#4e7b84"/><path d="M 585 315 A 14.52 14.52 0 0 1  599.52 329.52 L 585 315 A 14.52 14.52 0 0 0 599.52 329.52" fill="#b2d0d6"/><rect x="600.48" y="300.48" width="29.04" height="29.04" fill="none"/><path d="M 600.48 300.48 A 14.52 14.52 0 0 1  615 315 L 600.48 300.48 A 14.52 14.52 0 0 0 615 315" fill="#91b4bb"/><path d="M 615 300.48 A 14.52 14.52 0 0 1  629.52 315 L 615 300.48 A 14.52 14.52 0 0 0 629.52 315" fill="#124652"/><path d="M 600.48 329.52 A 14.52 14.52 0 0 1  615 315 L 600.48 329.52 A 14.52 14.52 0 0 0 615 315" fill="#a1c1c8"/><path d="M 615 329.52 A 14.52 14.52 0 0 1  629.52 315 L 615 329.52 A 14.52 14.52 0 0 0 629.52 315" fill="#3a6470"/><path d="M 630.48 329.52000000000004 A 29.04 29.04 0 0 1  659.52 300.48 L 630.48 329.52000000000004 A 29.04 29.04 0 0 0 659.52 300.48" fill="#083f4b"/><rect x="660.48" y="300.48" width="29.04" height="29.04" fill="none"/><path d="M 660.48 315 A 14.52 14.52 0 0 1  675 300.48 L 660.48 315 A 14.52 14.52 0 0 0 675 300.48" fill="#19495d"/><path d="M 675 300.48 A 14.52 14.52 0 0 1  689.52 315 L 675 300.48 A 14.52 14.52 0 0 0 689.52 315" fill="#7c8cc2"/><path d="M 660.48 315 A 14.52 14.52 0 0 1  675 329.52 L 660.48 315 A 14.52 14.52 0 0 0 675 329.52" fill="#2a546e"/><path d="M 675 329.52 A 14.52 14.52 0 0 1  689.52 315 L 675 329.52 A 14.52 14.52 0 0 0 689.52 315" fill="#9da3e4"/><path d="M 690.48 329.52000000000004 A 29.04 29.04 0 0 1  719.52 300.48 L 690.48 329.52000000000004 A 29.04 29.04 0 0 0 719.52 300.48" fill="#0a3f4b"/><path d="M 720.94 329.06 A 28.12 28.12 0 0 1  749.0600000000001 300.94 L 720.94 329.06 A 28.12 28.12 0 0 0 749.0600000000001 300.94" fill="#345b78"/><rect x="751.632" y="301.632" width="26.735999999999997" height="26.735999999999997" fill="none"/><path d="M 751.63 301.63 A 13.37 13.37 0 0 1  765 315 L 751.63 301.63 A 13.37 13.37 0 0 0 765 315" fill="#33606b"/><path d="M 765 315 A 13.37 13.37 0 0 1  778.37 328.37 L 765 315 A 13.37 13.37 0 0 0 778.37 328.37" fill="#235661"/><path d="M 813.01 303.01 A 23.97 23.97 0 0 1  836.98 326.98 L 813.01 303.01 A 23.97 23.97 0 0 0 836.98 326.98" fill="#43727b"/><path d="M 843.71 326.29999999999995 A 22.59 22.59 0 0 1  866.3000000000001 303.71 L 843.71 326.29999999999995 A 22.59 22.59 0 0 0 866.3000000000001 303.71" fill="#749ba3"/><path d="M 874.4 325.60999999999996 A 21.21 21.21 0 0 1  895.61 304.4 L 874.4 325.60999999999996 A 21.21 21.21 0 0 0 895.61 304.4" fill="#224f66"/><path d="M 905.09 305.09 A 19.82 19.82 0 0 1  924.9100000000001 324.90999999999997 L 905.09 305.09 A 19.82 19.82 0 0 0 924.9100000000001 324.90999999999997" fill="#2f5c68"/><path d="M 935.78 305.78 A 18.44 18.44 0 0 1  954.22 324.21999999999997 L 935.78 305.78 A 18.44 18.44 0 0 0 954.22 324.21999999999997" fill="#9ebfc6"/><path d="M 966.47 306.47 A 17.06 17.06 0 0 1  983.53 323.53000000000003 L 966.47 306.47 A 17.06 17.06 0 0 0 983.53 323.53000000000003" fill="#798abf"/><path d="M 41.28 348.71999999999997 A 7.44 7.44 0 0 1  48.72 341.28 L 41.28 348.71999999999997 A 7.44 7.44 0 0 0 48.72 341.28" fill="#0c414d"/><path d="M 129.12 350.88 A 11.76 11.76 0 0 1  140.88 339.12 L 129.12 350.88 A 11.76 11.76 0 0 0 140.88 339.12" fill="#aebec8"/><rect x="216.96" y="336.96" width="16.08" height="16.08" fill="none"/><path d="M 225 345 A 8.04 8.04 0 0 1  233.04 336.96 L 225 345 A 8.04 8.04 0 0 0 233.04 336.96" fill="#6c949c"/><rect x="275.52" y="335.52" width="18.96" height="18.96" fill="none"/><path d="M 304.8 334.8 A 20.4 20.4 0 0 1  325.2 355.2 L 304.8 334.8 A 20.4 20.4 0 0 0 325.2 355.2" fill="#255560"/><path d="M 363.36 333.36 A 23.28 23.28 0 0 1  386.64 356.64 L 363.36 333.36 A 23.28 23.28 0 0 0 386.64 356.64" fill="#30616c"/><path d="M 421.92 358.08000000000004 A 26.16 26.16 0 0 1  448.08000000000004 331.92 L 421.92 358.08000000000004 A 26.16 26.16 0 0 0 448.08000000000004 331.92" fill="#063c4a"/><path d="M 451.2 358.8 A 27.6 27.6 0 0 1  478.8 331.2 L 451.2 358.8 A 27.6 27.6 0 0 0 478.8 331.2" fill="#204e64"/><path d="M 480.48 359.52000000000004 A 29.04 29.04 0 0 1  509.52000000000004 330.48 L 480.48 359.52000000000004 A 29.04 29.04 0 0 0 509.52000000000004 330.48" fill="#e4e7f0"/><path d="M 510 330 A 30 30 0 0 1  540 360 L 510 330 A 30 30 0 0 0 540 360" fill="#7d98a3"/><path d="M 540 360 A 30 30 0 0 1  570 330 L 540 360 A 30 30 0 0 0 570 330" fill="#396973"/><path d="M 570 360 A 30 30 0 0 1  600 330 L 570 360 A 30 30 0 0 0 600 330" fill="#bcd9de"/><path d="M 600 330 A 30 30 0 0 1  630 360 L 600 330 A 30 30 0 0 0 630 360" fill="#335b78"/><path d="M 630 360 A 30 30 0 0 1  660 330 L 630 360 A 30 30 0 0 0 660 330" fill="#99a0e0"/><rect x="660" y="330" width="30" height="30" fill="none"/><path d="M 660 345 A 15 15 0 0 1  675 330 L 660 345 A 15 15 0 0 0 675 330" fill="#a1b4be"/><path d="M 675 330 A 15 15 0 0 1  690 345 L 675 330 A 15 15 0 0 0 690 345" fill="#19495d"/><path d="M 660 345 A 15 15 0 0 1  675 360 L 660 345 A 15 15 0 0 0 675 360" fill="#a4c4ca"/><path d="M 675 345 A 15 15 0 0 1  690 360 L 675 345 A 15 15 0 0 0 690 360" fill="#45678b"/><rect x="690" y="330" width="30" height="30" fill="none"/><path d="M 690 330 A 15 15 0 0 1  705 345 L 690 330 A 15 15 0 0 0 705 345" fill="#235661"/><path d="M 705 330 A 15 15 0 0 1  720 345 L 705 330 A 15 15 0 0 0 720 345" fill="#8e98d4"/><path d="M 690 345 A 15 15 0 0 1  705 360 L 690 345 A 15 15 0 0 0 705 360" fill="#1f505b"/><path d="M 705 360 A 15 15 0 0 1  720 345 L 705 360 A 15 15 0 0 0 720 345" fill="#1c4b60"/><rect x="720.48" y="330.48" width="29.04" height="29.04" fill="none"/><path d="M 720.48 345 A 14.52 14.52 0 0 1  735 330.48 L 720.48 345 A 14.52 14.52 0 0 0 735 330.48" fill="#7e8ec4"/><path d="M 735 345 A 14.52 14.52 0 0 1  749.52 330.48 L 735 345 A 14.52 14.52 0 0 0 749.52 330.48" fill="#0b414c"/><path d="M 720.48 359.52 A 14.52 14.52 0 0 1  735 345 L 720.48 359.52 A 14.52 14.52 0 0 0 735 345" fill="#88acb4"/><path d="M 735 359.52 A 14.52 14.52 0 0 1  749.52 345 L 735 359.52 A 14.52 14.52 0 0 0 749.52 345" fill="#0f434f"/><path d="M 751.2 358.8 A 27.6 27.6 0 0 1  778.8000000000001 331.2 L 751.2 358.8 A 27.6 27.6 0 0 0 778.8000000000001 331.2" fill="#ccd5de"/><path d="M 781.92 331.92 A 26.16 26.16 0 0 1  808.0799999999999 358.08000000000004 L 781.92 331.92 A 26.16 26.16 0 0 0 808.0799999999999 358.08000000000004" fill="#1b4d59"/><path d="M 843.36 356.64 A 23.28 23.28 0 0 1  866.64 333.36 L 843.36 356.64 A 23.28 23.28 0 0 0 866.64 333.36" fill="#7d8dc3"/><path d="M 874.08 334.08 A 21.84 21.84 0 0 1  895.9200000000001 355.91999999999996 L 874.08 334.08 A 21.84 21.84 0 0 0 895.9200000000001 355.91999999999996" fill="#2b5570"/><path d="M 904.8 334.8 A 20.4 20.4 0 0 1  925.1999999999999 355.2 L 904.8 334.8 A 20.4 20.4 0 0 0 925.1999999999999 355.2" fill="#1b4f5a"/><path d="M 935.52 335.52 A 18.96 18.96 0 0 1  954.48 354.47999999999996 L 935.52 335.52 A 18.96 18.96 0 0 0 954.48 354.47999999999996" fill="#2c5a65"/><path d="M 966.24 336.24 A 17.52 17.52 0 0 1  983.76 353.76 L 966.24 336.24 A 17.52 17.52 0 0 0 983.76 353.76" fill="#4e747f"/><rect x="187.68" y="367.68" width="14.64" height="14.64" fill="none"/><path d="M 216.96 366.96 A 16.08 16.08 0 0 1  233.04000000000002 383.03999999999996 L 216.96 366.96 A 16.08 16.08 0 0 0 233.04000000000002 383.03999999999996" fill="#cfe9ed"/><path d="M 246.24 383.76 A 17.52 17.52 0 0 1  263.76 366.24 L 246.24 383.76 A 17.52 17.52 0 0 0 263.76 366.24" fill="#516f96"/><path d="M 275.52 384.47999999999996 A 18.96 18.96 0 0 1  294.47999999999996 365.52 L 275.52 384.47999999999996 A 18.96 18.96 0 0 0 294.47999999999996 365.52" fill="#d6eff4"/><path d="M 304.8 364.8 A 20.4 20.4 0 0 1  325.2 385.2 L 304.8 364.8 A 20.4 20.4 0 0 0 325.2 385.2" fill="#063c4b"/><path d="M 334.08 385.91999999999996 A 21.84 21.84 0 0 1  355.91999999999996 364.08 L 334.08 385.91999999999996 A 21.84 21.84 0 0 0 355.91999999999996 364.08" fill="#0f4450"/><path d="M 392.64 362.64 A 24.72 24.72 0 0 1  417.36 387.36 L 392.64 362.64 A 24.72 24.72 0 0 0 417.36 387.36" fill="#b7c4ce"/><path d="M 421.92 361.92 A 26.16 26.16 0 0 1  448.08000000000004 388.08000000000004 L 421.92 361.92 A 26.16 26.16 0 0 0 448.08000000000004 388.08000000000004" fill="#6a8994"/><rect x="451.2" y="361.2" width="27.599999999999998" height="27.599999999999998" fill="none"/><path d="M 451.2 361.2 A 13.8 13.8 0 0 1  465 375 L 451.2 361.2 A 13.8 13.8 0 0 0 465 375" fill="#969edc"/><path d="M 465 375 A 13.8 13.8 0 0 1  478.8 361.2 L 465 375 A 13.8 13.8 0 0 0 478.8 361.2" fill="#e4fbff"/><path d="M 451.2 375 A 13.8 13.8 0 0 1  465 388.8 L 451.2 375 A 13.8 13.8 0 0 0 465 388.8" fill="#3b6671"/><path d="M 465 388.8 A 13.8 13.8 0 0 1  478.8 375 L 465 388.8 A 13.8 13.8 0 0 0 478.8 375" fill="#3f6874"/><path d="M 480.48 360.48 A 29.04 29.04 0 0 1  509.52000000000004 389.52000000000004 L 480.48 360.48 A 29.04 29.04 0 0 0 509.52000000000004 389.52000000000004" fill="#204d64"/><rect x="510" y="360" width="30" height="30" fill="none"/><path d="M 510 375 A 15 15 0 0 1  525 360 L 510 375 A 15 15 0 0 0 525 360" fill="#adbdc7"/><path d="M 525 360 A 15 15 0 0 1  540 375 L 525 360 A 15 15 0 0 0 540 375" fill="#406e78"/><path d="M 510 390 A 15 15 0 0 1  525 375 L 510 390 A 15 15 0 0 0 525 375" fill="#b9d6dc"/><path d="M 525 390 A 15 15 0 0 1  540 375 L 525 390 A 15 15 0 0 0 540 375" fill="#365d7b"/><path d="M 540 390 A 30 30 0 0 1  570 360 L 540 390 A 30 30 0 0 0 570 360" fill="#8492ca"/><path d="M 570 360 A 30 30 0 0 1  600 390 L 570 360 A 30 30 0 0 0 600 390" fill="#0a404c"/><path d="M 600 360 A 30 30 0 0 1  630 390 L 600 360 A 30 30 0 0 0 630 390" fill="#a7b8c2"/><path d="M 630 390 A 30 30 0 0 1  660 360 L 630 390 A 30 30 0 0 0 660 360" fill="#ddf5f9"/><path d="M 660 390 A 30 30 0 0 1  690 360 L 660 390 A 30 30 0 0 0 690 360" fill="#1d4e5a"/><rect x="690" y="360" width="30" height="30" fill="none"/><path d="M 690 375 A 15 15 0 0 1  705 360 L 690 375 A 15 15 0 0 0 705 360" fill="#4e6d94"/><path d="M 705 360 A 15 15 0 0 1  720 375 L 705 360 A 15 15 0 0 0 720 375" fill="#32636d"/><path d="M 690 375 A 15 15 0 0 1  705 390 L 690 375 A 15 15 0 0 0 705 390" fill="#3b6080"/><path d="M 705 390 A 15 15 0 0 1  720 375 L 705 390 A 15 15 0 0 0 720 375" fill="#9ba1e1"/><path d="M 720.48 389.52000000000004 A 29.04 29.04 0 0 1  749.52 360.48 L 720.48 389.52000000000004 A 29.04 29.04 0 0 0 749.52 360.48" fill="#1d4c61"/><path d="M 751.2 361.2 A 27.6 27.6 0 0 1  778.8000000000001 388.8 L 751.2 361.2 A 27.6 27.6 0 0 0 778.8000000000001 388.8" fill="#7199a1"/><rect x="781.92" y="361.92" width="26.16" height="26.16" fill="none"/><path d="M 795 361.92 A 13.08 13.08 0 0 1  808.08 375 L 795 361.92 A 13.08 13.08 0 0 0 808.08 375" fill="#7d8dc3"/><path d="M 781.92 388.08 A 13.08 13.08 0 0 1  795 375 L 781.92 388.08 A 13.08 13.08 0 0 0 795 375" fill="#bedae0"/><path d="M 795 375 A 13.08 13.08 0 0 1  808.08 388.08 L 795 375 A 13.08 13.08 0 0 0 808.08 388.08" fill="#c1dde2"/><path d="M 843.36 363.36 A 23.28 23.28 0 0 1  866.64 386.64 L 843.36 363.36 A 23.28 23.28 0 0 0 866.64 386.64" fill="#275662"/><rect x="966.24" y="366.24" width="17.519999999999996" height="17.519999999999996" fill="none"/><path d="M 975 366.24 A 8.76 8.76 0 0 1  983.76 375 L 975 366.24 A 8.76 8.76 0 0 0 983.76 375" fill="#c8e3e8"/><path d="M 996.96 366.96 A 16.08 16.08 0 0 1  1013.0400000000001 383.03999999999996 L 996.96 366.96 A 16.08 16.08 0 0 0 1013.0400000000001 383.03999999999996" fill="#325a76"/><path d="M 129.12 399.12 A 11.76 11.76 0 0 1  140.88 410.88 L 129.12 399.12 A 11.76 11.76 0 0 0 140.88 410.88" fill="#62848e"/><path d="M 158.4 411.59999999999997 A 13.2 13.2 0 0 1  171.6 398.4 L 158.4 411.59999999999997 A 13.2 13.2 0 0 0 171.6 398.4" fill="#55719a"/><rect x="246.24" y="396.24" width="17.519999999999996" height="17.519999999999996" fill="none"/><path d="M 246.24 405 A 8.76 8.76 0 0 1  255 396.24 L 246.24 405 A 8.76 8.76 0 0 0 255 396.24" fill="#8c97d2"/><path d="M 255 396.24 A 8.76 8.76 0 0 1  263.76 405 L 255 396.24 A 8.76 8.76 0 0 0 263.76 405" fill="#4d7a84"/><path d="M 275.52 395.52 A 18.96 18.96 0 0 1  294.47999999999996 414.47999999999996 L 275.52 395.52 A 18.96 18.96 0 0 0 294.47999999999996 414.47999999999996" fill="#5a759f"/><path d="M 334.08 394.08 A 21.84 21.84 0 0 1  355.91999999999996 415.91999999999996 L 334.08 394.08 A 21.84 21.84 0 0 0 355.91999999999996 415.91999999999996" fill="#d2d9e3"/><path d="M 363.36 393.36 A 23.28 23.28 0 0 1  386.64 416.64 L 363.36 393.36 A 23.28 23.28 0 0 0 386.64 416.64" fill="#759ca4"/><path d="M 392.64 392.64 A 24.72 24.72 0 0 1  417.36 417.36 L 392.64 392.64 A 24.72 24.72 0 0 0 417.36 417.36" fill="#194e59"/><path d="M 421.92 391.92 A 26.16 26.16 0 0 1  448.08000000000004 418.08000000000004 L 421.92 391.92 A 26.16 26.16 0 0 0 448.08000000000004 418.08000000000004" fill="#0c424e"/><path d="M 451.2 418.8 A 27.6 27.6 0 0 1  478.8 391.2 L 451.2 418.8 A 27.6 27.6 0 0 0 478.8 391.2" fill="#d8dee7"/><path d="M 480.48 390.48 A 29.04 29.04 0 0 1  509.52000000000004 419.52000000000004 L 480.48 390.48 A 29.04 29.04 0 0 0 509.52000000000004 419.52000000000004" fill="#7789bd"/><path d="M 510 390 A 30 30 0 0 1  540 420 L 510 390 A 30 30 0 0 0 540 420" fill="#5e78a4"/><path d="M 540 390 A 30 30 0 0 1  570 420 L 540 390 A 30 30 0 0 0 570 420" fill="#97acb6"/><path d="M 570 420 A 30 30 0 0 1  600 390 L 570 420 A 30 30 0 0 0 600 390" fill="#678792"/><path d="M 600 420 A 30 30 0 0 1  630 390 L 600 420 A 30 30 0 0 0 630 390" fill="#8c97d2"/><path d="M 630 420 A 30 30 0 0 1  660 390 L 630 420 A 30 30 0 0 0 660 390" fill="#99bbc2"/><rect x="660" y="390" width="30" height="30" fill="none"/><path d="M 660 390 A 15 15 0 0 1  675 405 L 660 390 A 15 15 0 0 0 675 405" fill="#ccd5de"/><path d="M 675 390 A 15 15 0 0 1  690 405 L 675 390 A 15 15 0 0 0 690 405" fill="#9da2e3"/><path d="M 660 420 A 15 15 0 0 1  675 405 L 660 420 A 15 15 0 0 0 675 405" fill="#d2d9e2"/><path d="M 675 420 A 15 15 0 0 1  690 405 L 675 420 A 15 15 0 0 0 690 405" fill="#9fc0c7"/><path d="M 690 390 A 30 30 0 0 1  720 420 L 690 390 A 30 30 0 0 0 720 420" fill="#dbf3f7"/><path d="M 720.48 419.52000000000004 A 29.04 29.04 0 0 1  749.52 390.48 L 720.48 419.52000000000004 A 29.04 29.04 0 0 0 749.52 390.48" fill="#e5e8f1"/><path d="M 751.2 418.8 A 27.6 27.6 0 0 1  778.8000000000001 391.2 L 751.2 418.8 A 27.6 27.6 0 0 0 778.8000000000001 391.2" fill="#bad7dd"/><rect x="781.92" y="391.92" width="26.16" height="26.16" fill="none"/><path d="M 781.92 405 A 13.08 13.08 0 0 1  795 391.92 L 781.92 405 A 13.08 13.08 0 0 0 795 391.92" fill="#a1c1c8"/><path d="M 795 405 A 13.08 13.08 0 0 1  808.08 391.92 L 795 405 A 13.08 13.08 0 0 0 808.08 391.92" fill="#9db0ba"/><path d="M 781.92 418.08 A 13.08 13.08 0 0 1  795 405 L 781.92 418.08 A 13.08 13.08 0 0 0 795 405" fill="#5b7e89"/><path d="M 795 405 A 13.08 13.08 0 0 1  808.08 418.08 L 795 405 A 13.08 13.08 0 0 0 808.08 418.08" fill="#2e5772"/><path d="M 812.64 392.64 A 24.72 24.72 0 0 1  837.36 417.36 L 812.64 392.64 A 24.72 24.72 0 0 0 837.36 417.36" fill="#416487"/><path d="M 843.36 416.64 A 23.28 23.28 0 0 1  866.64 393.36 L 843.36 416.64 A 23.28 23.28 0 0 0 866.64 393.36" fill="#cad3dd"/><path d="M 904.8 394.8 A 20.4 20.4 0 0 1  925.1999999999999 415.2 L 904.8 394.8 A 20.4 20.4 0 0 0 925.1999999999999 415.2" fill="#c0cbd5"/><path d="M 966.24 396.24 A 17.52 17.52 0 0 1  983.76 413.76 L 966.24 396.24 A 17.52 17.52 0 0 0 983.76 413.76" fill="#1e525d"/><path d="M 158.4 428.4 A 13.2 13.2 0 0 1  171.6 441.59999999999997 L 158.4 428.4 A 13.2 13.2 0 0 0 171.6 441.59999999999997" fill="#b3c1cb"/><path d="M 334.08 424.08 A 21.84 21.84 0 0 1  355.91999999999996 445.91999999999996 L 334.08 424.08 A 21.84 21.84 0 0 0 355.91999999999996 445.91999999999996" fill="#ccd4de"/><rect x="392.64" y="422.64" width="24.720000000000002" height="24.720000000000002" fill="none"/><path d="M 392.64 422.64 A 12.36 12.36 0 0 1  405 435 L 392.64 422.64 A 12.36 12.36 0 0 0 405 435" fill="#a6c6cc"/><path d="M 405 435 A 12.36 12.36 0 0 1  417.36 422.64 L 405 435 A 12.36 12.36 0 0 0 417.36 422.64" fill="#0e444f"/><path d="M 392.64 447.36 A 12.36 12.36 0 0 1  405 435 L 392.64 447.36 A 12.36 12.36 0 0 0 405 435" fill="#21545f"/><path d="M 421.92 421.92 A 26.16 26.16 0 0 1  448.08000000000004 448.08000000000004 L 421.92 421.92 A 26.16 26.16 0 0 0 448.08000000000004 448.08000000000004" fill="#abbbc5"/><rect x="451.2" y="421.2" width="27.599999999999998" height="27.599999999999998" fill="none"/><path d="M 451.2 435 A 13.8 13.8 0 0 1  465 421.2 L 451.2 435 A 13.8 13.8 0 0 0 465 421.2" fill="#204e65"/><path d="M 465 435 A 13.8 13.8 0 0 1  478.8 421.2 L 465 435 A 13.8 13.8 0 0 0 478.8 421.2" fill="#275964"/><path d="M 451.2 435 A 13.8 13.8 0 0 1  465 448.8 L 451.2 435 A 13.8 13.8 0 0 0 465 448.8" fill="#144558"/><path d="M 465 448.8 A 13.8 13.8 0 0 1  478.8 435 L 465 448.8 A 13.8 13.8 0 0 0 478.8 435" fill="#aabbc4"/><rect x="480.48" y="420.48" width="29.04" height="29.04" fill="none"/><path d="M 480.48 420.48 A 14.52 14.52 0 0 1  495 435 L 480.48 420.48 A 14.52 14.52 0 0 0 495 435" fill="#54719a"/><path d="M 495 435 A 14.52 14.52 0 0 1  509.52 420.48 L 495 435 A 14.52 14.52 0 0 0 509.52 420.48" fill="#31626c"/><path d="M 480.48 435 A 14.52 14.52 0 0 1  495 449.52 L 480.48 435 A 14.52 14.52 0 0 0 495 449.52" fill="#c2cdd6"/><path d="M 495 435 A 14.52 14.52 0 0 1  509.52 449.52 L 495 435 A 14.52 14.52 0 0 0 509.52 449.52" fill="#759ca4"/><path d="M 510 420 A 30 30 0 0 1  540 450 L 510 420 A 30 30 0 0 0 540 450" fill="#b3b2fa"/><path d="M 540 450 A 30 30 0 0 1  570 420 L 540 450 A 30 30 0 0 0 570 420" fill="#89adb4"/><path d="M 570 450 A 30 30 0 0 1  600 420 L 570 450 A 30 30 0 0 0 600 420" fill="#637ba9"/><rect x="600" y="420" width="30" height="30" fill="none"/><path d="M 600 435 A 15 15 0 0 1  615 420 L 600 435 A 15 15 0 0 0 615 420" fill="#85aab1"/><path d="M 615 435 A 15 15 0 0 1  630 420 L 615 435 A 15 15 0 0 0 630 420" fill="#285762"/><path d="M 600 450 A 15 15 0 0 1  615 435 L 600 450 A 15 15 0 0 0 615 435" fill="#537099"/><path d="M 615 450 A 15 15 0 0 1  630 435 L 615 450 A 15 15 0 0 0 630 435" fill="#507c86"/><path d="M 630 420 A 30 30 0 0 1  660 450 L 630 420 A 30 30 0 0 0 660 450" fill="#466d79"/><path d="M 660 420 A 30 30 0 0 1  690 450 L 660 420 A 30 30 0 0 0 690 450" fill="#8b97d2"/><path d="M 690 450 A 30 30 0 0 1  720 420 L 690 450 A 30 30 0 0 0 720 420" fill="#82a7ae"/><path d="M 720.48 449.52000000000004 A 29.04 29.04 0 0 1  749.52 420.48 L 720.48 449.52000000000004 A 29.04 29.04 0 0 0 749.52 420.48" fill="#194c57"/><path d="M 751.2 448.8 A 27.6 27.6 0 0 1  778.8000000000001 421.2 L 751.2 448.8 A 27.6 27.6 0 0 0 778.8000000000001 421.2" fill="#637ba9"/><path d="M 781.92 421.92 A 26.16 26.16 0 0 1  808.0799999999999 448.08000000000004 L 781.92 421.92 A 26.16 26.16 0 0 0 808.0799999999999 448.08000000000004" fill="#3f6284"/><path d="M 812.64 422.64 A 24.72 24.72 0 0 1  837.36 447.36 L 812.64 422.64 A 24.72 24.72 0 0 0 837.36 447.36" fill="#9aa0e0"/><path d="M 843.36 446.64 A 23.28 23.28 0 0 1  866.64 423.36 L 843.36 446.64 A 23.28 23.28 0 0 0 866.64 423.36" fill="#4e747f"/><path d="M 874.08 424.08 A 21.84 21.84 0 0 1  895.9200000000001 445.91999999999996 L 874.08 424.08 A 21.84 21.84 0 0 0 895.9200000000001 445.91999999999996" fill="#1d4e5a"/><rect x="1150.56" y="430.56" width="8.879999999999995" height="8.879999999999995" fill="none"/><path d="M 217.16 457.16 A 15.68 15.68 0 0 1  232.84 472.84000000000003 L 217.16 457.16 A 15.68 15.68 0 0 0 232.84 472.84000000000003" fill="#d1ebf0"/><rect x="334.3968" y="454.3968" width="21.206400000000002" height="21.206400000000002" fill="none"/><path d="M 334.4 454.4 A 10.6 10.6 0 0 1  345 465 L 334.4 454.4 A 10.6 10.6 0 0 0 345 465" fill="#2f5c68"/><path d="M 334.4 465 A 10.6 10.6 0 0 1  345 475.6 L 334.4 465 A 10.6 10.6 0 0 0 345 475.6" fill="#3c6671"/><path d="M 345 475.6 A 10.6 10.6 0 0 1  355.6 465 L 345 475.6 A 10.6 10.6 0 0 0 355.6 465" fill="#7c97a2"/><path d="M 363.71 453.71 A 22.59 22.59 0 0 1  386.29999999999995 476.29999999999995 L 363.71 453.71 A 22.59 22.59 0 0 0 386.29999999999995 476.29999999999995" fill="#3b6080"/><path d="M 393.01 453.01 A 23.97 23.97 0 0 1  416.98 476.98 L 393.01 453.01 A 23.97 23.97 0 0 0 416.98 476.98" fill="#3b6b74"/><path d="M 422.32 477.67 A 25.35 25.35 0 0 1  447.67 452.32 L 422.32 477.67 A 25.35 25.35 0 0 0 447.67 452.32" fill="#46737d"/><path d="M 451.63 478.37 A 26.74 26.74 0 0 1  478.37 451.63 L 451.63 478.37 A 26.74 26.74 0 0 0 478.37 451.63" fill="#063d49"/><rect x="480.9408" y="450.9408" width="28.1184" height="28.1184" fill="none"/><path d="M 480.94 450.94 A 14.06 14.06 0 0 1  495 465 L 480.94 450.94 A 14.06 14.06 0 0 0 495 465" fill="#8190c8"/><path d="M 495 465 A 14.06 14.06 0 0 1  509.06 450.94 L 495 465 A 14.06 14.06 0 0 0 509.06 450.94" fill="#83a8af"/><path d="M 495 479.06 A 14.06 14.06 0 0 1  509.06 465 L 495 479.06 A 14.06 14.06 0 0 0 509.06 465" fill="#1a4f5a"/><path d="M 510.48 450.48 A 29.04 29.04 0 0 1  539.52 479.52000000000004 L 510.48 450.48 A 29.04 29.04 0 0 0 539.52 479.52000000000004" fill="#779ea6"/><path d="M 540.48 450.48 A 29.04 29.04 0 0 1  569.52 479.52000000000004 L 540.48 450.48 A 29.04 29.04 0 0 0 569.52 479.52000000000004" fill="#305d68"/><rect x="570.48" y="450.48" width="29.04" height="29.04" fill="none"/><path d="M 570.48 465 A 14.52 14.52 0 0 1  585 450.48 L 570.48 465 A 14.52 14.52 0 0 0 585 450.48" fill="#5c77a2"/><path d="M 585 465 A 14.52 14.52 0 0 1  599.52 450.48 L 585 465 A 14.52 14.52 0 0 0 599.52 450.48" fill="#053b49"/><path d="M 570.48 479.52 A 14.52 14.52 0 0 1  585 465 L 570.48 479.52 A 14.52 14.52 0 0 0 585 465" fill="#97b9c0"/><path d="M 585 465 A 14.52 14.52 0 0 1  599.52 479.52 L 585 465 A 14.52 14.52 0 0 0 599.52 479.52" fill="#aabac4"/><path d="M 600.48 479.52000000000004 A 29.04 29.04 0 0 1  629.52 450.48 L 600.48 479.52000000000004 A 29.04 29.04 0 0 0 629.52 450.48" fill="#c3ced7"/><path d="M 630.48 450.48 A 29.04 29.04 0 0 1  659.52 479.52000000000004 L 630.48 450.48 A 29.04 29.04 0 0 0 659.52 479.52000000000004" fill="#7b96a1"/><path d="M 660.48 450.48 A 29.04 29.04 0 0 1  689.52 479.52000000000004 L 660.48 450.48 A 29.04 29.04 0 0 0 689.52 479.52000000000004" fill="#063c4a"/><rect x="690.48" y="450.48" width="29.04" height="29.04" fill="none"/><path d="M 690.48 450.48 A 14.52 14.52 0 0 1  705 465 L 690.48 450.48 A 14.52 14.52 0 0 0 705 465" fill="#a1c1c8"/><path d="M 705 450.48 A 14.52 14.52 0 0 1  719.52 465 L 705 450.48 A 14.52 14.52 0 0 0 719.52 465" fill="#8995d0"/><path d="M 690.48 479.52 A 14.52 14.52 0 0 1  705 465 L 690.48 479.52 A 14.52 14.52 0 0 0 705 465" fill="#8a96d0"/><path d="M 705 479.52 A 14.52 14.52 0 0 1  719.52 465 L 705 479.52 A 14.52 14.52 0 0 0 719.52 465" fill="#afced3"/><path d="M 720.94 479.06 A 28.12 28.12 0 0 1  749.0600000000001 450.94 L 720.94 479.06 A 28.12 28.12 0 0 0 749.0600000000001 450.94" fill="#6d8c97"/><path d="M 751.63 451.63 A 26.74 26.74 0 0 1  778.37 478.37 L 751.63 451.63 A 26.74 26.74 0 0 0 778.37 478.37" fill="#7299a1"/><path d="M 782.32 477.67 A 25.35 25.35 0 0 1  807.6700000000001 452.32 L 782.32 477.67 A 25.35 25.35 0 0 0 807.6700000000001 452.32" fill="#8693cc"/><rect x="813.0144" y="453.0144" width="23.971200000000003" height="23.971200000000003" fill="none"/><path d="M 825 465 A 11.99 11.99 0 0 1  836.99 453.01 L 825 465 A 11.99 11.99 0 0 0 836.99 453.01" fill="#e5e8f1"/><path d="M 813.01 476.99 A 11.99 11.99 0 0 1  825 465 L 813.01 476.99 A 11.99 11.99 0 0 0 825 465" fill="#4d6c92"/><path d="M 825 476.99 A 11.99 11.99 0 0 1  836.99 465 L 825 476.99 A 11.99 11.99 0 0 0 836.99 465" fill="#ced6df"/><rect x="843.7056" y="453.7056" width="22.5888" height="22.5888" fill="none"/><path d="M 855 453.71 A 11.29 11.29 0 0 1  866.29 465 L 855 453.71 A 11.29 11.29 0 0 0 866.29 465" fill="#7185b7"/><path d="M 855 465 A 11.29 11.29 0 0 1  866.29 476.29 L 855 465 A 11.29 11.29 0 0 0 866.29 476.29" fill="#516f97"/><path d="M 905.09 474.90999999999997 A 19.82 19.82 0 0 1  924.9100000000001 455.09 L 905.09 474.90999999999997 A 19.82 19.82 0 0 0 924.9100000000001 455.09" fill="#063c4a"/><path d="M 935.78 455.78 A 18.44 18.44 0 0 1  954.22 474.21999999999997 L 935.78 455.78 A 18.44 18.44 0 0 0 954.22 474.21999999999997" fill="#b2c1ca"/><rect x="997.1616" y="457.1616" width="15.676799999999997" height="15.676799999999997" fill="none"/><path d="M 997.16 457.16 A 7.84 7.84 0 0 1  1005 465 L 997.16 457.16 A 7.84 7.84 0 0 0 1005 465" fill="#dce1ea"/><path d="M 997.16 472.84 A 7.84 7.84 0 0 1  1005 465 L 997.16 472.84 A 7.84 7.84 0 0 0 1005 465" fill="#d1ebf0"/><path d="M 1058.54 458.54 A 12.91 12.91 0 0 1  1071.45 471.45000000000005 L 1058.54 458.54 A 12.91 12.91 0 0 0 1071.45 471.45000000000005" fill="#265863"/><path d="M 100.13 499.86 A 9.73 9.73 0 0 1  109.86 490.13 L 100.13 499.86 A 9.73 9.73 0 0 0 109.86 490.13" fill="#95b7be"/><path d="M 276.4 503.59999999999997 A 17.2 17.2 0 0 1  293.59999999999997 486.4 L 276.4 503.59999999999997 A 17.2 17.2 0 0 0 293.59999999999997 486.4" fill="#d2ecf0"/><rect x="305.7792" y="485.7792" width="18.4416" height="18.4416" fill="none"/><path d="M 305.78 495 A 9.22 9.22 0 0 1  315 485.78 L 305.78 495 A 9.22 9.22 0 0 0 315 485.78" fill="#a0b3bd"/><path d="M 315 495 A 9.22 9.22 0 0 1  324.22 485.78 L 315 495 A 9.22 9.22 0 0 0 324.22 485.78" fill="#043b47"/><path d="M 315 495 A 9.22 9.22 0 0 1  324.22 504.22 L 315 495 A 9.22 9.22 0 0 0 324.22 504.22" fill="#053c48"/><path d="M 335.16 504.85 A 19.69 19.69 0 0 1  354.85 485.16 L 335.16 504.85 A 19.69 19.69 0 0 0 354.85 485.16" fill="#769da5"/><path d="M 364.54 484.54 A 20.93 20.93 0 0 1  385.47 505.47 L 364.54 484.54 A 20.93 20.93 0 0 0 385.47 505.47" fill="#7084b6"/><rect x="393.91296" y="483.91296" width="22.174079999999996" height="22.174079999999996" fill="none"/><path d="M 393.91 495 A 11.09 11.09 0 0 1  405 483.91 L 393.91 495 A 11.09 11.09 0 0 0 405 483.91" fill="#204e64"/><path d="M 405 495 A 11.09 11.09 0 0 1  416.09 483.91 L 405 495 A 11.09 11.09 0 0 0 416.09 483.91" fill="#c2cdd6"/><path d="M 393.91 495 A 11.09 11.09 0 0 1  405 506.09 L 393.91 495 A 11.09 11.09 0 0 0 405 506.09" fill="#063c4a"/><path d="M 405 495 A 11.09 11.09 0 0 1  416.09 506.09 L 405 495 A 11.09 11.09 0 0 0 416.09 506.09" fill="#083f4a"/><rect x="423.29088" y="483.29088" width="23.41824" height="23.41824" fill="none"/><path d="M 423.29 483.29 A 11.71 11.71 0 0 1  435 495 L 423.29 483.29 A 11.71 11.71 0 0 0 435 495" fill="#a2a6e8"/><path d="M 435 483.29 A 11.71 11.71 0 0 1  446.71 495 L 435 483.29 A 11.71 11.71 0 0 0 446.71 495" fill="#0e4252"/><path d="M 423.29 506.71 A 11.71 11.71 0 0 1  435 495 L 423.29 506.71 A 11.71 11.71 0 0 0 435 495" fill="#2f5c68"/><path d="M 452.67 507.33000000000004 A 24.66 24.66 0 0 1  477.33000000000004 482.67 L 452.67 507.33000000000004 A 24.66 24.66 0 0 0 477.33000000000004 482.67" fill="#c8d1db"/><path d="M 482.05 507.96000000000004 A 25.91 25.91 0 0 1  507.96000000000004 482.05 L 482.05 507.96000000000004 A 25.91 25.91 0 0 0 507.96000000000004 482.05" fill="#235661"/><rect x="511.632" y="481.632" width="26.735999999999997" height="26.735999999999997" fill="none"/><path d="M 511.63 481.63 A 13.37 13.37 0 0 1  525 495 L 511.63 481.63 A 13.37 13.37 0 0 0 525 495" fill="#679098"/><path d="M 525 495 A 13.37 13.37 0 0 1  538.37 481.63 L 525 495 A 13.37 13.37 0 0 0 538.37 481.63" fill="#637ca9"/><path d="M 511.63 508.37 A 13.37 13.37 0 0 1  525 495 L 511.63 508.37 A 13.37 13.37 0 0 0 525 495" fill="#d7f0f4"/><path d="M 525 508.37 A 13.37 13.37 0 0 1  538.37 495 L 525 508.37 A 13.37 13.37 0 0 0 538.37 495" fill="#6b8a95"/><rect x="541.632" y="481.632" width="26.735999999999997" height="26.735999999999997" fill="none"/><path d="M 555 495 A 13.37 13.37 0 0 1  568.37 481.63 L 555 495 A 13.37 13.37 0 0 0 568.37 481.63" fill="#9fa4e5"/><path d="M 541.63 508.37 A 13.37 13.37 0 0 1  555 495 L 541.63 508.37 A 13.37 13.37 0 0 0 555 495" fill="#7e8ec5"/><path d="M 555 495 A 13.37 13.37 0 0 1  568.37 508.37 L 555 495 A 13.37 13.37 0 0 0 568.37 508.37" fill="#b1cfd5"/><path d="M 571.63 508.37 A 26.74 26.74 0 0 1  598.37 481.63 L 571.63 508.37 A 26.74 26.74 0 0 0 598.37 481.63" fill="#d1ebf0"/><path d="M 601.63 508.37 A 26.74 26.74 0 0 1  628.37 481.63 L 601.63 508.37 A 26.74 26.74 0 0 0 628.37 481.63" fill="#d6eff3"/><path d="M 631.63 481.63 A 26.74 26.74 0 0 1  658.37 508.37 L 631.63 481.63 A 26.74 26.74 0 0 0 658.37 508.37" fill="#ebecf5"/><rect x="661.632" y="481.632" width="26.735999999999997" height="26.735999999999997" fill="none"/><path d="M 661.63 495 A 13.37 13.37 0 0 1  675 481.63 L 661.63 495 A 13.37 13.37 0 0 0 675 481.63" fill="#275964"/><path d="M 675 495 A 13.37 13.37 0 0 1  688.37 481.63 L 675 495 A 13.37 13.37 0 0 0 688.37 481.63" fill="#023a45"/><path d="M 661.63 495 A 13.37 13.37 0 0 1  675 508.37 L 661.63 495 A 13.37 13.37 0 0 0 675 508.37" fill="#3c6671"/><path d="M 675 508.37 A 13.37 13.37 0 0 1  688.37 495 L 675 508.37 A 13.37 13.37 0 0 0 688.37 495" fill="#39636f"/><path d="M 722.05 507.96000000000004 A 25.91 25.91 0 0 1  747.9599999999999 482.05 L 722.05 507.96000000000004 A 25.91 25.91 0 0 0 747.9599999999999 482.05" fill="#4d6c92"/><path d="M 783.29 483.29 A 23.42 23.42 0 0 1  806.7099999999999 506.71000000000004 L 783.29 483.29 A 23.42 23.42 0 0 0 806.7099999999999 506.71000000000004" fill="#42707a"/><path d="M 813.91 483.91 A 22.17 22.17 0 0 1  836.0799999999999 506.08000000000004 L 813.91 483.91 A 22.17 22.17 0 0 0 836.0799999999999 506.08000000000004" fill="#b4c2cc"/><path d="M 875.16 504.85 A 19.69 19.69 0 0 1  894.85 485.16 L 875.16 504.85 A 19.69 19.69 0 0 0 894.85 485.16" fill="#959ddb"/><path d="M 1058.89 488.89 A 12.22 12.22 0 0 1  1071.1100000000001 501.11 L 1058.89 488.89 A 12.22 12.22 0 0 0 1071.1100000000001 501.11" fill="#013945"/><path d="M 1120.13 499.86 A 9.73 9.73 0 0 1  1129.8600000000001 490.13 L 1120.13 499.86 A 9.73 9.73 0 0 0 1129.8600000000001 490.13" fill="#7889be"/><rect x="218.12928" y="518.12928" width="13.74144" height="13.74144" fill="none"/><path d="M 218.13 525 A 6.87 6.87 0 0 1  225 518.13 L 218.13 525 A 6.87 6.87 0 0 0 225 518.13" fill="#aabbc5"/><path d="M 225 525 A 6.87 6.87 0 0 1  231.87 518.13 L 225 525 A 6.87 6.87 0 0 0 231.87 518.13" fill="#527782"/><path d="M 277.02 517.02 A 15.95 15.95 0 0 1  292.96999999999997 532.97 L 277.02 517.02 A 15.95 15.95 0 0 0 292.96999999999997 532.97" fill="#355c7a"/><path d="M 306.47 533.53 A 17.06 17.06 0 0 1  323.53000000000003 516.47 L 306.47 533.53 A 17.06 17.06 0 0 0 323.53000000000003 516.47" fill="#4c7983"/><path d="M 365.36 534.63 A 19.27 19.27 0 0 1  384.63 515.36 L 365.36 534.63 A 19.27 19.27 0 0 0 384.63 515.36" fill="#013945"/><rect x="394.81152" y="514.81152" width="20.376959999999997" height="20.376959999999997" fill="none"/><path d="M 394.81 525 A 10.19 10.19 0 0 1  405 535.19 L 394.81 525 A 10.19 10.19 0 0 0 405 535.19" fill="#869fa9"/><path d="M 405 535.19 A 10.19 10.19 0 0 1  415.19 525 L 405 535.19 A 10.19 10.19 0 0 0 415.19 525" fill="#295b65"/><path d="M 424.26 535.74 A 21.48 21.48 0 0 1  445.74 514.26 L 424.26 535.74 A 21.48 21.48 0 0 0 445.74 514.26" fill="#436688"/><path d="M 453.71 536.3000000000001 A 22.59 22.59 0 0 1  476.29999999999995 513.71 L 453.71 536.3000000000001 A 22.59 22.59 0 0 0 476.29999999999995 513.71" fill="#22525e"/><path d="M 483.15 536.84 A 23.69 23.69 0 0 1  506.84 513.15 L 483.15 536.84 A 23.69 23.69 0 0 0 506.84 513.15" fill="#b7b4fe"/><path d="M 542.78 512.78 A 24.43 24.43 0 0 1  567.2099999999999 537.2099999999999 L 542.78 512.78 A 24.43 24.43 0 0 0 567.2099999999999 537.2099999999999" fill="#537098"/><path d="M 572.78 512.78 A 24.43 24.43 0 0 1  597.2099999999999 537.2099999999999 L 572.78 512.78 A 24.43 24.43 0 0 0 597.2099999999999 537.2099999999999" fill="#4a6b90"/><path d="M 632.78 512.78 A 24.43 24.43 0 0 1  657.2099999999999 537.2099999999999 L 632.78 512.78 A 24.43 24.43 0 0 0 657.2099999999999 537.2099999999999" fill="#96abb5"/><path d="M 662.78 537.2099999999999 A 24.43 24.43 0 0 1  687.2099999999999 512.78 L 662.78 537.2099999999999 A 24.43 24.43 0 0 0 687.2099999999999 512.78" fill="#779ea6"/><rect x="723.15264" y="513.15264" width="23.694719999999997" height="23.694719999999997" fill="none"/><path d="M 723.15 513.15 A 11.85 11.85 0 0 1  735 525 L 723.15 513.15 A 11.85 11.85 0 0 0 735 525" fill="#3c6b75"/><path d="M 735 513.15 A 11.85 11.85 0 0 1  746.85 525 L 735 513.15 A 11.85 11.85 0 0 0 746.85 525" fill="#49698e"/><path d="M 735 536.85 A 11.85 11.85 0 0 1  746.85 525 L 735 536.85 A 11.85 11.85 0 0 0 746.85 525" fill="#57838b"/><path d="M 753.71 513.71 A 22.59 22.59 0 0 1  776.3000000000001 536.3000000000001 L 753.71 513.71 A 22.59 22.59 0 0 0 776.3000000000001 536.3000000000001" fill="#063d49"/><path d="M 784.26 535.74 A 21.48 21.48 0 0 1  805.74 514.26 L 784.26 535.74 A 21.48 21.48 0 0 0 805.74 514.26" fill="#949ddb"/><path d="M 845.36 534.63 A 19.27 19.27 0 0 1  864.63 515.36 L 845.36 534.63 A 19.27 19.27 0 0 0 864.63 515.36" fill="#506e95"/><rect x="906.4704" y="516.4704" width="17.059199999999997" height="17.059199999999997" fill="none"/><path d="M 915 516.47 A 8.53 8.53 0 0 1  923.53 525 L 915 516.47 A 8.53 8.53 0 0 0 923.53 525" fill="#3e6283"/><path d="M 915 525 A 8.53 8.53 0 0 1  923.53 533.53 L 915 525 A 8.53 8.53 0 0 0 923.53 533.53" fill="#2d5772"/><path d="M 998.13 518.13 A 13.74 13.74 0 0 1  1011.87 531.87 L 998.13 518.13 A 13.74 13.74 0 0 0 1011.87 531.87" fill="#bfdbe0"/><path d="M 277.65 547.65 A 14.71 14.71 0 0 1  292.35999999999996 562.36 L 277.65 547.65 A 14.71 14.71 0 0 0 292.35999999999996 562.36" fill="none"/><path d="M 307.16 562.8399999999999 A 15.68 15.68 0 0 1  322.84000000000003 547.16 L 307.16 562.8399999999999 A 15.68 15.68 0 0 0 322.84000000000003 547.16" fill="#94b7bd"/><path d="M 366.19 546.19 A 17.61 17.61 0 0 1  383.8 563.8000000000001 L 366.19 546.19 A 17.61 17.61 0 0 0 383.8 563.8000000000001" fill="#516f96"/><rect x="484.25856" y="544.25856" width="21.48288" height="21.48288" fill="none"/><path d="M 484.26 544.26 A 10.74 10.74 0 0 1  495 555 L 484.26 544.26 A 10.74 10.74 0 0 0 495 555" fill="#7789bd"/><path d="M 495 555 A 10.74 10.74 0 0 1  505.74 544.26 L 495 555 A 10.74 10.74 0 0 0 505.74 544.26" fill="#4a6b90"/><path d="M 495 565.74 A 10.74 10.74 0 0 1  505.74 555 L 495 565.74 A 10.74 10.74 0 0 0 505.74 555" fill="#063d49"/><path d="M 573.94 566.07 A 22.13 22.13 0 0 1  596.07 543.94 L 573.94 566.07 A 22.13 22.13 0 0 0 596.07 543.94" fill="#265863"/><path d="M 603.94 566.07 A 22.13 22.13 0 0 1  626.07 543.94 L 603.94 566.07 A 22.13 22.13 0 0 0 626.07 543.94" fill="#6a929b"/><path d="M 663.94 543.94 A 22.13 22.13 0 0 1  686.07 566.07 L 663.94 543.94 A 22.13 22.13 0 0 0 686.07 566.07" fill="#0d434f"/><path d="M 693.94 566.07 A 22.13 22.13 0 0 1  716.07 543.94 L 693.94 566.07 A 22.13 22.13 0 0 0 716.07 543.94" fill="#245762"/><rect x="754.7424" y="544.7424" width="20.5152" height="20.5152" fill="none"/><path d="M 754.74 555 A 10.26 10.26 0 0 1  765 544.74 L 754.74 555 A 10.26 10.26 0 0 0 765 544.74" fill="#c3dfe4"/><path d="M 765 555 A 10.26 10.26 0 0 1  775.26 544.74 L 765 555 A 10.26 10.26 0 0 0 775.26 544.74" fill="#516f96"/><path d="M 937.65 547.65 A 14.71 14.71 0 0 1  952.36 562.36 L 937.65 547.65 A 14.71 14.71 0 0 0 952.36 562.36" fill="#2c5e68"/><path d="M 1120.55 550.55 A 8.9 8.9 0 0 1  1129.45 559.4499999999999 L 1120.55 550.55 A 8.9 8.9 0 0 0 1129.45 559.4499999999999" fill="#5a858e"/><path d="M 219.1 579.1 A 11.81 11.81 0 0 1  230.91 590.91 L 219.1 579.1 A 11.81 11.81 0 0 0 230.91 590.91" fill="#55729a"/><rect x="248.68224" y="578.68224" width="12.635519999999996" height="12.635519999999996" fill="none"/><path d="M 255 585 A 6.32 6.32 0 0 1  261.32 578.68 L 255 585 A 6.32 6.32 0 0 0 261.32 578.68" fill="#b7b4fe"/><path d="M 248.68 591.32 A 6.32 6.32 0 0 1  255 585 L 248.68 591.32 A 6.32 6.32 0 0 0 255 585" fill="#204e64"/><rect x="396.60864" y="576.60864" width="16.782719999999998" height="16.782719999999998" fill="none"/><path d="M 396.61 585 A 8.39 8.39 0 0 1  405 576.61 L 396.61 585 A 8.39 8.39 0 0 0 405 576.61" fill="#638d95"/><path d="M 405 585 A 8.39 8.39 0 0 1  413.39 576.61 L 405 585 A 8.39 8.39 0 0 0 413.39 576.61" fill="#325e6a"/><path d="M 396.61 585 A 8.39 8.39 0 0 1  405 593.39 L 396.61 585 A 8.39 8.39 0 0 0 405 593.39" fill="#315e69"/><path d="M 426.19 576.19 A 17.61 17.61 0 0 1  443.8 593.8000000000001 L 426.19 576.19 A 17.61 17.61 0 0 0 443.8 593.8000000000001" fill="#9bbdc4"/><path d="M 455.78 575.78 A 18.44 18.44 0 0 1  474.21999999999997 594.22 L 455.78 575.78 A 18.44 18.44 0 0 0 474.21999999999997 594.22" fill="#184b56"/><rect x="485.36448" y="575.36448" width="19.271039999999996" height="19.271039999999996" fill="none"/><path d="M 485.36 585 A 9.64 9.64 0 0 1  495 575.36 L 485.36 585 A 9.64 9.64 0 0 0 495 575.36" fill="#749ba3"/><path d="M 485.36 594.64 A 9.64 9.64 0 0 1  495 585 L 485.36 594.64 A 9.64 9.64 0 0 0 495 585" fill="#b8c6cf"/><path d="M 495 594.64 A 9.64 9.64 0 0 1  504.64 585 L 495 594.64 A 9.64 9.64 0 0 0 504.64 585" fill="#8c97d2"/><path d="M 575.09 575.09 A 19.82 19.82 0 0 1  594.9100000000001 594.9100000000001 L 575.09 575.09 A 19.82 19.82 0 0 0 594.9100000000001 594.9100000000001" fill="#124652"/><path d="M 605.09 575.09 A 19.82 19.82 0 0 1  624.9100000000001 594.9100000000001 L 605.09 575.09 A 19.82 19.82 0 0 0 624.9100000000001 594.9100000000001" fill="#7f99a4"/><rect x="635.088" y="575.088" width="19.823999999999998" height="19.823999999999998" fill="none"/><path d="M 635.09 575.09 A 9.91 9.91 0 0 1  645 585 L 635.09 575.09 A 9.91 9.91 0 0 0 645 585" fill="#5c8790"/><path d="M 645 575.09 A 9.91 9.91 0 0 1  654.91 585 L 645 575.09 A 9.91 9.91 0 0 0 654.91 585" fill="#c1ccd6"/><path d="M 635.09 585 A 9.91 9.91 0 0 1  645 594.91 L 635.09 585 A 9.91 9.91 0 0 0 645 594.91" fill="#a4a8eb"/><path d="M 645 585 A 9.91 9.91 0 0 1  654.91 594.91 L 645 585 A 9.91 9.91 0 0 0 654.91 594.91" fill="#104450"/><path d="M 725.36 594.63 A 19.27 19.27 0 0 1  744.63 575.36 L 725.36 594.63 A 19.27 19.27 0 0 0 744.63 575.36" fill="#718f99"/><path d="M 1059.93 579.93 A 10.15 10.15 0 0 1  1070.0800000000002 590.0799999999999 L 1059.93 579.93 A 10.15 10.15 0 0 0 1070.0800000000002 590.0799999999999" fill="#0a3f4e"/><path d="M 219.58 620.4200000000001 A 10.84 10.84 0 0 1  230.42000000000002 609.58 L 219.58 620.4200000000001 A 10.84 10.84 0 0 0 230.42000000000002 609.58" fill="#c3dfe4"/><path d="M 278.89 608.89 A 12.22 12.22 0 0 1  291.11 621.11 L 278.89 608.89 A 12.22 12.22 0 0 0 291.11 621.11" fill="#6079a5"/><path d="M 456.82 606.82 A 16.37 16.37 0 0 1  473.19 623.19 L 456.82 606.82 A 16.37 16.37 0 0 0 473.19 623.19" fill="#98bac1"/><path d="M 486.47 623.53 A 17.06 17.06 0 0 1  503.53000000000003 606.47 L 486.47 623.53 A 17.06 17.06 0 0 0 503.53000000000003 606.47" fill="#9eb1bb"/><path d="M 546.24 606.24 A 17.52 17.52 0 0 1  563.76 623.76 L 546.24 606.24 A 17.52 17.52 0 0 0 563.76 623.76" fill="#8391c9"/><path d="M 576.24 623.76 A 17.52 17.52 0 0 1  593.76 606.24 L 576.24 623.76 A 17.52 17.52 0 0 0 593.76 606.24" fill="#c4cfd8"/><path d="M 756.82 623.19 A 16.37 16.37 0 0 1  773.19 606.82 L 756.82 623.19 A 16.37 16.37 0 0 0 773.19 606.82" fill="#9bafb9"/><path d="M 908.54 621.4499999999999 A 12.91 12.91 0 0 1  921.4499999999999 608.54 L 908.54 621.4499999999999 A 12.91 12.91 0 0 0 921.4499999999999 608.54" fill="#7386b9"/><path d="M 938.89 608.89 A 12.22 12.22 0 0 1  951.11 621.11 L 938.89 608.89 A 12.22 12.22 0 0 0 951.11 621.11" fill="#729aa2"/><path d="M 190.34 649.6600000000001 A 9.32 9.32 0 0 1  199.66 640.34 L 190.34 649.6600000000001 A 9.32 9.32 0 0 0 199.66 640.34" fill="#16475a"/><path d="M 338.96 651.0400000000001 A 12.08 12.08 0 0 1  351.03999999999996 638.96 L 338.96 651.0400000000001 A 12.08 12.08 0 0 0 351.03999999999996 638.96" fill="#3e6283"/><path d="M 457.85 637.85 A 14.29 14.29 0 0 1  472.14000000000004 652.14 L 457.85 637.85 A 14.29 14.29 0 0 0 472.14000000000004 652.14" fill="#8fa6b0"/><path d="M 487.58 652.4300000000001 A 14.85 14.85 0 0 1  502.43 637.58 L 487.58 652.4300000000001 A 14.85 14.85 0 0 0 502.43 637.58" fill="#789ea6"/><rect x="517.392" y="637.392" width="15.215999999999996" height="15.215999999999996" fill="none"/><path d="M 577.39 637.39 A 15.22 15.22 0 0 1  592.61 652.61 L 577.39 637.39 A 15.22 15.22 0 0 0 592.61 652.61" fill="#c2cdd6"/><path d="M 637.39 637.39 A 15.22 15.22 0 0 1  652.61 652.61 L 637.39 637.39 A 15.22 15.22 0 0 0 652.61 652.61" fill="#e5e8f1"/><path d="M 697.39 652.61 A 15.22 15.22 0 0 1  712.61 637.39 L 697.39 652.61 A 15.22 15.22 0 0 0 712.61 637.39" fill="#3d6c76"/><path d="M 727.58 637.58 A 14.85 14.85 0 0 1  742.4300000000001 652.4300000000001 L 727.58 637.58 A 14.85 14.85 0 0 0 742.4300000000001 652.4300000000001" fill="#507580"/><rect x="757.8528" y="637.8528" width="14.294399999999996" height="14.294399999999996" fill="none"/><path d="M 757.85 645 A 7.15 7.15 0 0 1  765 637.85 L 757.85 645 A 7.15 7.15 0 0 0 765 637.85" fill="#c5e0e5"/><rect x="788.12928" y="638.12928" width="13.74144" height="13.74144" fill="none"/><path d="M 878.96 651.0400000000001 A 12.08 12.08 0 0 1  891.0400000000001 638.96 L 878.96 651.0400000000001 A 12.08 12.08 0 0 0 891.0400000000001 638.96" fill="#a2a6e8"/><path d="M 1000.06 640.06 A 9.87 9.87 0 0 1  1009.93 649.93 L 1000.06 640.06 A 9.87 9.87 0 0 0 1009.93 649.93" fill="#57838c"/><path d="M 220.55 670.55 A 8.9 8.9 0 0 1  229.45000000000002 679.4499999999999 L 220.55 670.55 A 8.9 8.9 0 0 0 229.45000000000002 679.4499999999999" fill="#87a0aa"/><path d="M 280.13 679.86 A 9.73 9.73 0 0 1  289.86 670.13 L 280.13 679.86 A 9.73 9.73 0 0 0 289.86 670.13" fill="#a7b8c2"/><rect x="399.30432" y="669.30432" width="11.391359999999999" height="11.391359999999999" fill="none"/><rect x="578.544" y="668.544" width="12.911999999999999" height="12.911999999999999" fill="none"/><path d="M 585 668.54 A 6.46 6.46 0 0 1  591.46 675 L 585 668.54 A 6.46 6.46 0 0 0 591.46 675" fill="#859ea8"/><path d="M 585 675 A 6.46 6.46 0 0 1  591.46 681.46 L 585 675 A 6.46 6.46 0 0 0 591.46 681.46" fill="#8894ce"/><path d="M 608.54 681.4499999999999 A 12.91 12.91 0 0 1  621.4499999999999 668.54 L 608.54 681.4499999999999 A 12.91 12.91 0 0 0 621.4499999999999 668.54" fill="#91b4bb"/><rect x="728.68224" y="668.68224" width="12.635519999999996" height="12.635519999999996" fill="none"/><rect x="758.8896" y="668.8896" width="12.220799999999997" height="12.220799999999997" fill="none"/><path d="M 765 668.89 A 6.11 6.11 0 0 1  771.11 675 L 765 668.89 A 6.11 6.11 0 0 0 771.11 675" fill="#1a4e59"/><rect x="1030.75584" y="670.75584" width="8.488319999999998" height="8.488319999999998" fill="none"/><path d="M 579.7 699.7 A 10.61 10.61 0 0 1  590.3100000000001 710.3100000000001 L 579.7 699.7 A 10.61 10.61 0 0 0 590.3100000000001 710.3100000000001" fill="#9da2e3"/><path d="M 609.7 699.7 A 10.61 10.61 0 0 1  620.3100000000001 710.3100000000001 L 609.7 699.7 A 10.61 10.61 0 0 0 620.3100000000001 710.3100000000001" fill="#7789bd"/><path d="M 880.48 709.52 A 9.04 9.04 0 0 1  889.52 700.48 L 880.48 709.52 A 9.04 9.04 0 0 0 889.52 700.48" fill="#7d98a2"/><path d="M 910.62 709.38 A 8.76 8.76 0 0 1  919.38 700.62 L 910.62 709.38 A 8.76 8.76 0 0 0 919.38 700.62" fill="#7286b8"/><path d="M 730.89 730.89 A 8.21 8.21 0 0 1  739.1 739.1 L 730.89 730.89 A 8.21 8.21 0 0 0 739.1 739.1" fill="#eaebf4"/><path d="M 1001.52 738.49 A 6.97 6.97 0 0 1  1008.49 731.52 L 1001.52 738.49 A 6.97 6.97 0 0 0 1008.49 731.52" fill="#0b3f4f"/></g></svg>